<?xml version="1.0" encoding="UTF-8" standalone="no"?>
<!-- Created with Inkscape (http://www.inkscape.org/) -->

<svg
   viewBox="0 0 270.00001 225.99999"
   version="1.1"
   id="svg5"
   inkscape:version="1.1.2 (b8e25be833, 2022-02-05)"
   sodipodi:docname="food portion.svg"
   width="270"
   height="226"
   xmlns:inkscape="http://www.inkscape.org/namespaces/inkscape"
   xmlns:sodipodi="http://sodipodi.sourceforge.net/DTD/sodipodi-0.dtd"
   xmlns="http://www.w3.org/2000/svg"
   xmlns:svg="http://www.w3.org/2000/svg">
  <sodipodi:namedview
     id="namedview7"
     pagecolor="#ffffff"
     bordercolor="#666666"
     borderopacity="1.0"
     inkscape:pageshadow="2"
     inkscape:pageopacity="0.0"
     inkscape:pagecheckerboard="0"
     inkscape:document-units="mm"
     showgrid="false"
     units="px"
     width="1024px"
     inkscape:zoom="1.8494108"
     inkscape:cx="58.396977"
     inkscape:cy="132.47462"
     inkscape:window-width="1366"
     inkscape:window-height="705"
     inkscape:window-x="-8"
     inkscape:window-y="-8"
     inkscape:window-maximized="1"
     inkscape:current-layer="layer1" />
  <defs
     id="defs2">
    <linearGradient
       id="linearGradient8371"
       inkscape:swatch="solid">
      <stop
         style="stop-color:#f2cc83;stop-opacity:1;"
         offset="0"
         id="stop8369" />
    </linearGradient>
  </defs>
  <g
     inkscape:label="Camada 1"
     inkscape:groupmode="layer"
     id="layer1">
    <path
       id="path353"
       style="fill:#ffffff;stroke:none;stroke-width:0.995884"
       d="M 136.48741,0 A 38.452749,38.452749 0 0 0 100.63363,24.830974 35.001675,35.001675 0 0 0 77.524054,16.105316 35.001675,35.001675 0 0 0 42.955975,45.76983 35.001675,35.001675 0 0 0 8.5979678,80.724973 35.001675,35.001675 0 0 0 12.672917,96.878913 H 260.11711 a 35.001675,35.001675 0 0 0 3.1841,-14.53952 A 35.001675,35.001675 0 0 0 229.89046,47.376471 35.001675,35.001675 0 0 0 194.91392,13.413316 35.001675,35.001675 0 0 0 171.46201,22.49298 38.452749,38.452749 0 0 0 136.48741,0 Z M 10.212386,113.03285 c -33.116309,29.4642 23.003223,89.98261 45.118228,92.0026 a 15.491256,15.491256 0 0 0 -0.836384,4.92496 15.491256,15.491256 0 0 0 7.412715,13.19546 v 1.88284 h 4.695445 a 15.491256,15.491256 0 0 0 3.382501,0.41431 15.491256,15.491256 0 0 0 3.382511,-0.41431 H 194.77387 a 15.491256,15.491256 0 0 0 6.60163,1.48994 15.491256,15.491256 0 0 0 15.49261,-15.49067 15.491256,15.491256 0 0 0 -1.41408,-6.45574 l 1.53856,-0.006 c 34.67319,-9.15494 66.85049,-55.7632 46.84742,-91.54356 z" />
  </g>
</svg>
