<?xml version="1.0" encoding="UTF-8" standalone="no"?>
<!-- Created with Inkscape (http://www.inkscape.org/) -->

<svg
   width="200"
   height="200"
   viewBox="0 0 200 200"
   version="1.1"
   id="svg5"
   xml:space="preserve"
   inkscape:version="1.2 (dc2aedaf03, 2022-05-15)"
   sodipodi:docname="pizza charge mussarela, chocolate preto, amendoin, leite condensado.svg"
   inkscape:export-filename="pizza americana musarela, escarolo, tomate, oregano.png"
   inkscape:export-xdpi="96"
   inkscape:export-ydpi="96"
   xmlns:inkscape="http://www.inkscape.org/namespaces/inkscape"
   xmlns:sodipodi="http://sodipodi.sourceforge.net/DTD/sodipodi-0.dtd"
   xmlns="http://www.w3.org/2000/svg"
   xmlns:svg="http://www.w3.org/2000/svg"><sodipodi:namedview
     id="namedview7"
     pagecolor="#ffffff"
     bordercolor="#000000"
     borderopacity="0.25"
     inkscape:showpageshadow="2"
     inkscape:pageopacity="0.0"
     inkscape:pagecheckerboard="0"
     inkscape:deskcolor="#d1d1d1"
     inkscape:document-units="mm"
     showgrid="false"
     inkscape:zoom="1.4142136"
     inkscape:cx="194.45437"
     inkscape:cy="102.53048"
     inkscape:window-width="1280"
     inkscape:window-height="737"
     inkscape:window-x="-8"
     inkscape:window-y="-8"
     inkscape:window-maximized="1"
     inkscape:current-layer="layer1" /><defs
     id="defs2"><inkscape:perspective
       sodipodi:type="inkscape:persp3d"
       inkscape:vp_x="0 : 100 : 1"
       inkscape:vp_y="0 : 1000 : 0"
       inkscape:vp_z="200 : 100 : 1"
       inkscape:persp3d-origin="100 : 66.666667 : 1"
       id="perspective13226" /></defs><g
     inkscape:label="Camada 1"
     inkscape:groupmode="layer"
     id="layer1"><circle
       style="fill:#e39a62;fill-opacity:0.94902;stroke:none"
       id="path90"
       cx="100"
       cy="100"
       r="100"
       sodipodi:insensitive="true" /><circle
       style="fill:#fdffaa;fill-opacity:1;stroke:none;stroke-width:0.972489"
       id="path90-2"
       cx="100.00042"
       cy="100.00042"
       r="97.248924"
       sodipodi:insensitive="true" /><g
       id="g20711-6-4"
       transform="rotate(42.022618,-45.016242,90.555627)" /><path
       id="path2348"
       style="fill:#280b0b;fill-opacity:1;stroke-width:0.856095"
       d="m 99.652999,3.2992361 a 95.812991,97.227227 0 0 0 -25.5385,3.61774 c 0.059,0.34734 0.1102,0.69172 0.092,1.05614 -0.147,2.8715899 -1.741,2.9092699 -2.8297,0.0671 -0.047,-0.12337 -0.1127,-0.14474 -0.1629,-0.25564 a 95.812991,97.227227 0 0 0 -2.448,0.92703 c 0.022,0.12731 -0.019,0.19208 0.013,0.32795 0.3426,1.4606599 0.3009,2.9267699 -0.094,3.2562299 -0.6579,0.54896 -4.3839,-0.46424 -5.779,-1.36602 a 95.812991,97.227227 0 0 0 -17.0469,9.31937 c 0.4467,0.45269 0.9222,0.90263 1.5777,1.31953 1.7015,1.08207 2.9404,2.61613 3.1096,3.85273 0.3916,2.86196 -1.7599,2.89811 -3.985,0.0671 -0.9466,-1.20405 -2.6966,-2.3395 -4.0384,-2.7062 a 95.812991,97.227227 0 0 0 -15.7059,14.64916 c 2.0616,1.5798 2.145,1.77631 0.6795,1.98059 -0.4708,0.0656 -1.0561,-0.21878 -1.6617,-0.64815 a 95.812991,97.227227 0 0 0 -1.962,2.65973 c 1.8882,4.84619 1.7774,6.34799 -0.5217,5.48988 -1.3518,-0.50442 -2.2169,-0.0303 -4.242,2.33436 -0.6327,0.73848 -1.1924,1.33031 -1.7176,1.79725 a 95.812991,97.227227 0 0 0 -4.7459,8.81583 c 1.9008,0.44197 2.6211,0.18809 4.4303,-1.53387 3.4144,-3.2496 4.2336,-2.98282 4.4889,1.46415 0.1739,3.02893 0.5434,3.94081 1.6744,4.13677 0.7978,0.13752 2.6759,1.65543 4.1733,3.37243 3.1203,3.57742 4.6916,3.38038 4.5397,-0.5681 -0.087,-2.26936 -0.4962,-2.83135 -2.3818,-3.26914 -3.5011,-0.81284 -2.8197,-1.33365 1.8653,-1.4254 4.0669,-0.0799 4.2879,-0.19918 4.9901,-2.69071 0.4041,-1.43387 1.1763,-2.98009 1.7151,-3.43699 0.9427,-0.79967 0.7826,-5.92897 -0.1806,-5.79458 -0.2589,0.0354 -2.0686,1.28471 -4.0232,2.77334 -3.2285,2.45927 -3.7013,2.60539 -5.1759,1.59067 -0.8927,-0.61421 -2.2465,-1.03055 -3.0079,-0.92445 -0.9632,0.13478 -1.2806,-0.28339 -1.0433,-1.37376 0.4668,-2.14503 1.5663,-3.01036 4.3286,-3.41116 3.8104,-0.55279 7.7887,-3.36161 7.9649,-5.62416 0.3787,-4.86269 0.1649,-5.44172 -2.3081,-6.26197 -2.9143,-0.96677 -3.4782,-3.17147 -1.4377,-5.62674 1.4118,-1.69893 1.494,-1.69169 2.5676,0.28921 1.7683,3.26306 2.7244,3.05646 3.8603,-0.83665 0.8083,-2.77079 1.4857,-3.63665 2.8449,-3.62807 v -0.003 c 1.3819,0 2.1156,0.94178 3.2572,4.14194 1.5584,4.36821 3.4409,5.41858 5.0436,2.81208 1.0933,-1.77783 5.6974,-2.6013 5.9088,-1.05615 0.082,0.59871 -0.3481,2.06531 -0.9542,3.25881 -0.8301,1.63441 -1.6646,2.13643 -3.3794,2.03224 -1.9655,-0.11992 -2.4318,0.33975 -3.4099,3.36468 -0.7352,2.27439 -0.8278,4.26805 -0.2646,5.67839 1.1188,2.80189 2.6588,2.01445 3.074,-1.5726 0.353,-3.05037 1.8296,-4.02109 2.1833,-1.43573 0.1203,0.88017 0.9769,2.89767 1.9034,4.4828 2.104,3.59976 2.2518,4.59326 0.71,4.80816 -0.669,0.0933 -1.4267,0.64887 -1.682,1.23174 -0.3253,0.74239 0.1635,0.80318 1.6362,0.20399 1.7521,-0.71279 2.1905,-0.54381 2.6338,1.02 0.2003,0.70671 1.0322,1.38857 2.0408,2.00899 -1.448,-0.0149 -2.405,0.5079 -2.7584,1.63199 -0.2975,0.9462 -1.0689,1.71978 -1.7126,1.71978 -2.0753,0 -2.3525,1.78741 -0.8092,5.24199 1.8034,4.03667 1.3612,4.72868 -2.2216,3.46797 -3.2694,-1.15044 -4.2038,-0.67742 -4.2038,2.1252 0,1.17339 -0.8213,3.75806 -1.8245,5.74294 -1.8033,3.56781 -1.8347,3.58311 -2.6262,1.4693 -0.4403,-1.1759 -0.6141,-3.58676 -0.3868,-5.36076 0.4648,-3.62656 -1.2298,-4.52773 -2.8322,-1.50546 -0.9383,1.7697 -3.4074,2.39277 -3.4074,0.85989 0,-1.55066 -4.8113,-0.9033 -6.3922,0.85989 -1.8249,2.03536 -5.5373,2.32497 -5.5373,0.43124 0,-1.90261 -1.7927,-1.57045 -2.3106,0.42865 -0.636,2.45497 -1.6439,2.12576 -2.6795,-0.8728 -0.4243,-1.2286 -1.2577,-2.31947 -1.9951,-2.83274 2.2361,-1.49395 2.5972,-2.22531 2.2699,-4.61707 -0.2149,-1.56974 -0.6758,-3.0748 -1.0281,-3.34403 -1.1367,-0.86893 -3.5051,-0.12726 -4.4379,1.38926 -1.8327,2.98053 -3.768,3.76747 -5.8096,2.36276 -0.2206,-0.15179 -0.3492,-0.22155 -0.5242,-0.33569 a 95.812991,97.227227 0 0 0 -1.9975996,5.43307 c 1.5784,0.9972 4.9038996,1.18731 7.8630996,0.54228 -1.1903,1.46909 -2.0972,3.52922 -1.939,5.28588 0.2032,2.25619 0.5265,2.54831 2.5752,2.33178 3.4771,-0.36734 3.0114,2.03726 -1.1426,5.9082 -2.5574,2.38316 -3.3453,3.689749 -2.962,4.908879 0.3227,1.02611 -0.1258,2.44643 -1.1731,3.71587 -1.1146,1.35097 -1.7040996,1.63281 -1.7226996,0.82115 -0.04,-1.72535 -3.1239,-4.79389 -4.9775,-5.10254 a 95.812991,97.227227 0 0 0 -0.687,9.760945 95.812991,97.227227 0 0 0 0.5496,7.79842 c 0,0.001 0,0.001 0,0.002 1.8583,1.83171 3.3794,3.63845 3.3794,4.0154 0,1.29564 -1.632,0.78794 -3.1453,-0.6533 a 95.812991,97.227227 0 0 0 0.3843,3.58417 c 1.6855,1.32369 1.8465,2.39329 0.7939,3.71072 a 95.812991,97.227227 0 0 0 1.4938,6.95918 l 1.2392,2.46863 -0.5267,0.29695 a 95.812991,97.227227 0 0 0 6.8604996,16.61683 c 0.8384,-0.86551 1.5589,-1.7723 1.7253,-2.4144 0.1955,-0.75442 0.4343,-1.17194 1.0739,-1.35311 0.6396,-0.18138 1.68,-0.12666 3.4709,0.0645 2.2537,0.24094 5.2484,0.96316 6.6544,1.60359 l 2.5549,1.1646 -4.5169,0.27888 c -3.0125,0.18555 -4.6795,0.70392 -5.0028,1.55452 -0.2668,0.70169 -1.8278,1.84126 -3.4685,2.53321 -0.2183,0.0921 -0.3463,0.0875 -0.5547,0.16784 a 95.812991,97.227227 0 0 0 60.0345,45.81441 c 0.6777,-0.8535 1.4464,-1.54906 2.1324,-1.68621 0.3581,-0.0711 0.6745,-0.0164 0.8983,0.21175 0.2682,0.27072 0.1407,1.16113 -0.1705,2.10454 a 95.812991,97.227227 0 0 0 2.8018,0.61975 c 0.028,-0.0503 0.051,-0.17905 0.079,-0.22209 l 1.3538,-2.08647 1.2825,2.90763 a 95.812991,97.227227 0 0 0 8.7691,0.75402 c -0.3292,-0.42952 -0.5637,-0.99758 -0.7355,-1.86439 -0.553,-2.79135 -3.5844,-4.59164 -6.2777,-3.72879 -2.9203,0.93557 -2.589,-1.31853 0.4606,-3.13485 1.9325,-1.15088 3.2432,-2.67917 3.5269,-4.11095 0.2602,-1.31323 1.5054,-2.88785 2.9391,-3.71845 2.5599,-1.48286 2.7446,-2.19124 2.8705,-10.95652 0.033,-2.29408 0.5349,-3.23438 2.1731,-4.07222 1.383401,-0.70746 2.448901,-1.05809 3.168201,-1.05098 0.7193,0 1.0917,0.37377 1.0917,1.09486 0,0.63625 0.799,1.8831 1.7736,2.77336 1.2684,1.15858 1.6407,2.27671 1.3131,3.93018 -0.2884,1.45521 0,2.69383 0.7863,3.3492 1.4568,1.22046 1.6512,4.77324 0.3079,5.61125 -0.5128,0.31986 -0.7488,1.55121 -0.5242,2.73719 0.3019,1.59443 -0.3431,2.9958 -2.476,5.37884 -1.5865,1.77247 -2.8831,3.96043 -2.8831,4.86238 0,1.40829 -0.9864,2.57919 -2.336101,3.27432 a 95.812991,97.227227 0 0 0 0.4861,0.0361 95.812991,97.227227 0 0 0 2.107001,-0.15235 c 0.1703,-0.1643 0.4011,-0.27631 0.6718,-0.27631 0.5119,0 1.9053,-0.77376 3.0969,-1.71978 1.1916,-0.94622 2.5275,-1.71978 2.9645,-1.71978 0.7743,0 0.4226,1.49588 -0.4707,3.26138 a 95.812991,97.227227 0 0 0 8.66721,-1.13352 c 0.06,-0.13796 0.033,-0.18851 0.1196,-0.35118 1.2879,-2.42906 1.0781,-8.8326 -0.4071,-12.42066 -0.7093,-1.71345 -1.571,-3.12113 -1.9162,-3.1297 -0.3452,0 -1.1421,-0.34384 -1.7711,-0.74627 -0.9496,-0.60755 -0.9545,-1.03976 -0.02,-2.5487 0.9115,-1.47307 0.9244,-2.3488 0.061,-4.62998 -0.9586,-2.53224 -0.8946,-2.93005 0.6565,-3.99216 0.948,-0.64899 1.7253,-2.07899 1.7253,-3.17619 0,-1.99371 0.951,-3.01763 2.0078,-2.60291 0.3523,0.13761 0.7145,0.43643 1.0586,0.91154 1.1318,1.56233 0.9799,3.93796 -0.682,10.59242 -0.8139,3.25874 -0.7213,3.90747 0.7965,5.59059 3.0214,3.34994 3.7622,5.61933 3.158,9.68604 -0.3144,2.1162 -1.3221,4.81376 -2.2394,5.99084 -0.1114,0.14295 -0.2038,0.20409 -0.313,0.33311 a 95.812991,97.227227 0 0 0 4.2726,-0.94251 c -0.4355,-2.04717 0.073,-3.67931 1.0153,-3.95861 0.3161,-0.0934 0.6803,-0.0362 1.0739,0.20917 0.5095,0.31786 0.9288,1.67544 0.9288,3.01607 0,0.0297 -0.013,0.0406 -0.013,0.0697 a 95.812991,97.227227 0 0 0 9.3263,-3.46021 c -0.1812,-1.00332 0.748,-1.76472 2.4022,-1.57261 0.3864,0.0449 0.6318,0.19735 0.939,0.30729 a 95.812991,97.227227 0 0 0 15.7517,-9.27547 c -2.5067,0.19442 -4.5474,0.1174 -4.5474,-0.22724 0,-1.35898 3.0613,-2.95575 5.7179,-2.98251 2.0418,-0.0197 3.592,-0.90095 6.1099,-3.46797 1.8421,-1.87811 3.9082,-3.40126 4.6288,-3.42407 a 95.812991,97.227227 0 0 0 2.5217,-2.55901 c 0.8126,-1.346 1.4709,-2.921 1.4709,-3.93278 0,-1.36139 1.3996,-2.59221 2.565,-2.65198 0.3885,-0.0197 0.7497,0.0902 1.0256,0.36926 0.07,0.0702 0.046,0.17224 0.1017,0.2453 a 95.812991,97.227227 0 0 0 3.4709,-4.70744 c -0.021,-0.37616 0.1185,-0.72975 0.5548,-1.00192 0.022,-0.0135 0.1575,0.007 0.1883,-0.006 a 95.812991,97.227227 0 0 0 8.1786,-14.28247 c -1.2791,0.009 -2.6113,-0.2448 -3.7788,-1.13618 -0.9098,-0.69429 -2.7601,-1.27394 -4.1123,-1.28855 -2.3434,-0.0266 -6.489,-3.3553 -6.489,-5.21101 0,-0.43645 1.2022,-1.41992 2.672,-2.18716 2.1649,-1.13002 3.0349,-1.199 4.5805,-0.36411 1.4384,0.77715 2.3524,0.78946 3.7177,0.0517 3.7313,-2.01569 1.2589,-4.35886 -4.6008,-4.35886 -3.557,0 -4.7394,-0.39983 -6.3694,-2.15102 -1.1006,-1.18254 -2.7632,-2.14843 -3.6948,-2.14843 -1.9575,0 -9.452,-4.21965 -8.7512,-4.92695 0.1414,-0.1435 -0.055,-0.6377 -0.4174,-1.26272 1.6272,-1.36503 4.1898,-2.68499 6.1963,-3.21751 -0.9799,0.92016 -1.855,2.34082 -1.855,3.44733 0,1.04935 0.5885,1.6578 1.6006,1.6578 0.8799,0 2.0758,0.58163 2.6592,1.29114 0.5834,0.70972 1.9824,1.29112 3.1071,1.29112 2.3478,0 15.2052,6.26508 17.8154,8.68155 0.4276,0.39581 1.1078,0.74046 1.7278,1.10004 a 95.812991,97.227227 0 0 0 2.0994,-7.90171 c -4.7287,-2.68289 -5.2334,-4.1913 -2.1681,-6.88171 2.7484,-2.41188 3.0405,-8.20919 0.4835,-9.59051 -0.9055,-0.48915 -1.9102,-1.76011 -2.2317,-2.82499 -0.3215,-1.06474 -1.2099,-2.67108 -1.9747,-3.57126 -1.3319,-1.567515 -1.2791,-1.615305 1.2622,-1.120715 2.251,0.438285 2.8018,0.19133 3.6237,-1.6294 1.4706,-3.25801 1.1619,-6.6894 -0.7889,-8.802909 -1.136,-1.23082 -1.5649,-2.50426 -1.2189,-3.60483 0.3182,-1.0119 0.8488,-1.58036 1.3003,-1.65523 v 0.002 c 0.4515,-0.0755 0.822,0.34238 0.822,1.30145 0,0.92385 0.5001,1.18764 1.5879,0.83924 0.2703,-0.0866 0.5383,-0.10423 0.8092,-0.0671 a 95.812991,97.227227 0 0 0 -4.6771,-18.11652 c -0.2281,0.18867 -0.4596,0.45744 -0.7456,0.85214 -1.4291,1.97276 -3.8183,1.23569 -3.2394,-0.99933 0.525,-2.02606 -1.9274,-4.32252 -3.2215,-3.01608 -0.6252,0.63094 -0.6042,1.456 0.074,2.73462 1.2478,2.35341 0.43,3.786 -1.5498,2.71653 -0.8943,-0.48264 -1.9758,-0.49226 -2.7177,-0.0233 -0.6777,0.42936 -1.8683,0.58063 -2.649,0.33569 -1.7718,-0.55591 -2.9354,1.16521 -1.6592,2.45315 0.5216,0.52646 0.9467,1.82423 0.9467,2.88438 0,1.06002 0.3838,2.166 0.8524,2.45831 0.4687,0.29244 0.8525,1.2421 0.8525,2.1097 0,1.8696 2.4659,3.0557 3.7203,1.78951 0.4841,-0.48855 1.2998,-0.8883 1.8119,-0.8883 1.0198,0 3.3411,7.67364 2.5599,8.46206 -0.2659,0.26805 -1.7578,0.400339 -3.3157,0.29438 -1.6961,-0.11539 -3.2642,0.331839 -3.9087,1.115539 -0.5919,0.72003 -1.6039,1.3092 -2.2495,1.3092 -0.6456,0 -1.1756,0.57886 -1.1756,1.28854 0,1.84252 -2.0181,1.59405 -3.8756,-0.4777 -1.0853,-1.21011 -2.2048,-1.61201 -3.5422,-1.27307 -1.4605,0.37001 -1.9543,0.12587 -1.9543,-0.9606 0,-3.174239 -4.9511,-6.090169 -6.3796,-3.757179 -0.541,0.8836 2.6356,5.977839 4.4634,7.158029 1.0512,0.6789 1.5137,3.18133 0.5878,3.18133 -0.2624,0 -2.2755,-1.39242 -4.4735,-3.09613 -2.0067,-1.55523 -3.1348,-2.28832 -4.3795,-2.60033 -0.82,-1.38635 -1.6622,-2.802929 -2.1604,-3.829479 -1.4878,-3.06519 -0.259,-4.47467 4.6262,-5.30396 1.8727,-0.31791 3.4275,-0.76182 3.4557,-0.98901 0.028,-0.2273 -1.356,-2.58473 -3.0739,-5.23682 -1.4097,-2.17626 -2.4595,-4.07922 -3.13,-5.40208 0.1137,-0.4051 0.1286,-0.97597 -0.059,-1.91862 -0.4608,-2.32546 -0.2996,-2.58226 1.6515,-2.58226 1.1907,0 2.9493,0.42311 3.9061,0.93994 2.424,1.30942 3.55,-0.13847 1.9263,-2.47896 -0.6855,-0.98806 -1.7242,-1.60092 -2.8602,-1.79467 0.8251,-0.37991 1.5571,-0.75581 2.5879,-1.14653 5.5793,-2.11559 7.0583,-2.30982 12.8075,-1.67072 4.8714,0.54155 7.0156,1.16651 8.5604,2.49188 1.9839,1.70233 3.5969,2.1745 5.7077,1.65781 a 95.812991,97.227227 0 0 0 -1.7176,-3.98184 c -0.1059,0.12745 -0.3111,0.24359 -0.3894,0.37185 -0.7083,1.16094 -1.6365,1.82685 -2.0637,1.47963 -1.1636,-0.94605 -0.6914,-2.75957 1.0051,-3.85273 0.133,-0.0858 0.2257,-0.21244 0.3512,-0.30729 a 95.812991,97.227227 0 0 0 -4.5652,-8.3097 c -3.0452,-1.16538 -5.047,-3.71195 -6.7536,-8.59117 -0.2462,-0.70387 -0.5673,-1.41545 -0.8652,-2.1407 a 95.812991,97.227227 0 0 0 -8.4153,-9.01724 c -0.051,0.82804 -0.5738,1.54675 -1.4123,1.4409 -0.7046,-0.0887 -1.1762,-0.91869 -1.0586,-1.86697 0.083,-0.66673 0.3025,-1.07061 0.57,-1.31954 a 95.812991,97.227227 0 0 0 -14.1561,-10.52169 c -1.7865,1.18664 -1.7831,1.27561 -0.3333,2.72945 1.2968,1.30051 1.325,1.73807 0.2061,3.12711 -1.0157,1.26068 -1.1126,1.91694 -0.4402,2.97993 1.0277,1.6248 0.7974,1.86626 -2.1223,2.2259 -1.524,0.18758 -2.7826,-0.3031 -3.9621,-1.54161 -1.8753,-1.96918 -1.9545,-1.71502 3.1401,-10.02949 0.208,-0.33947 0.2788,-0.84417 0.4072,-1.27563 a 95.812991,97.227227 0 0 0 -2.6109,-1.39442 c -0.1279,0.17223 -0.2449,0.35468 -0.4656,0.45706 -0.6906,0.32013 -1.4074,1.81036 -1.593,3.30787 -0.4386,3.53762 -2.31,3.91571 -2.6185,0.52936 -0.1623,-1.78035 0.3034,-3.26493 1.453,-4.62998 0.2893,-0.34352 0.5782,-0.5882 0.8703,-0.86506 a 95.812991,97.227227 0 0 0 -15.6041,-5.8772199 c 0.3764,2.71161 1.565,6.7779399 2.616,8.4672199 1.879,3.02049 1.869,6.02026 -0.02,5.78168 -1.5055,-0.19009 -1.7657,1.14565 -0.9619,4.93469 0.4994,2.35418 0.2599,3.20681 -1.5269,5.44599 l -2.1171,2.65198 1.5726,1.84114 c 1.0811,1.26738 2.7413,1.96503 5.3209,2.23366 5.0593,0.52601 8.1322,-0.75468 8.4942,-3.54028 0.6957,-5.35408 5.1652,-5.17523 5.4915,0.21949 0.1472,2.43335 0.5726,3.0779 2.1681,3.27947 2.5362,0.3203 3.1032,2.60161 1.1807,4.74619 -2.3293,2.59838 -2.0771,4.05328 1.453,8.41558 3.1304,3.86795 5.7334,5.36181 6.1887,3.55318 0.1165,-0.46189 0.4509,-1.8815 0.7431,-3.15551 0.9374,-4.08775 2.6268,-7.77793 3.4913,-7.62283 0.4961,0.0887 0.438,3.38313 -0.1399,8.04632 -0.7931,6.39721 -1.2204,7.88449 -2.2597,7.84748 -0.7054,-0.0251 -1.7193,-0.0528 -2.2521,-0.0646 -0.5093,-0.0149 -2.0364,1.13736 -3.4582,2.5616 -0.7563,0.11991 -1.3685,0.70518 -1.6821,1.70687 l -1.1909,1.22399 1.2622,1.74819 c 0.1748,0.57084 0.4577,1.06003 0.827,1.50287 0.7269,1.40071 1.1416,3.0537 1.0128,5.03282 -0.054,0.8355 0.046,1.31726 0.053,2.1252 -0.017,-0.0149 -0.022,-0.0152 -0.038,-0.0284 -1.6807,-1.15267 -4.4358,-3.88287 -6.1226,-6.0683 -0.5345,-0.69254 -0.8909,-1.12338 -1.2698,-1.58809 0.1599,-0.89204 0.7666,-1.94955 2.1605,-3.87597 2.1872,-3.02285 2.7,-4.42286 2.5014,-6.79909 -0.2311,-2.76443 -0.4766,-3.00811 -3.2368,-3.19683 -2.5782,-0.17626 -2.9472,-0.46029 -2.6923,-2.07355 0.233,-1.47546 -0.1542,-1.89982 -1.8347,-2.01158 -1.6042,-0.10662 -2.3593,-0.8348 -3.0664,-2.95927 -0.8507,-2.55574 -1.4816,-2.98693 -6.7307,-4.59384 -8.9975,-2.75407 -9.5355,-2.75976 -9.8684,-0.0749 -0.1857,1.49841 0.4472,3.07423 1.7915,4.46473 1.9193,1.98535 1.9684,2.30347 0.654,4.17809 -1.3118,1.87108 -1.2435,2.32341 0.8601,5.82299 1.2545,2.0867 3.3856,4.79781 4.7357,6.02699 3.5496,3.23213 3.7021,3.98909 1.1858,5.81783 -1.6056,1.16688 -2.5866,2.95996 -3.4073,6.22066 -0.036,0.14205 -0.045,0.25586 -0.079,0.39766 -1.9059,-0.50662 -3.3839,-0.52391 -6.0997,0.15494 -1.8293,0.45734 -2.3436,0.2798 -2.3436,-0.80567 0,-0.76459 0.3562,-1.38925 0.7888,-1.38925 1.4201,0 6.0284,-4.4243 6.0284,-5.78684 0,-1.12381 -0.8565,-1.24454 -5.4762,-0.76693 -3.4661,0.35849 -5.6803,0.24161 -6.0258,-0.32278 -0.3003,-0.49049 -0.9413,-0.64426 -1.4276,-0.34086 -0.5855,0.36528 -0.5369,0.76846 0.1476,1.19558 0.6873,0.42879 0.7371,0.83038 0.1476,1.19817 -0.4878,0.30431 -2.15871,-0.75103 -3.71271,-2.34727 -3.4567,-3.55065 -6.3565,-5.20311 -7.0743,-4.03091 -0.6157,1.00569 0.828,4.02798 3.158,6.61317 1.6705,1.85363 1.6686,1.86426 -0.076,2.80691 -0.9708,0.52438 -1.5484,1.47904 -1.2978,2.13811 0.2488,0.65462 0.083,1.41881 -0.3665,1.69913 -1.1479,0.71604 -3.557501,-3.27783 -3.557501,-5.8953 0,-1.57995 -0.453,-2.18201 -1.6438,-2.18201 -1.0358,0 -2.6648,-1.58873 -4.4049,-4.29945 -3.8636,-6.01847 -4.9394,-5.86653 -10.675,1.50545 -2.779,3.57179 -4.207,3.53257 -5.41,-0.14719 -0.984,-3.00939 -4.7246,-5.23691 -7.1913,-4.28138 -0.4496,0.17424 -1.5955,-0.0508 -2.8272,-0.41574 0.061,0 0.1365,0.0157 0.1959,0.013 2.816,-0.32784 2.8138,-2.7157 0,-3.62549 -3.6378,-1.17516 -3.7045,-3.00978 -0.2112,-5.68614 1.6884,-1.29372 3.7294,-3.90493 4.5372,-5.80233 1.4518,-3.40989 1.478,-3.42755 2.2903,-1.39958 1.0606,2.64794 3.2747,2.73724 5.1733,0.20658 2.0094,-2.67831 1.6463,-4.62483 -0.799,-4.28397 -1.0719,0.14937 -2.761,-0.17122 -3.7534,-0.7127 -1.5665,-0.85473 -1.9643,-0.79217 -3.0231,0.47772 -1.4901,1.78687 -2.7385,0.64776 -2.275,-2.07614 0.2538,-1.49187 0.8043,-1.83316 2.7559,-1.71462 1.8868,0.1154 3.1915,-0.61847 5.7663,-3.23815 3.5557,-3.61752 8.5568,-5.45101 10.6037,-3.8863 1.4107,1.07838 7.324,0.39993 7.8962,-0.90637 0.6944,-1.58512 2.9625,-1.3648 3.669501,0.35635 0.371,0.90343 1.2001,1.56917 1.8423,1.47964 1.3691,-0.19083 1.2949,-2.04739 -0.1246,-3.13228 -0.6772,-0.51772 -0.5424,-1.52234 0.4249,-3.19167 2.0907,-3.60777 1.5572,-5.22272 -1.5828,-4.78493 -2.408401,0.33583 -2.605601,0.17579 -2.376701,-1.94185 0.1369,-1.2687 0.3186,-3.41511 0.3995,-4.77201 0.081,-1.3569099 1.116001,-3.6169699 2.300401,-5.0199099 1.0882,-1.2889 1.5166,-2.06212 1.5192,-2.76302 a 95.812991,97.227227 0 0 0 -3.221601,-0.0801 z m 14.062011,1.05098 c -0.3204,0.51719 -0.5791,1.00736 -0.9644,1.53386 -1.4253,1.94759 -2.73781,4.8808999 -2.91881,6.5201999 -0.1809,1.63945 -0.4704,3.87995 -0.6438,4.97859 -0.2578,1.63368 0.01,1.95199 1.47081,1.74819 0.9827,-0.13616 1.7304,-0.66043 1.6617,-1.16202 -0.068,-0.50173 1.1472,-2.941 2.7,-5.42274 1.5528,-2.48189 2.7101,-5.3375199 2.5727,-6.3420199 -0.05,-0.3623 0.024,-0.74288 0.173,-1.13878 a 95.812991,97.227227 0 0 0 -4.0512,-0.71528 z m -4.44301,0.14977 c -0.6258,-0.0385 -1.6735,1.51368 -1.6413,2.96443 0.045,2.02989 0.081,2.03657 1.112,0.26081 0.5856,-1.00866 1.0166,-2.17433 0.9593,-2.59259 -0.059,-0.42936 -0.2213,-0.61948 -0.43,-0.63265 z m -32.055601,2.82499 v 0.003 c 0.9214,-0.10214 2.1604,0.29911 3.2802,1.24723 0.9685,0.82009 2.3084,1.41278 2.9773,1.31953 0.6688,-0.0933 2.365,0.3175899 3.7712,0.9115399 2.4369,1.02922 2.6564,0.9787 4.6466,-1.1052099 2.7475,-2.87706 3.932,-1.88749 3.873,3.2407299 -0.054,4.72402 -1.3106,5.75931 -5.4023,4.44665 -1.86,-0.59705 -3.3171,-0.60173 -4.0079,-0.0155 -1.843,1.57197 -2.5426,1.24765 -2.2928,-1.06389 0.2001,-1.85198 -0.1659,-2.31152 -2.2215,-2.78884 -3.3554,-0.77895 -5.7445,-2.5446 -6.003,-4.4337299 -0.1445,-1.05602 0.4579,-1.65927 1.3792,-1.7611 z m 51.354611,1.88504 c 1.1606,-0.21433 3.5011,0.43849 4.5906,1.5054599 1.4594,1.42943 3.1901,7.19515 2.8323,9.43299 -0.2011,1.25626 -0.3266,1.18942 -0.7405,-0.38476 -0.2744,-1.04343 -2.0627,-3.55922 -3.9749,-5.59059 -1.9122,-2.03136 -3.4357,-4.0287 -3.3844,-4.4414799 0.035,-0.28121 0.29,-0.45028 0.6769,-0.52162 z M 67.594899,19.063916 v 0 c 0.4973,-0.0696 1.475,1.21859 2.1758,2.86114 1.0746,2.51891 1.0608,3.35323 -0.089,5.33753 -0.7796,1.34536 -1.1843,3.67121 -0.9466,5.43307 0.2287,1.69435 -0.1811,4.33769 -0.911,5.87205 -0.73,1.53436 -1.2387,3.46085 -1.1299,4.28138 0.1376,1.03383 -0.4684,1.5842 -1.9772,1.79467 -1.9494,0.27157 -2.0885,0.54961 -1.3258,2.63649 0.7138,1.95276 0.5186,2.54197 -1.196,3.6384 -2.6799,1.71404 -2.4574,1.81512 -3.499,-1.60617 -0.9628,-3.16301 -0.1174,-6.4193 1.7355,-6.67771 0.7166,-0.10059 0.814,-0.80918 0.2927,-2.11487 -0.4319,-1.08147 -0.408,-2.27926 0.051,-2.66231 1.0474,-0.87411 0.6282,-4.27282 -0.6464,-5.24715 -1.3789,-1.05408 0.7359,-6.62003 3.929,-10.3471 1.4478,-1.68992 3.0374,-3.12986 3.5346,-3.19942 z m 67.363311,3.64098 c 1.9935,-0.21322 4.7686,2.40391 4.4888,4.66098 -0.3456,2.78796 -2.0165,2.45498 -4.4837,-0.89346 -1.5849,-2.15082 -1.7527,-2.88285 -0.8016,-3.4938 0.2415,-0.15539 0.5116,-0.24328 0.7965,-0.27372 z m -67.778011,0.7721 c -0.7332,0.14994 -1.3061,0.82518 -1.1706,1.81532 0.123,0.89884 0.077,2.36944 -0.1018,3.26914 -0.244,1.23052 0.1764,0.99795 1.6973,-0.94252 1.112,-1.41863 1.7057,-2.96641 1.3182,-3.43957 -0.2889,-0.3527 -0.631,-0.57222 -0.9772,-0.67139 -0.2596,-0.0745 -0.5215,-0.081 -0.7659,-0.031 z m 85.310911,7.30262 c 0.9577,0.0202 1.8816,0.88881 1.7482,1.9651 -0.176,1.42084 -2.3847,1.34992 -3.0409,-0.0981 -0.2492,-0.54985 -0.086,-1.26155 0.3614,-1.58034 0.2884,-0.20591 0.6121,-0.2933 0.9313,-0.28663 z m 7.1863,0.41316 c 0.8625,0.10962 0.6731,2.75514 -0.3334,4.65582 -1.2072,2.27957 -1.8714,1.22089 -1.1349,-1.80759 0.3936,-1.61887 1.0541,-2.90063 1.4683,-2.84823 z m -68.513511,1.05873 c -0.7898,0.28001 -0.8301,1.4496 -0.2392,3.59967 1.1491,4.18143 1.4373,4.42099 4.0461,3.35951 2.6764,-1.08873 2.3647,-4.53291 -0.5471,-6.0399 -0.9011,-0.46637 -1.6375,-0.77155 -2.2164,-0.90637 -0.4343,-0.10058 -0.7801,-0.10458 -1.0434,-0.013 z m 77.269811,3.51445 c 0.9941,0.12571 2.4655,3.7408 1.7507,4.30204 -1.0653,0.83608 -2.9874,-1.01085 -2.7813,-2.67263 0.118,-0.95359 0.5819,-1.68623 1.0306,-1.62941 z m -14.4514,2.50737 c 1.662,0.20995 2.0605,0.70273 1.8627,2.29821 -0.1383,1.11597 -0.8537,2.41378 -1.5879,2.88697 -1.0659,0.68702 -1.4721,0.49539 -2.0255,-0.95802 -0.3812,-1.00111 -0.6204,-2.42052 -0.5293,-3.15552 0.1063,-0.85649 0.9254,-1.24273 2.28,-1.07164 z m -20.299,7.23549 c 0.6975,-0.23006 1.5856,0.0839 2.3309,1.05098 1.2241,1.58898 0.9555,2.99934 -0.7812,4.1187 -1.7231,1.11048 -2.7091,0.0445 -2.7406,-2.95669 -0.012,-1.20919 0.4934,-1.98298 1.1909,-2.21299 z m 46.9827,6.54344 c 0.7251,0.0918 1.0281,0.52802 0.6769,0.96835 -0.5804,0.72715 -2.155,0.14217 -2.0434,-0.75919 0.026,-0.20995 0.6415,-0.30055 1.3665,-0.20916 z m -6.2625,1.27305 c 0.252,-0.0339 0.4993,0.0594 0.7023,0.32279 0.7881,1.02301 0.2197,3.7974 -0.7532,3.67455 -0.4796,-0.0606 -1.0278,-0.73967 -1.2163,-1.51062 -0.2813,-1.15074 0.5113,-2.38609 1.2672,-2.48672 z m -29.0401,2.93603 c 1.0645,0.13477 0.6316,3.30095 -0.5242,3.83465 -0.5009,0.23131 -1.0268,1.33512 -1.1654,2.45315 -0.3854,3.10826 -1.7867,3.13684 -4.723,0.0981 -3.442,-3.56264 -3.3467,-5.43678 0.2163,-4.23749 2.0387,0.6863 2.8994,0.53831 3.9977,-0.68688 0.7699,-0.85888 1.76,-1.51662 2.1986,-1.46156 z m -103.169611,2.81724 c -0.9074,0.12571 -0.8991,1.30053 0.013,1.99867 0.8871,0.67815 2.0796,-0.5227 1.3742,-1.38409 -0.3268,-0.39887 -0.95,-0.6757 -1.3869,-0.61458 z m 123.657011,3.58159 c -0.9024,0.0202 -2.1452,0.72126 -2.1452,1.43316 0,0.98321 2.3104,1.00311 2.9086,0.0258 0.2493,-0.40701 0.2344,-0.95917 -0.033,-1.22915 -0.1661,-0.1677 -0.4296,-0.23686 -0.7303,-0.22983 z m 3.4913,6.88172 c -0.4685,-0.14658 -1.0564,-0.12469 -1.7253,0.13428 -1.6011,0.6203 -1.7548,2.17257 -0.3537,3.58676 0.7319,0.73912 1.3087,0.75771 2.1324,0.0671 1.6944,-1.41937 1.3523,-3.34933 -0.053,-3.78817 z m -92.016211,1.62683 c 0.5266,-0.0159 0.9891,0.025 1.4301,0.12911 0.8819,0.20769 1.6783,0.67346 2.7228,1.47964 1.406,1.08518 2.5765,2.35972 2.6032,2.83273 0.027,0.47304 0.504,1.9415 1.0586,3.26139 0.8055,1.91697 1.3089,2.23977 2.5066,1.60617 2.1666,-1.14616 5.3336,0.30894 5.3336,2.45056 0,1.54754 -0.4771,1.76173 -3.6211,1.6294 -1.9917,-0.0842 -4.7779,0.12681 -6.1912,0.46481 -1.9337,0.4628 -3.1054,0.18606 -4.7382,-1.11037 -1.4797,-1.17487 -2.5619,-1.47092 -3.3972,-0.93736 -0.6738,0.43028 -2.3259,0.78418 -3.672,0.79276 -1.8066,0.0149 -2.2415,-0.26771 -1.6668,-1.06131 1.826,-2.52097 2.9882,-7.59357 2.0129,-8.77968 -1.1742,-1.42811 -0.5842,-1.82345 3.8068,-2.55385 0.6964,-0.11591 1.2853,-0.1881 1.8119,-0.204 z m -11.5224,0.22465 c 1.1235,0.0149 0.8745,0.84119 -0.794,2.36535 -2.0097,1.83585 -3.7596,1.82486 -3.4073,-0.0207 0.1516,-0.79389 1.3322,-1.72834 2.621,-2.07614 0.6779,-0.18305 1.2058,-0.27195 1.5803,-0.26855 z m 75.513911,2.77076 c -0.061,1.26441 -0.9544,2.74682 -2.7356,4.32529 -1.4926,1.32289 -2.9041,2.29699 -3.5473,2.52803 0.2671,-0.98098 0.5979,-2.07836 0.6642,-2.61325 0.1128,-0.90949 2.0608,-2.45184 4.7611,-3.7701 0.4678,-0.2283 0.4307,-0.25359 0.8576,-0.46997 z m -89.950011,2.93345 c 0.2727,-0.0226 0.5954,0.0305 0.9899,0.13686 1.0199,0.27604 2.3926,0.50514 3.0511,0.51387 0.9139,0.0149 0.8303,0.42275 -0.3512,1.74044 -0.8512,0.94944 -1.9743,2.58924 -2.4963,3.64615 -1.0575,2.14104 -3.8909,3.13026 -3.8832,1.35568 0,-0.62593 0.4129,-2.62936 0.9135,-4.44923 0.581,-2.11174 0.9583,-2.87435 1.7762,-2.94377 z m 99.011611,3.96118 c -0.5116,0.5633 -1.4521,1.33153 -2.3462,2.07614 0.1419,-0.26403 0.3359,-0.54585 0.3359,-0.75145 0,-0.65194 0.708,-1.18783 1.5726,-1.18783 0.123,0 0.2971,-0.10895 0.4377,-0.13686 z m -110.653611,0.14719 c 2.4465,0 3.5013,1.33527 1.6286,2.06064 -1.7391,0.67328 -3.3354,0.66283 -4.0206,-0.0284 -0.9573,-0.96631 0.2966,-2.03224 2.392,-2.03224 z m 19.1718,0 c 0.4686,0 0.8524,0.38688 0.8524,0.8599 0,0.47303 -0.3838,0.85989 -0.8524,0.85989 -0.4687,0 -0.8525,-0.38686 -0.8525,-0.85989 0,-0.47302 0.3838,-0.8599 0.8525,-0.8599 z m 83.079211,0.29954 c 0.4687,0.15011 0.8525,0.81854 0.8525,1.48222 0,1.52177 -2.6161,2.09111 -3.4379,0.74885 -0.6625,-1.08192 1.1874,-2.67848 2.5854,-2.23107 z m -46.196411,0.0284 c 0.7529,-0.75998 5.817501,2.26212 5.275201,3.14778 -0.2773,0.4529 -0.5772,0.7719 -0.6667,0.70754 -0.09,-0.0652 -1.049401,-0.28696 -2.132501,-0.49579 -1.8972,-0.36573 -3.409,-2.41775 -2.476,-3.35953 z m 90.932211,0.53195 c 0.4687,0 0.8525,0.77374 0.8525,1.71978 0,0.94621 -0.3838,1.71979 -0.8525,1.71979 -0.4686,0 -0.8525,-0.77358 -0.8525,-1.71979 0,-0.94604 0.3839,-1.71978 0.8525,-1.71978 z m -65.5336,1.71978 c 0.2319,0 0.5965,0.21471 1.0026,0.5242 -0.2919,0.59277 -0.5509,0.92226 -0.8982,1.81533 -0.055,0.14055 -0.077,0.26133 -0.1298,0.40283 -1.0577,-2.36956 -1.0858,-2.74236 0.025,-2.74236 z m 54.426,3.09097 c -0.4805,0.19386 -0.8219,0.78498 -0.8219,1.69137 0,1.397589 0.161,1.451419 2.0815,0.707549 1.0545,-0.408499 1.1467,-0.800729 0.3996,-1.709459 -0.5595,-0.68038 -1.1787,-0.88351 -1.6592,-0.68946 z m -75.06601,1.54936 c 3.406,-0.23484 7.9439,0.44322 9.3594,1.650049 0.6578,0.56094 2.77621,1.42305 4.70771,1.91604 3.1055,0.79258 3.5427,1.21648 3.7789,3.65647 0.2481,2.56362 0.082,2.75786 -2.3437,2.75786 -1.4357,0 -2.6083,0.34124 -2.6083,0.759185 0,0.88508 -3.36071,1.93437 -3.50661,1.09489 -0.054,-0.31036 -0.021,-1.278465 0.069,-2.153625 0.091,-0.8753 -0.3116,-2.75061 -0.8932,-4.16775 l -1.0561,-2.57711 -6.8936,0.39251 c -3.790901,0.21622 -10.885101,1.04646 -15.766901,1.84373 -4.8818,0.79719 -10.8272,1.32714 -13.2095,1.17751 -4.1056,-0.25781 -4.2146,-0.32623 -2.0739,-1.27822 1.2421,-0.55232 4.31,-1.2023 6.8172,-1.44606 11.8913,-1.15561 18.4088,-2.1221 20.7494,-3.072889 0.7262,-0.29482 1.7351,-0.47443 2.870501,-0.55259 z m -72.394101,1.378909 c 2.2386,0 2.9182,1.2989 1.7915,3.42408 -1.0827,2.04187 -3.2624,2.28717 -3.9621,0.44673 -0.7538,-1.98266 0.3046,-3.87081 2.1706,-3.87081 z m 13.7108,2.58226 c 0.4687,0 0.8525,0.38671 0.8525,0.85989 0,0.47302 -0.3838,0.85989 -0.8525,0.85989 -0.4686,0 -0.8524,-0.38687 -0.8524,-0.85989 0,-0.47318 0.3838,-0.85989 0.8524,-0.85989 z m -4.4761,1.10779 v 0.002 c 0.4175,-0.0415 0.7597,0.0129 0.939,0.19108 0.2044,0.20642 -0.1146,0.96774 -0.7074,1.68881 -1.3812,1.67986 -4.3968,1.76251 -3.7662,0.10321 0.3401,-0.89471 2.2823,-1.8632 3.5346,-1.98575 z m 96.525511,0.55002 c 0.6769,1.21155 1.475,2.22211 2.3233,2.50479 0.6906,0.23006 2.0309,-0.18628 2.9798,-0.92444 1.662,-1.29298 1.697,-1.28671 0.9085,0.21691 -0.3334,0.63552 -0.3166,1.18243 -0.14,1.67588 -0.4421,0.53755 -0.8173,0.88829 -1.0077,0.88829 -1.2451,0 -1.8554,3.478005 -0.8296,4.725545 0.473,0.5753 0.6311,1.4007 0.6591,2.22849 -0.085,0 -0.1247,-0.0151 -0.2137,0 -3.4191,0.38464 -3.5775,0.74475 -0.4988,1.1336 0.2544,0.0325 0.4279,-0.0151 0.6642,0 -0.2009,1.00153 -0.685,1.81534 -1.42,1.81534 -0.6818,0 -1.4715,-0.96835 -1.7533,-2.15103 -0.4548,-1.90839 -0.8899,-2.11701 -3.873,-1.86955 -1.8483,0.15331 -3.8219,0.88018 -4.3871,1.61649 -0.8433,1.09912 -1.0097,7.74161 -0.3359,13.44066 0.046,0.39237 1.2838,0.44555 2.7483,0.12137 1.6618,-0.36854 2.8858,-0.22453 3.2572,0.38217 1.097,1.7916 -0.1062,6.11384 -1.9721,7.08313 -2.0668,1.07336 -5.6518,4.22182 -5.6543,4.96568 -0.001,0.27202 2.4926,0.36515 5.5398,0.20657 5.8413,-0.30413 6.1251,-0.0848 4.7102,3.67199 -1.005,2.66836 -2.2132,2.84738 -2.8424,0.41832 -0.4267,-1.64685 -0.8631,-1.74213 -5.4279,-1.18783 -2.7287,0.33137 -5.534,1.0982 -6.237,1.70428 -0.703,0.60593 -2.8127,1.52515 -4.6874,2.04256 -5.5425,1.52977 -7.58711,1.13666 -6.66711,-1.28337 0.2522,-0.66334 -0.027,-1.20592 -0.6183,-1.20592 -0.7437,0 -0.6393,-0.4849 0.3359,-1.5726 0.7756,-0.86507 1.40971,-2.02811 1.40971,-2.58225 0,-1.27683 1.4179,-1.31058 2.1885,-0.0517 1.0574,1.72695 6.3628,0.11516 9.3874,-2.85081 3.3405,-3.27566 4.1475,-7.87886 1.2978,-7.40333 -2.5939,0.43291 -5.2039,-2.59717 -5.2039,-6.03991 0,-1.66701 -0.4336,-4.24304 -0.9645,-5.72488 -0.841,-2.34748 -0.7053,-3.10161 1.0637,-5.85656 1.2828,-1.99763 2.6971,-3.16485 3.8425,-3.17359 0.9971,0 2.3145,-0.61669 2.9264,-1.36084 0.6118,-0.744175 2.672,-2.151885 4.5779,-3.127115 1.1578,-0.59248 2.5737,-1.5158 3.9138,-2.46348 z m -7.8733,0.19109 v 0.002 c 1.5037,0.19536 1.0607,1.14786 -1.1299,3.53253 -2.4655,2.683925 -2.1708,2.554885 -3.6618,1.600995 -0.6268,-0.401095 -1.0107,-1.654405 -0.8525,-2.783685 0.2365,-1.68756 0.857,-2.09938 3.4837,-2.31885 0.9411,-0.0784 1.6592,-0.099 2.1605,-0.0336 z m -42.201311,2.45056 c 4.4529,0 7.3244,4.080265 4.7204,6.708705 -1.6679,1.68354 -2.6084,1.1802 -2.0434,-1.09229 0.4579,-1.84116 0.1687,-2.21558 -2.191,-2.83274 -3.8339,-1.002735 -4.1457,-2.783675 -0.486,-2.783675 z m 16.342001,0 c 2.6995,0 3.7681,1.61938 3.2649,4.945035 -0.6199,4.09665 -3.595701,3.56512 -5.295501,-0.94769 -1.1085,-2.942935 -0.5723,-3.997345 2.030601,-3.997345 z m -53.738901,0.2479 c 1.4369,0.14365 2.4139,2.235305 1.6287,4.614505 -0.9421,2.8541 -4.1746,4.13074 -3.4583,1.36601 0.2401,-0.92682 0.1087,-2.27665 -0.2926,-3.00058 -0.4806,-0.86685 -0.2825,-1.689115 0.5802,-2.411835 0.5331,-0.44666 1.0631,-0.61578 1.542,-0.5681 z m 122.122611,0 c 1.6546,-0.64087 3.672,1.87716 3.672,4.586095 0,2.1989 -3.0321,3.62905 -4.5169,2.13036 -0.5152,-0.51993 -1.2563,-0.94511 -1.6464,-0.9451 -0.39,0 -1.0181,0.8398 -1.3945,1.86696 -0.1284,0.35044 -0.2416,0.43101 -0.3613,0.63008 -0.2638,-0.2778 -0.5024,-0.5185 -0.8347,-0.91929 0.4778,-2.19992 3.3894,-6.693605 5.0818,-7.349105 z m 26.8465,1.00966 c -0.2108,0.28403 -0.3049,0.45501 -0.5369,0.76176 -3.0306,4.007675 -3.0765,4.178085 -1.8042,6.752615 0.8401,1.69981 1.1262,3.76661 0.8042,5.79974 -0.2853,1.80022 -0.2138,2.67483 0.5165,3.6126 a 95.812991,97.227227 0 0 0 1.0841,-14.34445 95.812991,97.227227 0 0 0 -0.064,-2.582265 z m -54.2427,0.77984 v 0.006 c 0.5391,0.26448 1.1853,0.480535 2.0357,0.593935 0.022,0 0.028,-0.0155 0.051,-0.0155 0.5256,0.66615 0.8104,1.71118 0.654,2.89729 -0.2689,2.03937 -1.6454,2.58356 -3.0205,1.19559 -1.4434,-1.45712 -1.2687,-4.00582 0.2799,-4.676475 z m 7.9369,0.16268 c 0.3581,0.214365 0.7121,0.396815 1.1298,0.485465 0.2421,0.26361 0.3717,0.28736 0.7838,0.82891 0.8688,1.14173 1.4609,2.46289 1.3182,2.93604 -0.1429,0.47302 -1.0421,0.97741 -2.0002,1.12069 -2.1726,0.32487 -3.1325,-1.91875 -1.8525,-4.33303 0.2617,-0.49361 0.4503,-0.8214 0.6209,-1.038075 z m 26.1773,0.384775 c 0.7104,-0.0728 1.4995,0.47981 1.8195,1.71461 0.2451,0.94618 0.7845,1.72237 1.1985,1.72237 1.6049,0 0.6337,1.69149 -1.8042,3.14518 -1.406,0.83832 -2.5532,1.73041 -2.5472,1.98317 0,0.25281 1.3479,1.33534 2.9824,2.40409 3.1745,2.07564 3.8201,3.99705 1.626,4.8469 -3.2807,1.27063 -5.4685,0.43125 -5.4685,-2.0968 0,-0.68483 -0.4074,-1.51759 -0.9085,-2.09937 0.8653,-0.64427 1.5163,-1.30358 1.3207,-1.73528 -0.1637,-0.36069 -1.1529,-0.7233 -2.2928,-0.98126 0.029,-1.4099 0.5422,-2.98506 1.5472,-3.82691 0.6511,-0.54539 1.1833,-1.91204 1.1833,-3.03672 0,-1.26784 0.6332,-1.96702 1.3436,-2.03998 z M 78.631299,99.4935 c 0.3058,0.0384 0.6131,0.18459 0.883,0.45705 0.5911,0.59659 0.2946,1.18938 -0.9263,1.84891 -1.4492,0.78296 -1.7965,0.72254 -1.7965,-0.30214 0,-1.27784 0.9224,-2.12104 1.8398,-2.00382 z m -54.398,0.4364 c 1.0465,-0.0431 1.8152,0.15144 2.0001,0.67914 0.1759,0.50188 -1.7033,1.5931 -4.1733,2.42473 -2.4699,0.8315 -4.9692,1.71145 -5.555,1.95477 -0.586,0.24339 -1.0663,-0.16354 -1.0663,-0.90638 0,-1.76214 5.6552,-4.0235 8.7945,-4.15226 z m 38.2163,0.52162 c 1.2885,-0.10208 2.3819,-0.0925 3.0358,0.0748 1.2982,0.33379 3.4251,0.58785 4.728,0.56551 2.2672,-0.0384 2.3116,0.0406 1.0637,1.83858 -0.7171,1.03338 -1.3029,2.60273 -1.3029,3.48605 0,0.88326 -0.8616,2.31075 -1.9161,3.17359 -2.4456,2.00146 -1.6693,2.86938 1.2163,1.35826 3.3884,-1.77445 4.5574,-0.2987 1.5447,1.94961 -1.4115,1.05336 -3.2323,3.34467 -4.0486,5.0948 -1.8917,4.05502 -3.6095,4.36611 -6.0132,1.08455 -1.0507,-1.43461 -2.474,-2.60808 -3.163,-2.60808 -0.689,0 -1.2545,-0.42972 -1.2545,-0.95543 0,-0.62238 1.0174,-0.76496 2.9162,-0.40542 3.8106,0.72165 4.6677,-0.77591 1.4148,-2.47381 -2.0715,-1.08134 -2.9607,-1.13756 -4.7942,-0.29439 -2.0095,0.92412 -2.423,0.81206 -3.8679,-1.07163 -1.6104,-2.09957 -1.5525,-6.04874 0.1196,-8.15735 0.8279,-1.04415 6.4558,-2.3538 10.3213,-2.65973 z m 29.7602,2.02448 c 0.1445,0.0172 0.2633,0.0963 0.3512,0.24016 0.312,0.50958 0.1404,1.44415 -0.3792,2.07613 -0.6043,0.73499 -0.7391,2.89182 -0.3791,5.98309 0.4651,3.99478 0.3366,4.83399 -0.7304,4.83399 -0.7101,0 -1.7679,0.57887 -2.3513,1.28855 -1.6222,1.97292 -2.4328,1.56217 -2.9544,-1.50288 -1.1859,-6.96893 -0.9803,-8.80198 1.0205,-9.08955 1.0451,-0.1503 2.6431,-1.22689 3.5524,-2.39376 0.7684,-0.98598 1.4364,-1.48855 1.8703,-1.43573 z m -52.9933,3.67197 c 0.5135,0 0.9398,0.6777 0.9466,1.50546 0.026,2.9625 1.1451,3.71552 3.9367,2.65197 2.2538,-0.85888 2.9217,-0.72973 5.2802,1.03033 1.4854,1.10854 2.6999,2.52041 2.6999,3.13745 0,0.61704 1.1416,2.14812 2.5345,3.40083 1.393,1.25272 2.328,2.60949 2.0791,3.01607 -0.7929,1.2949 -1.7544,0.80339 -2.7534,-1.4099 -0.7728,-1.71179 -1.5947,-2.15103 -4.0283,-2.15103 -1.6811,0 -3.7435,-0.37153 -4.5855,-0.82633 -2.0538,-1.10945 -9.555,0.14453 -12.4945,2.08905 -2.3123,1.52936 -2.3158,1.54137 -0.5852,2.93087 2.7085,2.17478 3.8936,4.98803 2.3513,5.58543 -0.6944,0.26903 -1.2648,1.05925 -1.2648,1.75593 0,2.27751 -1.4025,2.21085 -3.532,-0.16784 -4.0864,-4.56419 -4.4282,-5.24345 -3.3234,-6.58734 0.8153,-0.99148 0.5856,-1.88464 -1.1374,-4.44407 -1.1861,-1.76187 -1.9595,-3.52516 -1.7177,-3.91989 0.2418,-0.39488 2.4665,-0.47699 4.9443,-0.18333 3.7716,0.44745 4.5959,0.29393 5.064,-0.93735 0.3075,-0.80883 0.3635,-1.79306 0.1221,-2.18718 -0.4833,-0.78932 3.9745,-4.28913 5.4635,-4.28913 z m 41.8475,0.85989 c 1.7952,0 2.5447,1.66676 2.5447,5.66289 0,3.55283 -1.1462,3.76042 -3.1554,0.57327 -0.8201,-1.30083 -1.8587,-2.62512 -2.308,-2.94377 -1.1468,-0.81355 1.0499,-3.29239 2.9187,-3.29239 z m 59.950511,1.96511 c 0.3655,0.12123 0.7289,1.15133 1.0256,2.39633 l -0.537,-0.12388 c -1.0654,-0.24765 -1.9851,-0.40557 -2.8551,-0.53194 1.0361,-1.0621 1.9956,-1.86345 2.3665,-1.74045 z m 23.4774,0.15493 v 0 c -0.015,0.18827 -0.014,0.33115 -0.046,0.58617 -0.2538,2.04765 -2.612,3.58653 -4.1911,2.73461 -1.2222,-0.65932 -1.2421,-1.78056 -0.514,-2.68297 0.1207,0.0488 0.1788,0.0191 0.3053,0.0775 1.3806,0.62462 2.4031,0.5091 3.8349,-0.42866 0.1935,-0.12719 0.4024,-0.18095 0.6082,-0.28662 z m -31.0529,6.42983 c 0.4701,1.07301 1.2355,2.36841 2.1782,3.80108 -1.079,-0.16291 -1.9652,-0.85503 -2.6414,-2.13036 -0.6572,-1.23955 -0.5675,-1.61908 0.3792,-1.61908 0.017,0 0.065,-0.0501 0.084,-0.0517 z m 48.9523,0.0517 c 1.2154,0 3.4684,2.5553 3.4684,3.93277 0,1.68148 -1.1595,1.542 -2.85,-0.34344 -1.5443,-1.72263 -1.8655,-3.58933 -0.6184,-3.58933 z m -85.534911,0.2169 c 0.4939,-0.14501 1.1883,-0.0973 2.2088,0.10841 1.457301,0.29422 4.546501,0.53453 6.863101,0.53453 h 4.2114 l -1.9696,2.794 c -1.0835,1.53599 -1.8673,3.24916 -1.7405,3.80626 0.3052,1.34153 -1.2534,2.27006 -1.9365,1.15427 -0.2944,-0.48071 -1.6486,-0.8728 -3.0104,-0.8728 -1.700501,0 -2.792901,-0.60503 -3.486301,-1.93411 -0.5553,-1.06446 -1.3908,-2.18739 -1.8576,-2.49447 -0.4668,-0.30699 -0.5974,-1.22505 -0.2875,-2.03998 0.217,-0.57071 0.5112,-0.91069 1.0051,-1.05615 z m 48.461211,1.37377 c 0.2532,0.0399 0.4163,0.0893 0.7253,0.12904 2.4516,0.32812 3.513,1.01567 4.4735,2.89472 0.6927,1.35512 1.2597,2.74274 1.2597,3.0858 0,0.34291 -0.884,1.03306 -1.9671,1.53127 -1.8414,0.84688 -1.9465,0.74343 -1.6082,-1.58291 0.2438,-1.67767 -0.018,-2.52037 -0.8016,-2.58743 -0.639,-0.0549 -1.6219,-0.15059 -2.1859,-0.21433 -0.073,-0.0151 -0.1978,-0.11925 -0.285,-0.15235 0.1639,-0.75348 0.2872,-1.69425 0.3893,-3.10387 z m -63.187311,1.1052 c 0.4542,0.15234 0.626,0.81823 0.626,2.03483 0,1.55507 -0.458,2.15101 -1.6541,2.15101 -2.3889,0 -3.1265,-1.79087 -1.2952,-3.14259 1.1328,-0.83606 1.8691,-1.19584 2.3233,-1.04325 z m 71.556811,1.79984 c 0.1662,-0.0969 0.4575,0.15009 0.9645,0.69463 0.6448,0.69266 1.4109,2.28203 1.6998,3.53252 0.4374,1.89301 0.1859,2.36065 -1.5039,2.78883 -0.5937,0.1503 -1.0612,0.40133 -1.4708,0.68431 -0.7736,-0.59764 -1.4171,-0.21918 -2.0841,1.24206 -1.0005,2.19136 0.011,3.38178 1.8703,2.61066 0.3729,0.1708 0.8057,0.29439 1.3691,0.29439 h 1.7685 c 0,0.0151 -0.001,0.0199 0,0.0361 l -1.8169,1.95219 c -1.019,1.09478 -1.8525,2.45013 -1.8525,3.0109 0,1.79829 -1.5978,1.09493 -3.5422,-1.55968 -1.0395,-1.41923 -2.393,-2.57967 -3.0079,-2.57967 -2.1108,0 -1.1135,-1.70135 2.2546,-3.84758 3.6974,-2.35579 5.148,-4.46061 5.148,-7.46272 0,-0.84921 0.041,-1.29644 0.2061,-1.397 z m -10.1202,2.48154 c 0.303,-4.3e-4 0.6067,-0.0189 0.9059,0.0465 0.9405,0.20573 0.7115,0.57096 -0.8016,1.2808 -1.2324,0.5781 -2.3186,0.66576 -2.5981,0.20916 -0.017,-0.0266 0.015,-0.0505 0,-0.0775 l 1.1578,-0.63007 c 0.5621,-0.30578 0.9719,-0.56114 1.3334,-0.82632 z m -84.987811,0.22467 c 0.3062,-0.0599 0.6631,-0.0615 1.0688,0 0.5409,0.0829 1.1706,0.27427 1.8856,0.57326 2.4066,1.00612 2.4608,1.13799 1.0942,2.6623 -2.3478,2.61864 -5.4355,2.01137 -5.4355,-1.06904 0,-1.26345 0.4683,-1.98693 1.3869,-2.16652 z m -15.9171,0.58358 c 0.9589,0.0932 2.1766,0.52518 3.2089,1.25498 1.4964,1.05807 1.7478,1.86603 1.3487,4.34851 -0.4007,2.49227 -0.1493,3.29473 1.3741,4.37177 1.4767,1.04404 1.6575,1.56749 0.8677,2.52803 -1.342,1.63221 -2.2638,1.49841 -6.7409,-0.97609 -2.1017,-1.16169 -4.3488,-2.1097 -4.9927,-2.1097 -1.6189,0 -0.506,-4.24887 1.6414,-6.26972 0.8993,-0.84617 1.6337,-1.91065 1.6337,-2.36536 0,-0.62929 0.7002,-0.87566 1.6591,-0.78242 z m -26.5081,0.29956 c 0.5446,0.3398 0.9899,1.09098 0.9899,1.67071 0,0.57958 -1.1489,1.74137 -2.5549,2.57968 -2.1014,1.25301 -2.5574,1.30371 -2.5574,0.28146 0,-1.9257 3.0047,-5.22912 4.1224,-4.53185 z m 74.9108,0.55259 c 0.5858,-0.0197 1.0637,0.88173 1.0637,2.00641 0,1.12482 -0.4779,2.4216 -1.0637,2.87923 -1.4973,1.16938 -3.8013,1.92149 -4.3107,1.40732 -0.6812,-0.68746 3.131,-6.25256 4.3107,-6.29296 z m 69.577111,1.43316 c 0.3208,-0.0715 0.7432,-0.0574 1.2723,0.0387 0.7055,0.12864 1.5992,0.40512 2.6847,0.82632 3.9189,1.52075 5.2691,2.67036 4.5372,3.86565 -0.2326,0.38007 -2.0479,0.62824 -4.0334,0.5526 -2.9627,-0.11238 -3.7938,-0.52986 -4.6338,-2.3266 -0.8258,-1.76609 -0.7894,-2.74199 0.173,-2.9567 z m -62.133911,2.85339 c 0.6746,0.0549 1.4332,0.37467 1.763501,0.91412 0.8774,1.43284 -0.816601,2.67447 -2.007801,1.47188 -0.5623,-0.56757 -1.0229,-1.34136 -1.0229,-1.71978 0,-0.51258 0.5927,-0.72128 1.2672,-0.66622 z m -74.1804,0.22465 c 1.6075,0.0549 3.8933,0.8372 3.8933,1.56743 0,1.01977 -4.875,0.99013 -5.5016,-0.0336 -0.2696,-0.44029 -0.119,-1.03322 0.3359,-1.31694 0.2749,-0.17155 0.7365,-0.23515 1.2724,-0.21693 z m 26.475,0.61199 c 0.703,0 1.2774,0.58161 1.2774,1.29115 0,0.70968 -0.5744,1.28853 -1.2774,1.28853 -0.703,0 -1.2774,-0.57885 -1.2774,-1.28853 0,-0.70954 0.5744,-1.29115 1.2774,-1.29115 z m 42.8985,0.66106 c 0.6323,0.32991 0.9411,1.50657 1.1349,3.63324 0.1882,2.06347 0.7516,3.09516 1.7966,3.29497 1.844,0.35271 5.221301,3.4695 5.962201,5.50279 0.2965,0.81374 1.6099,1.73608 2.9188,2.05031 2.8363,0.68081 5.36171,2.73052 5.36171,4.35369 0,0.64261 0.4345,1.87052 0.9644,2.72686 0.7923,1.28057 0.5597,1.96508 -1.31561,3.8579 -1.2541,1.26589 -2.3598,2.27659 -2.4557,2.24655 -0.096,-0.0298 -1.4542,-0.69365 -3.0154,-1.47704 -2.4268,-1.21765 -2.7824,-1.78995 -2.4709,-3.93278 0.2812,-1.93397 -0.013,-2.60337 -1.2825,-2.93862 -1.2288,-0.32428 -1.365701,-0.6105 -0.5395,-1.12586 1.378,-0.85961 0.1038,-5.0392 -1.814401,-5.9521 -0.703,-0.33449 -2.7144,-1.30596 -4.471,-2.15877 -3.0807,-1.49587 -3.256,-1.49529 -4.9062,0.0155 -0.941,0.85961 -1.8054,1.40267 -1.9212,1.2085 -0.116,-0.19418 -1.0887,-1.61815 -2.163,-3.16585 -2.1353,-3.07584 -1.8777,-4.49571 0.8194,-4.49571 0.9591,0 2.9098,-0.99089 4.3336,-2.20008 1.4772,-1.25483 2.4315,-1.76822 3.0638,-1.43832 z m -10.9931,0.25306 c 1.0939,-0.20302 1.8477,0.0945 1.5472,1.02259 -0.1914,0.59127 -1.5024,1.46108 -2.9112,1.93411 -1.4087,0.47314 -3.9406,1.92427 -5.6288,3.22523 -1.6882,1.30081 -3.6458,2.36535 -4.3489,2.36535 -0.76,0 -1.3869,0.95829 -1.5472,2.36019 -0.3448,3.01574 -2.8753,3.63657 -3.7305,0.9167 -0.3426,-1.08948 -1.1478,-2.36797 -1.7915,-2.84307 -1.7708,-1.30702 0.9685,-4.99347 3.1834,-4.28397 2.9519,0.94559 9.5302,-0.59268 11.6395,-2.7217 1.0595,-1.0695 2.4941,-1.77236 3.588,-1.97543 z m 106.134211,1.66556 c -0.703,0 -1.2774,0.58159 -1.2774,1.29114 0,0.70967 0.5744,1.29112 1.2774,1.29112 0.1436,0 0.2399,-0.11046 0.369,-0.15494 a 95.812991,97.227227 0 0 0 0.6489,-1.76884 c -0.2255,-0.36923 -0.559,-0.65848 -1.0179,-0.65848 z m -26.2333,1.81791 c 1.4598,0.33773 3.6542,1.87236 3.6542,2.89729 0,0.71962 -0.4804,1.2766 -1.0662,1.2369 -1.3527,-0.0919 -4.3522,-3.34669 -3.6949,-4.01023 0.2146,-0.21656 0.6203,-0.23642 1.1069,-0.12389 z m 20.5052,0.0336 c -0.4326,0.22099 -0.6616,1.04209 -0.6616,2.45315 0,1.74362 0.4236,2.57967 1.3054,2.57967 1.7841,0 2.526,-2.31921 1.2418,-3.88113 -0.817,-0.99353 -1.453,-1.37268 -1.8856,-1.15169 z m -127.145811,1.30149 c 0.5056,0.17004 1.257,0.72319 2.4404,1.7172 1.6017,1.34552 2.8174,2.83228 2.6999,3.30528 -0.1174,0.47307 -0.9906,0.97614 -1.939,1.11812 -2.0268,0.3034 -4.925,-3.57262 -4.1657,-5.56993 0.201,-0.52896 0.4588,-0.74058 0.9644,-0.57067 z m 100.770011,0.67138 c 0.2442,-0.0251 0.5079,0.0363 0.7685,0.0748 0.4333,0.62178 1.0637,1.18782 1.6515,1.77659 -0.2791,0.39679 -0.7532,0.85066 -1.4301,1.21626 -1.3629,0.73627 -1.8264,0.64246 -2.2444,-0.45707 -0.2896,-0.7618 -0.1547,-1.75886 0.2977,-2.21558 0.2272,-0.22939 0.5707,-0.35546 0.9568,-0.39509 z m -76.116911,0.96318 c 0.3212,-0.0354 0.43,0.18642 0.43,0.65331 0,0.64723 -0.7003,1.81755 -1.5574,2.60034 -1.9004,1.73609 -2.7024,1.80505 -2.7024,0.2324 0,-0.65505 0.9583,-1.82537 2.1299,-2.60033 0.8451,-0.55884 1.3786,-0.85081 1.6999,-0.88572 z m -49.6827,0.22723 1.2978,1.86957 c 1.4186,2.04427 0.5208,3.81502 -1.3436,2.65198 -0.7395,-0.46131 -0.9371,-1.39413 -0.5522,-2.61841 z m 106.999411,2.44283 0.5827,1.85665 c 0.321,1.02064 0.3457,2.24438 0.053,2.72169 -0.6124,1.00021 -3.8505,1.19109 -3.8221,0.22465 0.011,-0.3548 0.7326,-1.58125 1.6032,-2.72427 z m 16.7797,1.14652 c 0.6252,0 1.3563,0.57535 1.6236,1.27821 0.3748,0.98601 1.3641,1.15716 4.3336,0.74628 3.1071,-0.4298 3.9526,-0.25963 4.387,0.88314 0.296,0.77865 0.1177,1.93016 -0.3995,2.559 -1.1359,1.38168 -0.4052,2.33686 1.2876,1.68107 1.5822,-0.61277 4.5729,2.11257 4.5729,4.16775 0,1.30217 -0.6497,1.57856 -3.6212,1.53387 -4.3049,-0.0653 -7.4559,-1.19757 -7.4559,-2.68039 0,-0.58864 -1.5799,-2.6949 -3.5092,-4.67905 -3.3112,-3.4056 -3.7733,-5.48988 -1.2189,-5.48988 z m -30.4625,0.0517 c 2.6833,-0.42549 5.9754,1.40462 5.0614,3.80883 -0.6506,1.71154 -5.9599,1.7178 -7.3644,0.0132 -0.8463,-1.02921 -0.8463,-1.55031 0,-2.57968 0.58,-0.70524 1.4086,-1.09771 2.303,-1.23948 z m -72.788511,0.47514 c 0.262,0.26449 0.2618,2.57732 0,5.13869 -0.508,4.96807 -0.4891,4.98991 4.0893,4.69712 1.209,-0.0771 2.635,0.39221 3.1681,1.04066 1.1762,1.43058 0.3666,7.51512 -1.0026,7.53243 -0.5245,0 -1.8527,0.25369 -2.9493,0.55004 -1.7932,0.48472 -1.9629,0.28871 -1.7024,-1.94704 0.2513,-2.156 0.01,-2.48671 -1.8423,-2.48671 -1.7026,0 -2.185,0.48746 -2.4048,2.42216 -0.1513,1.33158 0.3646,3.40423 1.1451,4.60675 1.1811,1.81945 1.8613,2.09506 4.0537,1.65265 1.4489,-0.29245 3.2653,-1.10623 4.0359,-1.81017 0.7707,-0.70389 1.776,-1.2808 2.2368,-1.2808 0.8668,0 4.5677,4.62171 4.5677,5.7042 0,0.33657 0.6272,1.31097 1.392,2.16394 1.2861,1.43446 1.2834,1.7116 -0.02,3.72103 -0.7755,1.1947 -1.784,2.17428 -2.2418,2.17428 -1.1712,0 -1.0432,4.9278 0.1475,5.67063 0.5398,0.33653 1.444,-0.0292 2.0104,-0.81082 0.5663,-0.78194 1.3236,-1.42025 1.682,-1.42025 1.0049,0 -0.3023,5.41712 -1.4912,6.17934 -2.4027,1.54044 -7.0211,0.63999 -10.2119,-1.99092 -1.7571,-1.44911 -2.9543,-3.02619 -2.6617,-3.50412 1.0032,-1.63855 -1.5446,-7.56602 -3.2521,-7.56602 -0.877,0 -1.834,-0.67768 -2.1249,-1.50545 -0.2908,-0.82794 -1.0765,-2.15018 -1.7456,-2.93862 -0.9233,-1.08795 -0.9934,-1.85148 -0.2952,-3.16842 1.3614,-2.56756 1.1431,-3.32467 -1.1248,-3.89921 -1.2948,-0.32801 -2.3889,-1.51467 -2.9823,-3.23298 -1.5835,-4.58475 -1.1549,-7.13768 1.6184,-9.63183 1.4059,-1.26457 2.5549,-2.59967 2.5549,-2.96701 0,-0.9286 4.7665,-3.68392 5.3515,-3.09355 z m 59.309211,1.193 c 0.4687,0 1.087,0.38687 1.3767,0.85989 0.2896,0.47318 0.1427,0.86247 -0.3257,0.86247 -0.4687,0 -1.0871,-0.38929 -1.37671,-0.86247 -0.2897,-0.47302 -0.1431,-0.85989 0.32571,-0.85989 z m -13.647211,1.90571 c 0.6588,0.0605 0.9644,0.26071 0.9644,0.60425 0,0.5417 -0.4778,1.10763 -1.0636,1.25756 -0.5859,0.14984 -2.2966,0.6782 -3.8018,1.17492 -2.0939,0.69117 -2.9532,0.63977 -3.6618,-0.22208 -1.181,-1.43639 -0.4961,-1.83039 4.4812,-2.58225 1.4122,-0.21336 2.4228,-0.29317 3.0816,-0.2324 z m -62.9914,0.67396 c 0.4977,0 0.9008,1.69257 0.9008,3.77527 0,2.31541 -0.5767,4.49436 -1.4912,5.63191 -1.3611,1.69316 -1.6406,1.74107 -3.1961,0.55259 -0.9374,-0.71619 -2.5667,-1.31521 -3.6211,-1.32987 -1.9758,-0.0282 -2.3544,-0.67975 -1.2648,-2.17683 1.1034,-1.51588 7.7381,-6.45307 8.6724,-6.45307 z m 48.6495,0.19109 c 1.6145,-0.13913 2.2562,0.44112 4.0715,2.49188 2.7904,3.15207 2.7908,4.75878 0,3.25106 -1.2838,-0.69119 -2.3205,-0.69181 -3.8247,0 -2.5822,1.18758 -2.9011,1.16661 -4.8247,-0.30471 -2.5654,-1.96222 -1.4205,-4.23956 2.5599,-5.08703 0.8341,-0.17745 1.4824,-0.30228 2.0205,-0.34861 z m 34.490811,0.12388 c 2.3377,-0.0635 3.6752,0.085 2.9722,0.3357 -0.7029,0.24966 -2.2497,1.60584 -3.4353,3.0135 -1.9149,2.27365 -2.2789,2.41021 -3.2649,1.21108 -0.6105,-0.74256 -0.9783,-2.04673 -0.8168,-2.89729 0.2318,-1.22224 1.1856,-1.57047 4.5448,-1.66299 z m 33.6231,0.54744 c 0.3389,0 1.3271,1.58549 2.1935,3.52478 0.8664,1.93931 2.4222,3.85025 3.4583,4.24782 1.9177,0.73598 3.5167,5.13609 2.481,6.82748 -0.2967,0.48473 -0.9966,0.85299 -1.5548,0.82117 -4.117,-0.23627 -8.7299,-7.74679 -7.7537,-12.62724 0.3076,-1.53746 0.8368,-2.79401 1.1757,-2.79401 z m 29.7704,0.0387 c 0.5377,0.20476 1.0279,0.93248 1.3181,2.1097 -0.6988,1.49114 -2.5374,1.32473 -3.6134,-0.38992 0.2603,-0.17005 0.508,-0.37392 0.682,-0.70237 0.4795,-0.90562 1.0702,-1.22419 1.6133,-1.01741 z m -113.664011,1.33244 c 0.4372,0 0.9473,0.16671 1.6057,0.51647 2.4996,1.32716 3.0798,2.49579 2.1249,4.29687 -1.051,1.98209 -2.6767,1.97719 -4.466,-0.0181 -1.6631,-1.85496 -1.7668,-2.88563 -0.4275,-4.23749 0.3621,-0.36543 0.7257,-0.551 1.1629,-0.55778 z m 66.403911,1.33762 c 0.9714,-0.19001 1.3842,0.12215 1.14,0.86248 -0.21,0.63639 -1.0656,1.2904 -1.9009,1.45381 -0.9714,0.18999 -1.3842,-0.11979 -1.14,-0.85989 0.21,-0.63643 1.0656,-1.29303 1.9009,-1.4564 z m -8.9344,2.44799 c 2.4212,0 2.1767,1.46143 -1.0332,6.21548 -2.8068,4.157 -5.3154,5.17407 -8.2067,3.32594 -3.1832,-2.03494 4.0863,-9.54142 9.2399,-9.54142 z m -39.160411,1.09489 c 0.5703,0 1.1458,0.3295 2.1274,0.97868 2.862,1.89281 2.6804,3.72625 -0.5395,5.49502 -7.1833,3.94583 -12.5407,8.10426 -13.5225,10.49689 -0.5819,1.41804 -1.3299,2.57967 -1.6642,2.57967 -0.6121,0 -5.1505,-4.84447 -5.1505,-5.49761 0,-0.62813 6.8335,-3.96377 8.1201,-3.96377 0.8078,0 1.252,-0.86908 1.252,-2.44798 0,-2.45541 2.223,-5.29363 4.1453,-5.29363 0.5655,0 1.9723,-0.62541 3.1275,-1.38925 0.9677,-0.64012 1.5341,-0.96069 2.1044,-0.95802 z m 58.657811,1.50804 c 0.315,0.0283 0.6598,0.29151 1.0077,0.84698 0.9311,1.48644 1.05,3.57454 0.313,5.51312 -0.8537,2.24581 -1.8148,1.54747 -2.4302,-1.76368 -0.4915,-2.64457 0.1648,-4.68032 1.1095,-4.59642 z m -79.537011,0.71012 c 0.4452,0 0.9466,0.41589 1.1146,0.92443 0.168,0.50857 -0.3335,0.92446 -1.1146,0.92446 -0.7811,0 -1.2851,-0.41589 -1.1171,-0.92446 0.168,-0.50854 0.6719,-0.92443 1.1171,-0.92443 z m 29.7882,1.84889 c 0.4956,0 1.3775,0.76901 1.9594,1.70946 0.9198,1.48668 0.6152,2.35851 -2.3436,6.66739 -1.8902,2.75273 -4.2578,5.16864 -5.3261,5.43565 -1.9258,0.48132 -2.3023,2.16759 -1.4276,6.40142 0.4504,2.17981 -2.7006,2.84078 -4.2954,0.90121 -0.6022,-0.73235 -1.9141,-1.32728 -2.9111,-1.32728 -1.5139,0 -1.8434,0.57151 -2.0053,3.44473 -0.1481,2.63154 0.2023,3.69106 1.4912,4.50345 1.6827,1.06075 2.3671,4.08771 0.9237,4.08771 -0.4194,0 -1.6675,0.96113 -2.7711,2.13553 -2.3469,2.49745 -3.1469,2.66742 -3.8527,0.81083 -0.2835,-0.7458 -1.4704,-1.72425 -2.6363,-2.17168 -1.9627,-0.75315 -2.0694,-1.08271 -1.453,-4.44922 0.3661,-1.99984 0.7376,-4.74871 0.8244,-6.10963 0.087,-1.36087 0.9239,-3.10295 1.8602,-3.8708 0.9364,-0.76787 2.1848,-2.63611 2.7763,-4.15227 0.8061,-2.06602 3.2326,-4.16788 9.6826,-8.38718 4.733,-3.09613 9.0088,-5.62932 9.5044,-5.62932 z m 44.221711,0.95286 c 1.0399,0.24119 2.2679,1.87333 2.6338,3.8424 0.3022,1.62567 0.1987,3.59073 -0.2316,4.3666 -0.6171,1.11298 -1.0933,0.46397 -2.2571,-3.0729 -0.8111,-2.46487 -1.299,-4.65834 -1.0841,-4.8753 0.2655,-0.26805 0.5924,-0.34103 0.939,-0.2608 z m 29.3073,0.77984 c 1.2952,-0.015 1.3287,0.463 0.1832,2.62357 -1.0722,2.02235 -2.3982,2.14456 -3.1045,0.28663 -0.5298,-1.39361 0.969,-2.88606 2.9213,-2.9102 z m -35.468,1.35826 c 1.9421,0.205 3.5171,1.88958 4.9444,5.14644 0.9698,2.21312 1.7635,4.35908 1.7635,4.77202 0,1.27817 -3.1366,0.82738 -4.3286,-0.62233 -0.7848,-0.95404 -1.977,-1.23696 -3.901,-0.92186 -1.9926,0.32651 -3.3863,-0.0332 -4.9698,-1.29114 -2.5166,-1.9982 -2.0906,-2.97929 2.5549,-5.87721 1.4751,-0.92029 2.7714,-1.32924 3.9366,-1.20592 z m -27.31731,0.34862 c 1.8666,0 2.2429,2.49445 0.6235,4.12902 -1.2484,1.26014 -2.1152,1.30904 -2.817,0.16268 -0.9308,-1.52014 0.4863,-4.29172 2.1935,-4.2917 z m 5.0996,0.97609 c 0.72491,0.0934 1.65911,0.89402 1.65911,1.65522 0,0.44508 -0.3606,0.80825 -0.8016,0.80825 -1.00531,0 -2.08121,-1.67432 -1.47081,-2.29046 0.1528,-0.1538 0.3717,-0.20403 0.6133,-0.17301 z m 40.64391,6.78359 c 1.6646,0 2.7686,0.42055 2.7686,1.07163 0,0.59569 0.7676,1.56812 1.705,2.15878 0.9373,0.591 1.7024,1.64934 1.7024,2.355 0,1.47104 -4.6767,1.82894 -5.5373,0.4235 -0.2897,-0.47304 -1.4314,-0.85989 -2.5371,-0.85989 -3.0796,0 -4.7051,-0.88882 -4.7051,-2.57194 0,-1.67155 2.2726,-2.55903 6.6035,-2.57708 z m -96.502611,2.44023 c -0.4452,0 -0.9466,0.41844 -1.1145,0.92702 -0.1681,0.5084 0.3335,0.92188 1.1145,0.92188 0.7811,0 1.2851,-0.41348 1.1172,-0.92188 -0.1679,-0.50858 -0.6719,-0.92702 -1.1172,-0.92702 z m 77.045811,0.98901 c 1.9422,0 3.4786,1.1803 3.4786,2.67262 0,1.59239 -2.4628,2.2946 -3.6923,1.05356 -0.8499,-0.8578 -0.6855,-3.72618 0.2137,-3.72618 z m 7.2397,1.29113 c 0.3562,-0.0151 0.7977,0.13235 1.3461,0.42865 0.8781,0.47437 2.5048,0.85989 3.6135,0.85989 2.7169,0 4.325,1.65169 3.0842,3.16327 -1.0884,1.3257 -1.147,1.32478 -4.7357,0 -3.3554,-1.24028 -4.8924,-2.70742 -4.1326,-3.94828 0.1969,-0.3219 0.4683,-0.48883 0.8245,-0.50096 z m -13.9017,2.71911 c 0.4312,-0.15208 0.8935,0.0315 1.6006,0.47772 2.2518,1.4192 4.6681,6.15414 4.0156,7.87071 -0.6256,1.64507 -0.9874,1.65148 -4.5703,0.0671 -3.3595,-1.48536 -4.2828,-4.06963 -2.4607,-6.87655 0.5845,-0.90068 0.984,-1.38659 1.4148,-1.53902 z" /><g
       id="g3606"
       style="fill:#ffc800;fill-opacity:1;stroke:#800000"><path
         id="path43100-3"
         style="fill:#ffc800;fill-opacity:1;stroke-width:0.33691;stroke:#800000"
         d="m 175.1158,86.736039 c 2.06989,5.355411 0.70627,7.720608 -2.1821,7.361809 -1.91983,-0.27126 -2.81385,-1.003187 -3.68626,-2.523896 -4.47308,-8.795797 6.0886,-17.721501 5.86836,-4.837913 z"
         sodipodi:nodetypes="cccc" /><path
         id="path43100-3-8"
         style="fill:#ffc800;fill-opacity:1;stroke:#800000;stroke-width:0.33691"
         d="m 86.989701,27.030512 c 2.06989,5.355411 0.70627,7.720608 -2.1821,7.361809 -1.91983,-0.27126 -2.81385,-1.003187 -3.68626,-2.523896 -4.47308,-8.795797 6.0886,-17.721501 5.86836,-4.837913 z"
         sodipodi:nodetypes="cccc" /><path
         id="path43100-3-8-4"
         style="fill:#ffc800;fill-opacity:1;stroke:#800000;stroke-width:0.33691"
         d="m 105.07303,24.329723 c -4.81665,3.124856 -7.411346,2.275637 -7.652926,-0.62489 -0.128495,-1.934637 0.404386,-2.959833 1.713696,-4.12575 7.69064,-6.182922 18.59381,2.322263 5.93923,4.75064 z"
         sodipodi:nodetypes="cccc" /><path
         id="path43100-3-8-8"
         style="fill:#ffc800;fill-opacity:1;stroke:#800000;stroke-width:0.33691"
         d="m 135.75136,21.477601 c 4.65324,3.363368 4.79821,6.089648 2.1806,7.362254 -1.75772,0.818387 -2.90616,0.691636 -4.46619,-0.10835 -8.54273,-4.939251 -4.54828,-18.177893 2.28559,-7.253904 z"
         sodipodi:nodetypes="cccc" /><path
         id="path43100-3-8-46"
         style="fill:#ffc800;fill-opacity:1;stroke:#800000;stroke-width:0.33691"
         d="m 118.1531,17.022464 c -5.54308,1.496368 -7.75209,-0.107965 -7.09212,-2.942723 0.47127,-1.880756 1.29298,-2.693017 2.89686,-3.400999 9.2167,-3.5251901 16.98458,7.914973 4.19526,6.343722 z"
         sodipodi:nodetypes="cccc" /><path
         id="path43100-3-8-45"
         style="fill:#ffc800;fill-opacity:1;stroke:#800000;stroke-width:0.33691"
         d="m 159.11435,29.186293 c 5.66444,0.9376 7.00901,3.313676 5.23268,5.619335 -1.20892,1.515866 -2.29353,1.914124 -4.04659,1.893071 -9.84865,-0.615286 -12.17161,-14.246907 -1.18609,-7.512406 z"
         sodipodi:nodetypes="cccc" /><path
         id="path43100-3-8-86"
         style="fill:#ffc800;fill-opacity:1;stroke:#800000;stroke-width:0.33691"
         d="m 45.822318,157.54869 c 2.77342,-5.02723 5.461916,-5.50218 7.042971,-3.05849 1.025777,1.64533 1.039423,2.80067 0.434796,4.44629 -3.865319,9.07931 -17.491059,6.72204 -7.477767,-1.3878 z"
         sodipodi:nodetypes="cccc" /><path
         id="path43100-3-8-86-7"
         style="fill:#ffc800;fill-opacity:1;stroke:#800000;stroke-width:0.33691"
         d="m 92.363282,165.6365 c 2.77342,-5.02723 5.461916,-5.50218 7.042971,-3.05849 1.025777,1.64533 1.039427,2.80067 0.434796,4.44629 -3.865319,9.07931 -17.491059,6.72204 -7.477767,-1.3878 z"
         sodipodi:nodetypes="cccc" /><path
         id="path43100-3-8-86-72"
         style="fill:#ffc800;fill-opacity:1;stroke:#800000;stroke-width:0.33691"
         d="m 115.86328,165.6365 c 2.77342,-5.02723 5.46192,-5.50218 7.04297,-3.05849 1.02578,1.64533 1.03943,2.80067 0.4348,4.44629 -3.86532,9.07931 -17.49106,6.72204 -7.47777,-1.3878 z"
         sodipodi:nodetypes="cccc" /><path
         id="path43100-3-8-4-6-0-3"
         style="fill:#ffc800;fill-opacity:1;stroke:#800000;stroke-width:0.33691"
         d="m 98.752785,110.24211 c 2.520205,-5.15883 5.181785,-5.7668 6.882305,-3.40468 1.10627,1.59234 1.1773,2.74557 0.6552,4.41921 -3.40941,9.26015 -17.135445,7.58285 -7.537505,-1.01453 z"
         sodipodi:nodetypes="cccc" /><path
         id="path43100-3-8-4-6-0-2"
         style="fill:#ffc800;fill-opacity:1;stroke:#800000;stroke-width:0.33691"
         d="m 110.75279,88.742107 c 2.5202,-5.15883 5.18178,-5.7668 6.8823,-3.40468 1.10627,1.59234 1.1773,2.74557 0.6552,4.41921 -3.40941,9.26015 -17.13545,7.58285 -7.5375,-1.01453 z"
         sodipodi:nodetypes="cccc" /><path
         id="path43100-3-8-4-6"
         style="fill:#ffc800;fill-opacity:1;stroke:#800000;stroke-width:0.33691"
         d="m 32.13311,145.42817 c 5.489379,1.68273 6.50596,4.21654 4.438732,6.26543 -1.399817,1.3416 -2.527764,1.59204 -4.262441,1.338 -9.679293,-1.91984 -10.168419,-15.73932 -0.176291,-7.60343 z"
         sodipodi:nodetypes="cccc" /><path
         id="path43100-3-8-8-7"
         style="fill:#ffc800;fill-opacity:1;stroke:#800000;stroke-width:0.33691"
         d="m 10.234801,123.75427 c -0.4129212,-5.72664 1.582878,-7.58954 4.239978,-6.40159 1.756523,0.82094 2.397359,1.78235 2.786806,3.49174 1.704703,9.71948 -11.005825,15.16557 -7.026784,2.90985 z"
         sodipodi:nodetypes="cccc" /><path
         id="path43100-3-8-46-7"
         style="fill:#ffc800;fill-opacity:1;stroke:#800000;stroke-width:0.33691"
         d="m 85.292111,183.61735 c 4.70837,3.28575 4.898527,6.00925 2.302378,7.32508 -1.743906,0.84742 -2.894294,0.73973 -4.467369,-0.0343 -8.623462,-4.79692 -4.849085,-18.09997 2.164991,-7.29081 z"
         sodipodi:nodetypes="cccc" /><path
         id="path43100-3-8-45-9"
         style="fill:#ffc800;fill-opacity:1;stroke:#800000;stroke-width:0.33691"
         d="m 58.403811,176.19963 c -2.92137,-4.94272 -1.96474,-7.49976 0.943335,-7.62024 1.938314,-0.0477 2.940406,0.52741 4.050737,1.88419 5.856984,7.94167 -3.095278,18.48085 -4.994072,5.73605 z"
         sodipodi:nodetypes="cccc" /><path
         id="path43100-3-8-86-1"
         style="fill:#ffc800;fill-opacity:1;stroke:#800000;stroke-width:0.33691"
         d="m 151.18598,157.50601 c -4.53185,-3.52524 -4.58066,-6.25492 -1.91985,-7.43452 1.78546,-0.75594 2.92873,-0.58881 4.45959,0.26565 8.36341,5.23717 3.905,18.32686 -2.53974,7.16887 z"
         sodipodi:nodetypes="cccc" /><path
         id="path43100-3-8-86-1-1"
         style="fill:#ffc800;fill-opacity:1;stroke:#800000;stroke-width:0.33691"
         d="m 165.7939,51.26787 c -4.53185,-3.52524 -4.58066,-6.25492 -1.91985,-7.43452 1.78546,-0.75594 2.92873,-0.58881 4.45959,0.26565 8.36341,5.23717 3.905,18.32686 -2.53974,7.16887 z"
         sodipodi:nodetypes="cccc" /><path
         id="path43100-3-8-4-6-0"
         style="fill:#ffc800;fill-opacity:1;stroke:#800000;stroke-width:0.33691"
         d="m 137.07444,169.13209 c 2.5202,-5.15883 5.18178,-5.7668 6.8823,-3.40468 1.10627,1.59234 1.1773,2.74557 0.6552,4.41921 -3.40941,9.26015 -17.13544,7.58285 -7.5375,-1.01453 z"
         sodipodi:nodetypes="cccc" /><path
         id="path43100-3-8-4-6-0-5"
         style="fill:#ffc800;fill-opacity:1;stroke:#800000;stroke-width:0.33691"
         d="m 74.252785,154.24211 c 2.5202,-5.15883 5.18178,-5.7668 6.8823,-3.40468 1.10627,1.59234 1.1773,2.74557 0.6552,4.41921 -3.40941,9.26015 -17.13544,7.58285 -7.5375,-1.01453 z"
         sodipodi:nodetypes="cccc" /><path
         id="path43100-3-8-8-7-5"
         style="fill:#ffc800;fill-opacity:1;stroke:#800000;stroke-width:0.33691"
         d="m 112.24364,187.37285 c -5.72078,-0.48741 -7.24877,-2.7499 -5.66004,-5.18861 1.08545,-1.60659 2.13522,-2.08925 3.88447,-2.20667 9.86648,-0.16429 13.25856,13.24134 1.77557,7.39528 z"
         sodipodi:nodetypes="cccc" /><path
         id="path43100-3-8-8-7-5-0"
         style="fill:#ffc800;fill-opacity:1;stroke:#800000;stroke-width:0.33691"
         d="m 177.00835,67.95856 c -5.72078,-0.48741 -7.24877,-2.7499 -5.66004,-5.18861 1.08545,-1.60659 2.13522,-2.08925 3.88447,-2.20667 9.86648,-0.16429 13.25856,13.24134 1.77557,7.39528 z"
         sodipodi:nodetypes="cccc" /><path
         id="path43100-3-8-46-7-3"
         style="fill:#ffc800;fill-opacity:1;stroke:#800000;stroke-width:0.33691"
         d="m 183.10447,122.59684 c 3.98141,-4.13681 6.70115,-3.89886 7.59495,-1.12893 0.56437,1.85494 0.27816,2.97435 -0.73227,4.40708 -6.08605,7.76753 -18.63549,1.95988 -6.86271,-3.27815 z"
         sodipodi:nodetypes="cccc" /><path
         id="path43100-3-8-8-7-5-0-1"
         style="fill:#ffc800;fill-opacity:1;stroke:#800000;stroke-width:0.33691"
         d="m 33.13979,74.85146 c -5.72078,-0.48741 -7.24877,-2.7499 -5.66004,-5.18861 1.08545,-1.60659 2.13522,-2.08925 3.88447,-2.20667 9.86648,-0.16429 13.25856,13.241339 1.77557,7.39528 z"
         sodipodi:nodetypes="cccc" /><path
         id="path43100-3-8-46-7-3-1"
         style="fill:#ffc800;fill-opacity:1;stroke:#800000;stroke-width:0.33691"
         d="m 39.23591,129.48974 c 3.98141,-4.13681 6.70115,-3.89886 7.59495,-1.12893 0.56437,1.85494 0.27816,2.97435 -0.73227,4.40708 -6.08605,7.76753 -18.63549,1.95988 -6.86271,-3.27815 z"
         sodipodi:nodetypes="cccc" /><path
         id="path43100-3-8-46-7-3-1-2"
         style="fill:#ffc800;fill-opacity:1;stroke:#800000;stroke-width:0.33691"
         d="m 54.49178,88.054775 c 3.98141,-4.13681 6.70115,-3.89886 7.59495,-1.12893 0.56437,1.85494 0.27816,2.97435 -0.73227,4.40708 -6.08605,7.76753 -18.63549,1.95988 -6.86271,-3.27815 z"
         sodipodi:nodetypes="cccc" /><path
         id="path43100-3-8-45-9-6"
         style="fill:#ffc800;fill-opacity:1;stroke:#800000;stroke-width:0.33691"
         d="m 171.57448,147.99492 c -5.33865,2.11275 -7.7147,0.76814 -7.37908,-2.12301 0.25591,-1.92194 0.98061,-2.8218 2.49428,-3.70638 8.75965,-4.54343 17.76974,5.94636 4.8848,5.82939 z"
         sodipodi:nodetypes="cccc" /><path
         id="path43100-3-8-86-9"
         style="fill:#ffc800;fill-opacity:1;stroke:#800000;stroke-width:0.33691"
         d="m 30.518638,56.277637 c 5.51678,1.590609 6.575611,4.107048 4.542972,6.190251 -1.377155,1.364834 -2.500755,1.634128 -4.239439,1.409147 -9.710076,-1.757554 -10.430434,-15.566921 -0.303533,-7.599398 z"
         sodipodi:nodetypes="cccc"
         inkscape:transform-center-x="-33.667258"
         inkscape:transform-center-y="0.39545349" /><path
         id="path43100-3-8-86-9-2"
         style="fill:#ffc800;fill-opacity:1;stroke:#800000;stroke-width:0.33691"
         d="m 79.895578,96.894988 c 5.51678,1.590609 6.575611,4.107052 4.542972,6.190252 -1.377155,1.36483 -2.500755,1.63413 -4.239439,1.40915 -9.710076,-1.75756 -10.430434,-15.566925 -0.303533,-7.599402 z"
         sodipodi:nodetypes="cccc"
         inkscape:transform-center-x="-33.667258"
         inkscape:transform-center-y="0.39545349" /><path
         id="path43100-3-8-4-6-5"
         style="fill:#ffc800;fill-opacity:1;stroke:#800000;stroke-width:0.33691"
         d="m 39.304799,40.24315 c -0.424631,5.725779 -2.67022,7.278506 -5.126217,5.716629 -1.61841,-1.067767 -2.112543,-2.112189 -2.249167,-3.860038 -0.272507,-9.864088 13.095112,-13.403021 7.375384,-1.856591 z"
         sodipodi:nodetypes="cccc"
         inkscape:transform-center-x="-40.371346"
         inkscape:transform-center-y="-18.714602" /><path
         id="path43100-3-8-8-7-56"
         style="fill:#ffc800;fill-opacity:1;stroke:#800000;stroke-width:0.33691"
         d="m 55.58801,14.086871 c 5.492812,-1.671503 7.751616,-0.13807 7.181923,2.7162 -0.411345,1.894759 -1.20687,2.732685 -2.787483,3.4912 -9.100191,3.815864 -17.227173,-7.372058 -4.39444,-6.2074 z"
         sodipodi:nodetypes="cccc"
         inkscape:transform-center-x="-59.941369"
         inkscape:transform-center-y="-41.245724" /><path
         id="path43100-3-8-9"
         style="fill:#ffc800;fill-opacity:1;stroke:#800000;stroke-width:0.33691"
         d="m 82.200994,51.317823 c 2.06989,5.355411 0.70627,7.720608 -2.1821,7.361809 -1.91983,-0.27126 -2.81385,-1.003187 -3.68626,-2.523896 -4.47308,-8.795797 6.0886,-17.721501 5.86836,-4.837913 z"
         sodipodi:nodetypes="cccc" /><path
         id="path43100-3-8-9-9"
         style="fill:#ffc800;fill-opacity:1;stroke:#800000;stroke-width:0.33691"
         d="m 147.4897,67.530512 c 2.06989,5.355411 0.70627,7.720608 -2.1821,7.361809 -1.91983,-0.27126 -2.81385,-1.003187 -3.68626,-2.523896 -4.47308,-8.795797 6.0886,-17.721501 5.86836,-4.837913 z"
         sodipodi:nodetypes="cccc" /><path
         id="path43100-3-8-9-4"
         style="fill:#ffc800;fill-opacity:1;stroke:#800000;stroke-width:0.33691"
         d="m 35.489701,96.530512 c 2.06989,5.355408 0.70627,7.720608 -2.1821,7.361808 -1.91983,-0.27126 -2.81385,-1.00319 -3.68626,-2.52389 -4.47308,-8.795802 6.0886,-17.721506 5.86836,-4.837918 z"
         sodipodi:nodetypes="cccc" /><path
         id="path43100-3-8-4-0"
         style="fill:#ffc800;fill-opacity:1;stroke:#800000;stroke-width:0.33691"
         d="m 100.28432,48.617034 c -4.816647,3.124856 -7.411343,2.275637 -7.652923,-0.62489 -0.128495,-1.934637 0.404386,-2.959833 1.713696,-4.12575 7.690637,-6.182922 18.593807,2.322263 5.939227,4.75064 z"
         sodipodi:nodetypes="cccc" /><path
         id="path43100-3-8-8-0"
         style="fill:#ffc800;fill-opacity:1;stroke:#800000;stroke-width:0.33691"
         d="m 130.96265,45.764912 c 4.65324,3.363368 4.79821,6.089648 2.1806,7.362254 -1.75772,0.818387 -2.90616,0.691636 -4.46619,-0.10835 -8.54273,-4.939251 -4.54828,-18.177893 2.28559,-7.253904 z"
         sodipodi:nodetypes="cccc" /><path
         id="path43100-3-8-46-2"
         style="fill:#ffc800;fill-opacity:1;stroke:#800000;stroke-width:0.33691"
         d="m 116.94433,68.681012 c -2.1011,-5.34324 -0.75131,-7.716352 2.13911,-7.374417 1.92138,0.260061 2.81965,0.98675 3.70092,2.502347 4.52433,8.769548 -5.98509,17.756731 -5.84003,4.87207 z"
         sodipodi:nodetypes="cccc" /><path
         id="path43100-3-8-8-7-56-8"
         style="fill:#ffc800;fill-opacity:1;stroke:#800000;stroke-width:0.33691"
         d="m 50.799303,38.374182 c 5.492812,-1.671503 7.751616,-0.13807 7.181923,2.7162 -0.411345,1.894759 -1.20687,2.732685 -2.787483,3.4912 -9.100191,3.815864 -17.227173,-7.372058 -4.39444,-6.2074 z"
         sodipodi:nodetypes="cccc"
         inkscape:transform-center-x="-59.941369"
         inkscape:transform-center-y="-41.245724" /><path
         id="path43100-3-8-4-6-5-4"
         style="fill:#ffc800;fill-opacity:1;stroke:#800000;stroke-width:0.33691"
         d="m 55.742557,67.877196 c -0.424631,5.725779 -2.67022,7.278506 -5.126217,5.716629 -1.61841,-1.067767 -2.112543,-2.112189 -2.249167,-3.860038 -0.272507,-9.864088 13.095112,-13.403021 7.375384,-1.856591 z"
         sodipodi:nodetypes="cccc"
         inkscape:transform-center-x="-40.371346"
         inkscape:transform-center-y="-18.714602" /><path
         id="path43100-3-8-9-5"
         style="fill:#ffc800;fill-opacity:1;stroke:#800000;stroke-width:0.33691"
         d="m 98.638752,78.951869 c 2.069888,5.355411 0.70627,7.720608 -2.1821,7.361809 -1.91983,-0.27126 -2.81385,-1.003187 -3.68626,-2.523896 -4.47308,-8.795797 6.0886,-17.721501 5.86836,-4.837913 z"
         sodipodi:nodetypes="cccc" /><path
         id="path43100-3-8-8-7-56-8-4"
         style="fill:#ffc800;fill-opacity:1;stroke:#800000;stroke-width:0.33691"
         d="m 67.237061,66.008228 c 5.492812,-1.671503 7.751616,-0.13807 7.181923,2.7162 -0.411345,1.894759 -1.20687,2.732685 -2.787483,3.4912 -9.100191,3.815864 -17.227173,-7.372058 -4.39444,-6.2074 z"
         sodipodi:nodetypes="cccc"
         inkscape:transform-center-x="-59.941369"
         inkscape:transform-center-y="-41.245724" /><path
         id="path43100-3-8-0"
         style="fill:#ffc800;fill-opacity:1;stroke:#800000;stroke-width:0.33691"
         d="m 99.700994,147.81782 c 2.069886,5.35541 0.706266,7.72061 -2.1821,7.36181 -1.91983,-0.27126 -2.81385,-1.00318 -3.68626,-2.52389 -4.47308,-8.7958 6.0886,-17.7215 5.86836,-4.83792 z"
         sodipodi:nodetypes="cccc" /><path
         id="path43100-3-8-4-5"
         style="fill:#ffc800;fill-opacity:1;stroke:#800000;stroke-width:0.33691"
         d="m 117.78432,145.11703 c -4.81665,3.12486 -7.41134,2.27564 -7.65292,-0.62489 -0.1285,-1.93463 0.40438,-2.95983 1.71369,-4.12575 7.69064,-6.18292 18.59381,2.32227 5.93923,4.75064 z"
         sodipodi:nodetypes="cccc" /><path
         id="path43100-3-8-8-72"
         style="fill:#ffc800;fill-opacity:1;stroke:#800000;stroke-width:0.33691"
         d="m 148.46265,142.26491 c 4.65324,3.36337 4.79821,6.08965 2.1806,7.36226 -1.75772,0.81838 -2.90616,0.69163 -4.46619,-0.10835 -8.54273,-4.93925 -4.54828,-18.1779 2.28559,-7.25391 z"
         sodipodi:nodetypes="cccc" /><path
         id="path43100-3-8-46-8"
         style="fill:#ffc800;fill-opacity:1;stroke:#800000;stroke-width:0.33691"
         d="m 130.86439,137.80978 c -5.54308,1.49636 -7.75209,-0.10797 -7.09212,-2.94273 0.47127,-1.88075 1.29298,-2.69301 2.89686,-3.401 9.2167,-3.52519 16.98458,7.91498 4.19526,6.34373 z"
         sodipodi:nodetypes="cccc" /><path
         id="path43100-3-8-4-5-8"
         style="fill:#ffc800;fill-opacity:1;stroke:#800000;stroke-width:0.33691"
         d="m 41.052833,118.6365 c -4.81665,3.12486 -7.41134,2.27564 -7.65292,-0.62489 -0.1285,-1.93463 0.40438,-2.95983 1.71369,-4.12575 7.69064,-6.18292 18.59381,2.32227 5.93923,4.75064 z"
         sodipodi:nodetypes="cccc" /><path
         id="path43100-3-8-8-72-2"
         style="fill:#ffc800;fill-opacity:1;stroke:#800000;stroke-width:0.33691"
         d="m 71.731163,115.78438 c 4.65324,3.36337 4.79821,6.08965 2.1806,7.36226 -1.75772,0.81838 -2.90616,0.69163 -4.46619,-0.10835 -8.54273,-4.93925 -4.54828,-18.1779 2.28559,-7.25391 z"
         sodipodi:nodetypes="cccc" /><path
         id="path43100-3-8-46-8-8"
         style="fill:#ffc800;fill-opacity:1;stroke:#800000;stroke-width:0.33691"
         d="m 54.132903,111.32925 c -5.54308,1.49636 -7.75209,-0.10797 -7.09212,-2.94273 0.47127,-1.88075 1.29298,-2.69301 2.89686,-3.401 9.2167,-3.52519 16.98458,7.91498 4.19526,6.34373 z"
         sodipodi:nodetypes="cccc" /><path
         id="path43100-3-8-8-7-56-7"
         style="fill:#ffc800;fill-opacity:1;stroke:#800000;stroke-width:0.33691"
         d="m 68.299303,134.87418 c 5.492812,-1.6715 7.751616,-0.13807 7.181923,2.7162 -0.411345,1.89476 -1.20687,2.73269 -2.787483,3.4912 -9.100191,3.81587 -17.227173,-7.37206 -4.39444,-6.2074 z"
         sodipodi:nodetypes="cccc"
         inkscape:transform-center-x="-59.941369"
         inkscape:transform-center-y="-41.245724" /><path
         id="path43100-3-8-4-5-8-9"
         style="fill:#ffc800;fill-opacity:1;stroke:#800000;stroke-width:0.33691"
         d="m 137.07835,99.35977 c -4.81665,3.12486 -7.41134,2.27564 -7.65292,-0.624889 -0.1285,-1.93463 0.40438,-2.95983 1.71369,-4.12575 7.69064,-6.18292 18.5938,2.32227 5.93923,4.750639 z"
         sodipodi:nodetypes="cccc" /><path
         id="path43100-3-8-8-7-56-7-6"
         style="fill:#ffc800;fill-opacity:1;stroke:#800000;stroke-width:0.33691"
         d="m 164.32482,115.59745 c 5.49281,-1.6715 7.75161,-0.13807 7.18192,2.7162 -0.41135,1.89476 -1.20687,2.73269 -2.78748,3.4912 -9.1002,3.81587 -17.22718,-7.37206 -4.39444,-6.2074 z"
         sodipodi:nodetypes="cccc"
         inkscape:transform-center-x="-59.941369"
         inkscape:transform-center-y="-41.245724" /><path
         id="path43100-3-8-8-7-56-7-6-6"
         style="fill:#ffc800;fill-opacity:1;stroke:#800000;stroke-width:0.33691"
         d="m 124.69056,112.84332 c 5.49281,-1.6715 7.75161,-0.13807 7.18192,2.7162 -0.41135,1.89476 -1.20687,2.73269 -2.78748,3.4912 -9.1002,3.81587 -17.22718,-7.37206 -4.39444,-6.2074 z"
         sodipodi:nodetypes="cccc"
         inkscape:transform-center-x="-59.941369"
         inkscape:transform-center-y="-41.245724" /><path
         id="path43100-3-8-46-7-7"
         style="fill:#ffc800;fill-opacity:1;stroke:#800000;stroke-width:0.33691"
         d="m 13.843191,100.5424 c -2.160855,5.31936 -4.774529,6.10823 -6.632883,3.86816 -1.212752,-1.5128 -1.362629,-2.65846 -0.956381,-4.36393 2.767006,-9.471974 16.575689,-8.73895 7.589293,0.49576 z"
         sodipodi:nodetypes="cccc"
         inkscape:transform-center-x="-15.490731"
         inkscape:transform-center-y="40.940043" /><path
         id="path43100-3-8-45-9-3"
         style="fill:#ffc800;fill-opacity:1;stroke:#800000;stroke-width:0.33691"
         d="m 15.118936,72.678879 c 4.172583,-3.943911 6.878027,-3.577618 7.639851,-0.768519 0.475984,1.879568 0.1372,2.984179 -0.939842,4.367533 -6.446553,7.471032 -18.707321,1.076433 -6.700009,-3.599014 z"
         sodipodi:nodetypes="cccc"
         inkscape:transform-center-x="-20.554262"
         inkscape:transform-center-y="16.243275" /></g><path
       id="path40758-3-0-1"
       style="fill:#ffffff;fill-opacity:1;stroke-width:0.383383;stroke:#b3b3b3"
       d="m 64.61773,12.831745 c -1.31375,0.02576 -1.39309,6.07747 -2.75196,13.314452 -1.15166,6.133478 -3.74078,12.572937 -4.36133,21.566406 -0.65879,9.547963 1.54023,5.595661 1.89063,12.263672 0.27892,5.307734 -0.37416,16.019698 -0.2168,21.572266 -0.0542,0.34769 -0.0991,0.681059 -0.1582,1.035156 -1.02927,6.165756 -3.25837,12.699893 -3.87891,21.693353 -0.6588,9.54797 1.21743,5.51048 1.43164,12.14259 0.10256,3.17503 -0.0996,8.31242 -0.26367,13.12304 -0.20158,-0.0879 -0.51891,0.17107 -1.05664,1.00196 -1.36832,2.11432 0.96168,-14.2969 -0.3789,-14.65039 -1.44107,-0.37998 -1.48011,5.82839 -2.88282,13.29883 -1.15166,6.13348 -3.73883,12.57293 -4.35937,21.5664 -0.6588,9.54796 1.53827,5.59566 1.88867,12.26367 0.38164,7.26262 -0.99897,24.74472 0.36914,25.10547 1.41879,0.37411 2.12785,-12.60979 3.51563,-19.875 1.17908,-6.17265 3.09629,-5.82552 3.72851,-14.98828 0.27948,-4.05045 0.64865,-10.4955 0.4668,-15.00586 0.67962,-4.2366 1.2953,-11.79913 2.14258,-16.79492 1.05252,-6.20603 2.64512,-5.94661 3.27734,-15.10939 0.39129,-5.67096 0.99824,-16.09715 0.17773,-19.166007 -0.59122,-2.21126 0.1626,-6.466148 -1.48046,-3.402341 -0.59605,1.111431 -0.32847,-2.67 -0.0742,-6.662109 0.49255,-3.940524 0.98958,-8.52818 1.63672,-11.916016 0.0808,-0.422869 0.16489,-0.810895 0.25195,-1.177734 -0.18403,4.020232 -0.40288,8.437206 0.41797,13.203125 1.30398,7.571045 2.53678,3.237108 4.19336,8.019535 1.31932,3.8088 2.86498,12.283997 4.12109,16.347647 0.0188,0.28358 0.0428,0.55098 0.0586,0.8418 0.28633,5.26534 -0.45872,11.55419 0.76953,18.68555 1.30398,7.57104 2.22203,3.3745 3.74609,8.21485 0.72958,2.31709 1.57138,6.29607 2.38282,10.00585 -0.20291,0.0607 -0.44338,0.45357 -0.77149,1.41016 -0.8363,2.43818 -1.97478,-11.32209 -3.27929,-10.75195 -1.40233,0.61288 -0.19587,5.29307 0.008,11.76953 0.16722,5.3174 -0.92747,11.75926 0.30078,18.89062 1.30398,7.57105 2.53678,3.23711 4.19336,8.01954 0.13402,0.38692 0.272,0.83452 0.41015,1.30859 -0.82562,7.48969 -2.45855,18.18444 -1.58007,18.24609 0.79455,0.0558 1.92046,-5.98523 3.14453,-11.92773 1.26609,5.53851 2.51948,11.35254 3.38867,10.97265 1.38062,-0.60339 -0.56583,-10.78244 -0.74219,-17.0957 -0.0639,-2.28688 0.23162,-3.77244 0.4961,-5.2832 0.95932,-2.23635 1.89701,-4.21787 2.75976,-9.61328 0.59548,-3.72394 1.4805,-9.63308 1.74414,-13.68946 0.93682,-3.96626 2.12561,-10.93839 3.26758,-15.625 1.41839,-5.82101 2.68409,-5.87795 4.03125,-14.30273 0.11997,-0.75028 0.26639,-1.72231 0.4043,-2.61914 0.591,4.49999 1.7001,12.58965 2.37109,14.34375 0.48599,1.27045 0.76967,4.93249 0.94531,1.58789 0.064,-1.21785 0.45542,1.80409 0.87891,4.96094 0.33235,3.25108 0.74475,6.97864 0.95312,9.91406 0.38099,5.36703 -0.32409,6.34236 0.62696,13.58984 0.58861,4.48558 1.71705,12.6506 2.4707,14.32032 0.54304,1.20311 0.79069,4.90583 1.07617,1.43164 0.0938,-1.14144 0.42328,1.23541 0.79883,4.02343 -0.32387,3.32303 -0.61575,6.69273 -0.11719,6.70118 0.35457,0.006 0.62238,-0.57854 0.86914,-1.52735 0.17571,1.00027 0.33309,1.63509 0.44922,1.49805 0.27625,-0.32599 0.21046,-1.69539 0.0195,-3.79688 0.37713,-2.2323 0.78952,-5.24749 1.47461,-8.6289 0.65511,-3.23347 1.67895,-6.67087 2.59961,-10.50977 0.61243,6.31218 1.24959,14.548 1.67187,14.0918 0.57368,-0.61978 -0.23334,-11.07407 -0.30664,-17.55859 -0.0208,-1.83935 0.0521,-3.14816 0.13672,-4.38477 0.077,-0.5795 0.14892,-1.16475 0.21094,-1.76367 0.40295,-3.89116 0.23626,-5.21071 -0.0703,-6.02735 -0.0273,-0.55999 -0.0522,-1.10597 -0.0977,-1.75781 -0.15552,-2.23192 -0.38957,-5.34319 -0.66016,-8.16601 0.27792,-4.73354 0.73416,-10.35511 0.79493,-13.74805 0.0565,-0.31973 0.10541,-0.62472 0.16601,-0.95117 1.05924,-5.70604 3.08991,-12.00453 3.93164,-20.13282 0.89363,-8.629447 -0.75813,-4.62701 -0.67383,-10.472657 0.0403,-2.798335 0.39866,-7.408239 0.71485,-11.718747 0.15757,0.03374 0.42134,-0.267705 0.88281,-1.125 1.17402,-2.18103 -1.31859,12.917677 -0.26172,12.935547 1.13608,0.0192 1.40483,-5.505296 2.8125,-12.453125 0.6743,-3.32817 1.7409,-6.871033 2.68164,-10.847657 0.0334,0.08606 0.0662,0.164413 0.0996,0.248047 0.43408,3.50216 1.74553,9.388081 2.21094,13.53125 0.57986,5.161897 -0.88867,6.017411 0.78125,13.035155 1.03354,4.343387 3.03129,12.255027 4.50195,13.929687 1.05968,1.20667 1.42916,4.76623 2.13477,1.48242 0.25584,-1.19067 0.93968,1.70792 1.68554,4.75001 0.52342,3.16327 1.20057,6.79767 1.45313,9.66406 0.46001,5.22069 -1.31639,6.2264 0.35351,13.24414 1.03354,4.3434 3.05385,12.24482 4.72266,13.82227 1.20247,1.13662 1.48245,4.73894 2.46289,1.32031 0.1918,-0.66875 0.47945,-0.11112 0.82031,1.00195 -0.2746,1.44304 -0.4662,3.27924 -0.49609,5.93164 -0.0625,5.54788 -0.0429,15.74612 1.16602,18.73828 0.87112,2.15601 0.26988,6.32182 2.02734,3.31055 1.24393,-2.1313 -0.13438,13.98611 1.22461,14.26172 1.46086,0.29627 1.14112,-5.75742 2.10937,-13.11133 0.79497,-6.0378 3.00627,-12.44784 3.10547,-21.24609 0.10527,-9.34071 -1.85997,-5.37389 -2.5957,-11.85547 -0.5858,-5.1607 -0.55045,-15.67125 -1.0293,-21.07422 0.033,-0.33041 0.0585,-0.64596 0.0957,-0.98242 0.67089,-6.06298 2.51798,-12.54745 2.61718,-21.34571 0.10527,-9.34071 -1.53318,-5.30813 -2.13086,-11.761717 -0.28613,-3.0896 -0.38152,-8.107074 -0.49609,-12.804688 0.20634,0.0732 0.50859,-0.195944 0.99609,-1.03125 1.24384,-2.131291 -0.13438,13.986108 1.22461,14.261715 1.46085,0.29627 1.14112,-5.757417 2.10938,-13.111324 0.79497,-6.037809 3.00637,-12.447842 3.10547,-21.246094 0.10527,-9.340712 -1.85998,-5.373881 -2.59571,-11.855469 -0.80133,-7.059573 -0.43536,-24.173805 -1.82226,-24.455078 -1.43828,-0.291693 -1.39416,12.401591 -2.35938,19.554688 -0.82008,6.077411 -2.75445,5.838862 -2.85546,14.802734 -0.0447,3.961539 -0.0399,10.259514 0.40234,14.646484 -0.43363,4.164 -0.61096,11.57007 -1.16797,16.484372 -0.69178,6.103427 -2.29546,5.932617 -2.39648,14.896487 -0.0625,5.54787 -0.0652,15.74226 0.93164,18.69141 0.71829,2.12501 0.21056,6.30922 1.67382,3.23828 0.53048,-1.11333 0.4838,2.58269 0.46094,6.48438 -0.26395,3.86772 -0.49497,8.36963 -0.94531,11.70703 -0.0561,0.41599 -0.11796,0.79641 -0.18359,1.1582 -0.0489,-3.9275 -0.0865,-8.24531 -1.18165,-12.84766 -1.74011,-7.31277 -2.72153,-3.02512 -4.65234,-7.60156 -1.53695,-3.64293 -3.56749,-11.81607 -5.05664,-15.71485 -0.0355,-0.27763 -0.0765,-0.53926 -0.10937,-0.82422 -0.5906,-5.11764 -0.21251,-11.28574 -1.85157,-18.173817 -1.74012,-7.312775 -2.41299,-3.174749 -4.21484,-7.814458 -0.86258,-2.221129 -1.93212,-6.056394 -2.95703,-9.630859 0.19877,-0.07079 0.41578,-0.466619 0.6875,-1.414063 0.69393,-2.419611 2.62695,10.93534 3.89648,10.3125 1.36469,-0.66952 -0.1113,-5.170226 -0.68945,-11.472656 -0.47469,-5.174507 0.24648,-11.510352 -1.39258,-18.398438 -1.74012,-7.31277 -2.71958,-3.025123 -4.65039,-7.601562 -0.15635,-0.370592 -0.32079,-0.798434 -0.48633,-1.253906 0.39094,-7.343011 1.40219,-17.852294 0.52149,-17.867188 -0.79648,-0.01347 -1.57103,5.932389 -2.44922,11.78711 -1.58445,-5.332831 -3.17182,-10.934465 -4.01758,-10.519532 -1.34359,0.659174 1.18709,10.482213 1.72852,16.626954 0.19689,2.234517 -0.0124,3.699189 -0.18946,5.191406 -0.82866,2.229925 -1.64792,4.189262 -2.19726,9.49414 -0.37896,3.659439 -0.92237,9.464212 -0.95117,13.431641 -0.70597,3.91393 -1.48826,10.774596 -2.35743,15.402344 -1.05617,5.623477 -2.28283,5.909337 -3.13867,13.675774 -0.34322,-4.48404 -0.81908,-9.783107 -1.25781,-11.201167 -0.40993,-1.324991 -0.47402,-5.085368 -0.84766,-1.673826 -0.13577,1.239726 -0.34884,-1.857608 -0.58398,-5.101562 -0.13919,-3.346991 -0.32916,-7.189986 -0.36328,-10.208985 -0.0623,-5.509373 0.69966,-6.470894 0.17968,-13.933594 -0.32181,-4.618778 -0.9656,-13.027931 -1.61914,-14.77539 -0.4709,-1.25913 -0.49926,-5.059798 -0.99023,-1.521485 -0.16133,1.162633 -0.34886,-1.286455 -0.55859,-4.158203 0.52037,-3.381787 1.01294,-6.810812 0.51562,-6.845703 -0.3538,-0.02482 -0.65625,0.557558 -0.95898,1.515625 -0.11613,-1.032005 -0.23532,-1.690663 -0.35938,-1.556641 -0.29494,0.318662 -0.31007,1.721761 -0.24414,3.878907 -0.50902,2.263535 -1.10148,5.326261 -1.98632,8.75 -1.49213,5.773467 -4.17578,12.088294 -5.49805,20.357422 -1.4038,8.778961 0.73762,4.791544 0.41406,10.773437 -0.0714,1.320069 -0.25283,3.085982 -0.4668,4.980469 -0.14646,-2.948745 -0.36009,-6.074747 -0.78906,-9.34375 -0.99102,-7.552167 -1.24523,-3.186756 -2.21679,-7.939453 -1.05821,-5.176511 -2.81232,-19.116854 -3.33008,-18.50586 -0.53695,0.633627 0.8758,10.782629 1.32422,17.09961 0.38098,5.367031 -0.32605,6.342359 0.625,13.589844 0.42028,3.202811 1.1159,8.249574 1.7539,11.5 0.19088,2.245377 0.54816,5.407158 0.88281,8.550775 -0.0508,0.21566 -0.0937,0.41822 -0.14648,0.63672 -1.39587,5.78022 -3.79687,12.11563 -5.11914,20.38477 -1.4038,8.77896 0.48338,4.77367 0.0527,10.74805 -0.20613,2.85961 -0.83899,7.55373 -1.41016,11.94531 -0.15578,-0.0396 -0.4379,0.25667 -0.94726,1.10547 -1.30152,2.16887 2.08349,-13.1428 1.02929,-13.2168 -1.13321,-0.0795 -1.73145,5.55791 -3.54882,12.58985 -0.8706,3.36858 -2.14329,6.9353 -3.31836,10.95312 -0.0288,-0.0917 -0.0589,-0.17458 -0.0879,-0.26367 -0.22638,-3.60543 -1.18334,-9.69298 -1.40235,-13.95312 -0.27295,-5.31005 1.24356,-6.10549 -0.008,-13.3711 -0.77449,-4.49678 -2.30078,-12.69407 -3.66992,-14.48438 -0.98654,-1.28999 -1.14573,-4.95034 -2.04492,-1.6289 -0.32685,1.20731 -0.83626,-1.81146 -1.40234,-4.97071 -0.33495,-3.25798 -0.79292,-6.999037 -0.875,-9.937497 -0.14984,-5.363863 1.68301,-6.298849 0.43164,-13.564451 -0.7745,-4.496792 -2.32373,-12.683458 -3.89649,-14.384766 -1.13326,-1.225874 -1.19927,-4.927284 -2.38086,-1.482421 -0.23112,0.673828 -0.48738,0.0898 -0.76172,-1.066407 0.35987,-1.461635 0.66248,-3.32893 0.84961,-6.041015 0.3913,-5.670973 0.97702,-16.102535 -0.0527,-19.226563 -0.74199,-2.251018 0.1032,-6.481424 -1.83008,-3.494141 -1.36831,2.114313 0.96363,-14.296898 -0.37695,-14.650389 -0.045,-0.01187 -0.0885,-0.01646 -0.13086,-0.01563 z m 91.90234,5.24414 c -0.0438,-0.0071 -0.0865,-3.33e-4 -0.12695,0.01953 -1.34359,0.659173 1.18904,10.480259 1.73047,16.625 0.46001,5.220694 -1.3164,6.226394 0.35351,13.24414 0.73485,3.088143 1.96729,7.966067 3.21875,11.09961 0.43453,3.502604 1.74569,9.38757 2.21094,13.529297 0.57986,5.161896 -0.88867,6.015457 0.78125,13.033201 1.03354,4.34339 3.03129,12.255017 4.50195,13.929687 1.05968,1.20668 1.42916,4.76622 2.13477,1.48242 0.25573,-1.19012 0.93813,1.70554 1.68359,4.74609 0.52353,3.16455 1.20237,6.79992 1.45508,9.66798 0.46001,5.2207 -1.31639,6.2264 0.35351,13.24414 1.03354,4.3434 3.05385,12.24482 4.72266,13.82227 1.20247,1.13663 1.48245,4.7409 2.46289,1.32226 0.69393,-2.41961 2.62695,10.93339 3.89649,10.31055 1.36467,-0.66952 -0.11131,-5.16828 -0.68946,-11.4707 -0.47468,-5.17452 0.24454,-11.51036 -1.39453,-18.39844 -1.74012,-7.31277 -2.71958,-3.02513 -4.65039,-7.60156 -1.53753,-3.64431 -3.56929,-11.82373 -5.05859,-15.72071 -0.0352,-0.27592 -0.0747,-0.53521 -0.10742,-0.81836 -0.5906,-5.11764 -0.21251,-11.287697 -1.85157,-18.175782 -1.74012,-7.31277 -2.41299,-3.174743 -4.21484,-7.814453 -0.86259,-2.221155 -1.93406,-6.056358 -2.95898,-9.630859 0.19924,-0.06898 0.41692,-0.461832 0.68945,-1.412109 0.69393,-2.419612 2.62695,10.933386 3.89648,10.310547 1.36469,-0.669521 -0.1113,-5.168274 -0.68945,-11.470704 -0.47469,-5.174506 0.24648,-11.510352 -1.39258,-18.398437 -1.74012,-7.312771 -2.72153,-3.025123 -4.65234,-7.601563 -2.03727,-4.82877 -4.94692,-17.654099 -6.30469,-17.873045 z m -51.31836,21.117187 c 10e-4,0.216889 -2e-5,0.437846 0,0.658203 -0.023,-0.131206 -0.0182,-0.370507 0,-0.658203 z m -78.87305,9.572266 c -0.0404,-0.0092 -0.0803,-0.0041 -0.12109,0.01367 -1.40229,0.612876 -0.19586,5.293062 0.008,11.769532 0.16723,5.317399 -0.92747,11.759264 0.30078,18.890625 1.30398,7.571048 2.53678,3.237108 4.19336,8.019528 1.31912,3.808207 2.86314,12.279357 4.11914,16.343747 0.0188,0.28422 0.0427,0.55226 0.0586,0.84375 0.28634,5.26535 -0.45677,11.55419 0.77149,18.68556 1.30397,7.57104 2.22203,3.37451 3.74609,8.21484 0.72955,2.31702 1.5714,6.29618 2.38281,10.00586 -0.20307,0.0599 -0.44488,0.45228 -0.77344,1.41016 -0.8363,2.43816 -1.97282,-11.3221 -3.27734,-10.75196 -1.40232,0.61288 -0.19586,5.29307 0.008,11.76953 0.16723,5.31741 -0.92747,11.75927 0.30078,18.89063 1.30398,7.57104 2.53678,3.23711 4.19336,8.01953 1.8043,5.20889 4.03198,19.18146 5.36328,18.59961 1.38062,-0.60341 -0.56583,-10.78245 -0.74218,-17.0957 -0.14984,-5.36387 1.68496,-6.29885 0.43359,-13.56446 -0.55043,-3.19587 -1.49338,-8.24658 -2.55664,-11.51757 -0.22574,-3.60474 -1.18518,-9.69471 -1.4043,-13.95704 -0.27296,-5.31004 1.24356,-6.10744 -0.008,-13.37304 -0.77449,-4.4968 -2.30273,-12.69408 -3.67187,-14.48439 -0.98654,-1.29 -1.14378,-4.95034 -2.04297,-1.6289 -0.32596,1.20404 -0.83615,-1.79347 -1.40039,-4.94336 C 35.8746,95.6616 35.41313,91.90889 35.33083,88.962603 35.18099,83.598739 37.01579,82.661799 35.76442,75.396197 34.98993,70.899405 33.4407,62.712739 31.86794,61.011431 30.73468,59.785557 30.66867,56.0861 29.48708,59.530963 28.67691,61.892944 27.5824,49.051807 26.32887,48.765338 Z m 78.97657,8.890625 c 0.008,0.12285 0.0109,0.241981 0.0195,0.365234 0.54184,7.77643 1.05384,3.326123 1.74218,8.238281 0.54562,3.89354 1.18253,12.500389 1.70313,16.697266 0.009,0.334727 0.0237,0.612347 0.0312,0.957031 0.11898,5.408178 -0.19007,11.868545 0.32031,19.193355 0.54184,7.77644 0.92335,3.46584 1.55664,8.43751 0.30316,2.37995 0.65306,6.46692 0.99024,10.27734 -0.084,0.0662 -0.1848,0.4707 -0.32031,1.44727 -0.3475,2.50431 -0.81927,-11.62858 -1.36133,-11.04297 -0.58294,0.6295 -0.0827,5.43573 0.002,12.08789 0.0386,3.03508 -0.0798,6.43758 -0.10938,10.10937 -1.12482,4.46959 -2.46161,5.22529 -3.24609,12.80078 -0.0693,0.66893 -0.14807,1.54423 -0.22461,2.33399 -0.0149,-0.11692 -0.0256,-0.23039 -0.041,-0.34766 -0.99103,-7.55217 -1.24524,-3.18674 -2.2168,-7.93945 -0.77035,-3.76837 -1.90529,-12.12881 -2.66797,-16.19141 -0.0284,-0.32459 -0.0585,-0.59343 -0.0859,-0.92773 -0.43176,-5.26548 -0.49817,-11.57783 -1.43164,-18.69142 -0.82529,-6.28915 -1.05966,-4.46858 -1.64453,-6.4453 0.0857,-0.89002 0.14426,-1.68894 0.17969,-2.41211 0.0262,0.0294 0.053,0.041 0.0762,0.0137 0.31534,-0.37213 0.1742,-2.19501 -0.0801,-4.82813 0.0509,-0.83499 0.0812,-1.52869 -0.14063,-1.45117 -0.11948,-1.215897 -0.23765,-2.498167 -0.35937,-3.972657 0.0504,-0.32396 0.0952,-0.62498 0.14648,-0.95508 0.75742,-3.660769 1.57808,-7.904705 2.41016,-11.091793 1.51791,-5.814038 3.03955,-5.852558 4.38672,-14.277344 0.10923,-0.683145 0.24148,-1.577564 0.36523,-2.384765 z M 97.42632,90.3083 c 0.0525,0.39074 0.10465,0.76606 0.1582,1.16016 -0.27523,0.51205 -0.28603,-0.0383 -0.1582,-1.16016 z m 10.11523,76.60548 c 0.0306,0.12201 0.0377,0.34343 0.0371,0.61523 -0.0133,-0.20276 -0.0249,-0.4093 -0.0371,-0.61523 z" /></g></svg>
