<?xml version="1.0" encoding="UTF-8" standalone="no"?>
<!-- Created with Inkscape (http://www.inkscape.org/) -->

<svg
   width="200"
   height="200"
   viewBox="0 0 200 200"
   version="1.1"
   id="svg5"
   xml:space="preserve"
   inkscape:version="1.2 (dc2aedaf03, 2022-05-15)"
   sodipodi:docname="pizza abacaxi com leite ninho, abacaxi, leite ninho, leite condensado..svg"
   inkscape:export-filename="pizza americana musarela, escarolo, tomate, oregano.png"
   inkscape:export-xdpi="96"
   inkscape:export-ydpi="96"
   xmlns:inkscape="http://www.inkscape.org/namespaces/inkscape"
   xmlns:sodipodi="http://sodipodi.sourceforge.net/DTD/sodipodi-0.dtd"
   xmlns="http://www.w3.org/2000/svg"
   xmlns:svg="http://www.w3.org/2000/svg"><sodipodi:namedview
     id="namedview7"
     pagecolor="#ffffff"
     bordercolor="#000000"
     borderopacity="0.25"
     inkscape:showpageshadow="2"
     inkscape:pageopacity="0.0"
     inkscape:pagecheckerboard="0"
     inkscape:deskcolor="#d1d1d1"
     inkscape:document-units="mm"
     showgrid="false"
     inkscape:zoom="2"
     inkscape:cx="150"
     inkscape:cy="170.5"
     inkscape:window-width="1280"
     inkscape:window-height="737"
     inkscape:window-x="-8"
     inkscape:window-y="-8"
     inkscape:window-maximized="1"
     inkscape:current-layer="layer1"
     showguides="false" /><defs
     id="defs2"><inkscape:perspective
       sodipodi:type="inkscape:persp3d"
       inkscape:vp_x="0 : 100 : 1"
       inkscape:vp_y="0 : 1000 : 0"
       inkscape:vp_z="200 : 100 : 1"
       inkscape:persp3d-origin="100 : 66.666667 : 1"
       id="perspective13226" /></defs><g
     inkscape:label="Camada 1"
     inkscape:groupmode="layer"
     id="layer1"><g
       id="g9810"
       sodipodi:insensitive="true"><circle
         style="fill:#e39a62;fill-opacity:0.94902;stroke:none"
         id="path90"
         cx="100"
         cy="100"
         r="100" /><circle
         style="fill:#f8d598;fill-opacity:1;stroke:none;stroke-width:0.972489"
         id="path90-2"
         cx="100.00042"
         cy="100.00042"
         r="97.248924" /></g><g
       id="g20711-6-4"
       transform="rotate(42.022618,-45.016242,90.555627)" /><g
       id="g55631-8-1"
       style="stroke:none"
       transform="matrix(0.09819488,0,0,0.09819488,157.49223,-5.5986749)"><path
         id="rect55103-1-1"
         style="opacity:0.99;fill:#fcfc00;fill-opacity:1;stroke:none"
         d="m -1279,391 48.3284,-17.07014 50.3316,-32.89235 c 26.6217,-10.72543 18.3389,-52.86491 92.3652,-20.92614 L -1061,314 l 88,477 -443,-177 c 8.9852,-14.62556 26.6875,-49.17791 30.3448,-67.13346 5.8669,-28.80444 7.1912,-33.07303 25.8532,-43.13052 0.2061,-26.40132 4.6872,-52.57765 54.7272,-76.35614 z"
         sodipodi:nodetypes="cccccccsccc" /><path
         id="rect55093-3-9"
         style="opacity:0.99;fill:#ffff75;fill-opacity:1;stroke:none"
         d="m -1149,331 -30,47 138,261 -77,-282 z m 65.8691,17.57227 c -5.4041,1.08865 -7.679,19.79122 -3.8691,61.42773 l 50,142 -20,-147 c -9.862,-36.2712 -20.0061,-57.66154 -26.1309,-56.42773 z m -185.082,88.46289 C -1281.041,436.92264 -1280.1417,448.48337 -1253,471 l 178,173 -158,-194 c -14.8774,-8.62782 -27.516,-12.89733 -35.2129,-12.96484 z M -1300,477 l -24,15 c 0,0 202.7487,173.77898 226,198 13.3207,13.87625 21.915,-12.49694 15,-18.95898 C -1136.0311,621.48359 -1286,494 -1286,494 Z m -20.9121,71.57422 134.4267,150.16398 L -1143,712 Z m -40.4766,28.83203 c -12.9651,-0.22416 -20.4167,8.51201 -10.834,30.33008 l 124.2051,45.25586 1.9785,-7.30469 -100.9726,-65.22266 c -5.1206,-1.91337 -10.0553,-2.98387 -14.377,-3.05859 z"
         sodipodi:nodetypes="cccccscccsscccsccssccccccsccccs" /></g><g
       id="g55631-8-1-9"
       style="stroke:none"
       transform="matrix(0.08382499,0.05114299,-0.05114299,0.08382499,201.48248,43.591498)"><path
         id="rect55103-1-1-1"
         style="opacity:0.99;fill:#fcfc00;fill-opacity:1;stroke:none"
         d="m -1279,391 48.3284,-17.07014 50.3316,-32.89235 c 26.6217,-10.72543 18.3389,-52.86491 92.3652,-20.92614 L -1061,314 l 88,477 -443,-177 c 8.9852,-14.62556 26.6875,-49.17791 30.3448,-67.13346 5.8669,-28.80444 7.1912,-33.07303 25.8532,-43.13052 0.2061,-26.40132 4.6872,-52.57765 54.7272,-76.35614 z"
         sodipodi:nodetypes="cccccccsccc" /><path
         id="rect55093-3-9-3"
         style="opacity:0.99;fill:#ffff75;fill-opacity:1;stroke:none"
         d="m -1149,331 -30,47 138,261 -77,-282 z m 65.8691,17.57227 c -5.4041,1.08865 -7.679,19.79122 -3.8691,61.42773 l 50,142 -20,-147 c -9.862,-36.2712 -20.0061,-57.66154 -26.1309,-56.42773 z m -185.082,88.46289 C -1281.041,436.92264 -1280.1417,448.48337 -1253,471 l 178,173 -158,-194 c -14.8774,-8.62782 -27.516,-12.89733 -35.2129,-12.96484 z M -1300,477 l -24,15 c 0,0 202.7487,173.77898 226,198 13.3207,13.87625 21.915,-12.49694 15,-18.95898 C -1136.0311,621.48359 -1286,494 -1286,494 Z m -20.9121,71.57422 134.4267,150.16398 L -1143,712 Z m -40.4766,28.83203 c -12.9651,-0.22416 -20.4167,8.51201 -10.834,30.33008 l 124.2051,45.25586 1.9785,-7.30469 -100.9726,-65.22266 c -5.1206,-1.91337 -10.0553,-2.98387 -14.377,-3.05859 z"
         sodipodi:nodetypes="cccccscccsscccsccssccccccsccccs" /></g><g
       id="g55631-8-1-98-7"
       style="stroke:none"
       transform="matrix(0.06401318,0.07446172,-0.07446172,0.06401318,229.84128,171.26106)"><path
         id="rect55103-1-1-3-329"
         style="opacity:0.99;fill:#fcfc00;fill-opacity:1;stroke:none"
         d="m -1279,391 48.3284,-17.07014 50.3316,-32.89235 c 26.6217,-10.72543 18.3389,-52.86491 92.3652,-20.92614 L -1061,314 l 88,477 -443,-177 c 8.9852,-14.62556 26.6875,-49.17791 30.3448,-67.13346 5.8669,-28.80444 7.1912,-33.07303 25.8532,-43.13052 0.2061,-26.40132 4.6872,-52.57765 54.7272,-76.35614 z"
         sodipodi:nodetypes="cccccccsccc" /><path
         id="rect55093-3-9-6-6"
         style="opacity:0.99;fill:#ffff75;fill-opacity:1;stroke:none"
         d="m -1149,331 -30,47 138,261 -77,-282 z m 65.8691,17.57227 c -5.4041,1.08865 -7.679,19.79122 -3.8691,61.42773 l 50,142 -20,-147 c -9.862,-36.2712 -20.0061,-57.66154 -26.1309,-56.42773 z m -185.082,88.46289 C -1281.041,436.92264 -1280.1417,448.48337 -1253,471 l 178,173 -158,-194 c -14.8774,-8.62782 -27.516,-12.89733 -35.2129,-12.96484 z M -1300,477 l -24,15 c 0,0 202.7487,173.77898 226,198 13.3207,13.87625 21.915,-12.49694 15,-18.95898 C -1136.0311,621.48359 -1286,494 -1286,494 Z m -20.9121,71.57422 134.4267,150.16398 L -1143,712 Z m -40.4766,28.83203 c -12.9651,-0.22416 -20.4167,8.51201 -10.834,30.33008 l 124.2051,45.25586 1.9785,-7.30469 -100.9726,-65.22266 c -5.1206,-1.91337 -10.0553,-2.98387 -14.377,-3.05859 z"
         sodipodi:nodetypes="cccccscccsscccsccssccccccsccccs" /></g><g
       id="g55631-8-1-98-9"
       style="stroke:none"
       transform="matrix(0.06401318,0.07446172,-0.07446172,0.06401318,189.19305,162.65446)"><path
         id="rect55103-1-1-3-37"
         style="opacity:0.99;fill:#fcfc00;fill-opacity:1;stroke:none"
         d="m -1279,391 48.3284,-17.07014 50.3316,-32.89235 c 26.6217,-10.72543 18.3389,-52.86491 92.3652,-20.92614 L -1061,314 l 88,477 -443,-177 c 8.9852,-14.62556 26.6875,-49.17791 30.3448,-67.13346 5.8669,-28.80444 7.1912,-33.07303 25.8532,-43.13052 0.2061,-26.40132 4.6872,-52.57765 54.7272,-76.35614 z"
         sodipodi:nodetypes="cccccccsccc" /><path
         id="rect55093-3-9-6-00"
         style="opacity:0.99;fill:#ffff75;fill-opacity:1;stroke:none"
         d="m -1149,331 -30,47 138,261 -77,-282 z m 65.8691,17.57227 c -5.4041,1.08865 -7.679,19.79122 -3.8691,61.42773 l 50,142 -20,-147 c -9.862,-36.2712 -20.0061,-57.66154 -26.1309,-56.42773 z m -185.082,88.46289 C -1281.041,436.92264 -1280.1417,448.48337 -1253,471 l 178,173 -158,-194 c -14.8774,-8.62782 -27.516,-12.89733 -35.2129,-12.96484 z M -1300,477 l -24,15 c 0,0 202.7487,173.77898 226,198 13.3207,13.87625 21.915,-12.49694 15,-18.95898 C -1136.0311,621.48359 -1286,494 -1286,494 Z m -20.9121,71.57422 134.4267,150.16398 L -1143,712 Z m -40.4766,28.83203 c -12.9651,-0.22416 -20.4167,8.51201 -10.834,30.33008 l 124.2051,45.25586 1.9785,-7.30469 -100.9726,-65.22266 c -5.1206,-1.91337 -10.0553,-2.98387 -14.377,-3.05859 z"
         sodipodi:nodetypes="cccccscccsscccsccssccccccsccccs" /></g><g
       id="g55631-8-1-98-3"
       style="stroke:none"
       transform="matrix(0.00240601,0.0981654,-0.0981654,0.00240601,206.9314,152.11545)"><path
         id="rect55103-1-1-3-5"
         style="opacity:0.99;fill:#fcfc00;fill-opacity:1;stroke:none"
         d="m -1279,391 48.3284,-17.07014 50.3316,-32.89235 c 26.6217,-10.72543 18.3389,-52.86491 92.3652,-20.92614 L -1061,314 l 88,477 -443,-177 c 8.9852,-14.62556 26.6875,-49.17791 30.3448,-67.13346 5.8669,-28.80444 7.1912,-33.07303 25.8532,-43.13052 0.2061,-26.40132 4.6872,-52.57765 54.7272,-76.35614 z"
         sodipodi:nodetypes="cccccccsccc" /><path
         id="rect55093-3-9-6-9"
         style="opacity:0.99;fill:#ffff75;fill-opacity:1;stroke:none"
         d="m -1149,331 -30,47 138,261 -77,-282 z m 65.8691,17.57227 c -5.4041,1.08865 -7.679,19.79122 -3.8691,61.42773 l 50,142 -20,-147 c -9.862,-36.2712 -20.0061,-57.66154 -26.1309,-56.42773 z m -185.082,88.46289 C -1281.041,436.92264 -1280.1417,448.48337 -1253,471 l 178,173 -158,-194 c -14.8774,-8.62782 -27.516,-12.89733 -35.2129,-12.96484 z M -1300,477 l -24,15 c 0,0 202.7487,173.77898 226,198 13.3207,13.87625 21.915,-12.49694 15,-18.95898 C -1136.0311,621.48359 -1286,494 -1286,494 Z m -20.9121,71.57422 134.4267,150.16398 L -1143,712 Z m -40.4766,28.83203 c -12.9651,-0.22416 -20.4167,8.51201 -10.834,30.33008 l 124.2051,45.25586 1.9785,-7.30469 -100.9726,-65.22266 c -5.1206,-1.91337 -10.0553,-2.98387 -14.377,-3.05859 z"
         sodipodi:nodetypes="cccccscccsscccsccssccccccsccccs" /></g><g
       id="g55631-8-1-8"
       style="stroke:none"
       transform="matrix(-0.09818058,0.00167561,-0.00167561,-0.09818058,47.358987,204.9209)"><path
         id="rect55103-1-1-5"
         style="opacity:0.99;fill:#fcfc00;fill-opacity:1;stroke:none"
         d="m -1279,391 48.3284,-17.07014 50.3316,-32.89235 c 26.6217,-10.72543 18.3389,-52.86491 92.3652,-20.92614 L -1061,314 l 88,477 -443,-177 c 8.9852,-14.62556 26.6875,-49.17791 30.3448,-67.13346 5.8669,-28.80444 7.1912,-33.07303 25.8532,-43.13052 0.2061,-26.40132 4.6872,-52.57765 54.7272,-76.35614 z"
         sodipodi:nodetypes="cccccccsccc" /><path
         id="rect55093-3-9-5"
         style="opacity:0.99;fill:#ffff75;fill-opacity:1;stroke:none"
         d="m -1149,331 -30,47 138,261 -77,-282 z m 65.8691,17.57227 c -5.4041,1.08865 -7.679,19.79122 -3.8691,61.42773 l 50,142 -20,-147 c -9.862,-36.2712 -20.0061,-57.66154 -26.1309,-56.42773 z m -185.082,88.46289 C -1281.041,436.92264 -1280.1417,448.48337 -1253,471 l 178,173 -158,-194 c -14.8774,-8.62782 -27.516,-12.89733 -35.2129,-12.96484 z M -1300,477 l -24,15 c 0,0 202.7487,173.77898 226,198 13.3207,13.87625 21.915,-12.49694 15,-18.95898 C -1136.0311,621.48359 -1286,494 -1286,494 Z m -20.9121,71.57422 134.4267,150.16398 L -1143,712 Z m -40.4766,28.83203 c -12.9651,-0.22416 -20.4167,8.51201 -10.834,30.33008 l 124.2051,45.25586 1.9785,-7.30469 -100.9726,-65.22266 c -5.1206,-1.91337 -10.0553,-2.98387 -14.377,-3.05859 z"
         sodipodi:nodetypes="cccccscccsscccsccssccccccsccccs" /></g><g
       id="g55631-8-1-98-1"
       style="stroke:none"
       transform="matrix(-0.06527449,-0.07335855,0.07335855,-0.06527449,-27.482316,123.90849)"><path
         id="rect55103-1-1-3-3"
         style="opacity:0.99;fill:#fcfc00;fill-opacity:1;stroke:none"
         d="m -1279,391 48.3284,-17.07014 50.3316,-32.89235 c 26.6217,-10.72543 18.3389,-52.86491 92.3652,-20.92614 L -1061,314 l 88,477 -443,-177 c 8.9852,-14.62556 26.6875,-49.17791 30.3448,-67.13346 5.8669,-28.80444 7.1912,-33.07303 25.8532,-43.13052 0.2061,-26.40132 4.6872,-52.57765 54.7272,-76.35614 z"
         sodipodi:nodetypes="cccccccsccc" /><path
         id="rect55093-3-9-6-2"
         style="opacity:0.99;fill:#ffff75;fill-opacity:1;stroke:none"
         d="m -1149,331 -30,47 138,261 -77,-282 z m 65.8691,17.57227 c -5.4041,1.08865 -7.679,19.79122 -3.8691,61.42773 l 50,142 -20,-147 c -9.862,-36.2712 -20.0061,-57.66154 -26.1309,-56.42773 z m -185.082,88.46289 C -1281.041,436.92264 -1280.1417,448.48337 -1253,471 l 178,173 -158,-194 c -14.8774,-8.62782 -27.516,-12.89733 -35.2129,-12.96484 z M -1300,477 l -24,15 c 0,0 202.7487,173.77898 226,198 13.3207,13.87625 21.915,-12.49694 15,-18.95898 C -1136.0311,621.48359 -1286,494 -1286,494 Z m -20.9121,71.57422 134.4267,150.16398 L -1143,712 Z m -40.4766,28.83203 c -12.9651,-0.22416 -20.4167,8.51201 -10.834,30.33008 l 124.2051,45.25586 1.9785,-7.30469 -100.9726,-65.22266 c -5.1206,-1.91337 -10.0553,-2.98387 -14.377,-3.05859 z"
         sodipodi:nodetypes="cccccscccsscccsccssccccccsccccs" /></g><g
       id="g55631-8-1-98-1-0"
       style="stroke:none"
       transform="matrix(-0.06527449,-0.07335855,0.07335855,-0.06527449,9.4938572,30.915778)"><path
         id="rect55103-1-1-3-3-0"
         style="opacity:0.99;fill:#fcfc00;fill-opacity:1;stroke:none"
         d="m -1279,391 48.3284,-17.07014 50.3316,-32.89235 c 26.6217,-10.72543 18.3389,-52.86491 92.3652,-20.92614 L -1061,314 l 88,477 -443,-177 c 8.9852,-14.62556 26.6875,-49.17791 30.3448,-67.13346 5.8669,-28.80444 7.1912,-33.07303 25.8532,-43.13052 0.2061,-26.40132 4.6872,-52.57765 54.7272,-76.35614 z"
         sodipodi:nodetypes="cccccccsccc" /><path
         id="rect55093-3-9-6-2-2"
         style="opacity:0.99;fill:#ffff75;fill-opacity:1;stroke:none"
         d="m -1149,331 -30,47 138,261 -77,-282 z m 65.8691,17.57227 c -5.4041,1.08865 -7.679,19.79122 -3.8691,61.42773 l 50,142 -20,-147 c -9.862,-36.2712 -20.0061,-57.66154 -26.1309,-56.42773 z m -185.082,88.46289 C -1281.041,436.92264 -1280.1417,448.48337 -1253,471 l 178,173 -158,-194 c -14.8774,-8.62782 -27.516,-12.89733 -35.2129,-12.96484 z M -1300,477 l -24,15 c 0,0 202.7487,173.77898 226,198 13.3207,13.87625 21.915,-12.49694 15,-18.95898 C -1136.0311,621.48359 -1286,494 -1286,494 Z m -20.9121,71.57422 134.4267,150.16398 L -1143,712 Z m -40.4766,28.83203 c -12.9651,-0.22416 -20.4167,8.51201 -10.834,30.33008 l 124.2051,45.25586 1.9785,-7.30469 -100.9726,-65.22266 c -5.1206,-1.91337 -10.0553,-2.98387 -14.377,-3.05859 z"
         sodipodi:nodetypes="cccccscccsscccsccssccccccsccccs" /></g><g
       id="g55631-8-1-98-1-3"
       style="stroke:none"
       transform="matrix(-0.06527449,-0.07335855,0.07335855,-0.06527449,-29.618846,26.087349)"><path
         id="rect55103-1-1-3-3-3"
         style="opacity:0.99;fill:#fcfc00;fill-opacity:1;stroke:none"
         d="m -1279,391 48.3284,-17.07014 50.3316,-32.89235 c 26.6217,-10.72543 18.3389,-52.86491 92.3652,-20.92614 L -1061,314 l 88,477 -443,-177 c 8.9852,-14.62556 26.6875,-49.17791 30.3448,-67.13346 5.8669,-28.80444 7.1912,-33.07303 25.8532,-43.13052 0.2061,-26.40132 4.6872,-52.57765 54.7272,-76.35614 z"
         sodipodi:nodetypes="cccccccsccc" /><path
         id="rect55093-3-9-6-2-9"
         style="opacity:0.99;fill:#ffff75;fill-opacity:1;stroke:none"
         d="m -1149,331 -30,47 138,261 -77,-282 z m 65.8691,17.57227 c -5.4041,1.08865 -7.679,19.79122 -3.8691,61.42773 l 50,142 -20,-147 c -9.862,-36.2712 -20.0061,-57.66154 -26.1309,-56.42773 z m -185.082,88.46289 C -1281.041,436.92264 -1280.1417,448.48337 -1253,471 l 178,173 -158,-194 c -14.8774,-8.62782 -27.516,-12.89733 -35.2129,-12.96484 z M -1300,477 l -24,15 c 0,0 202.7487,173.77898 226,198 13.3207,13.87625 21.915,-12.49694 15,-18.95898 C -1136.0311,621.48359 -1286,494 -1286,494 Z m -20.9121,71.57422 134.4267,150.16398 L -1143,712 Z m -40.4766,28.83203 c -12.9651,-0.22416 -20.4167,8.51201 -10.834,30.33008 l 124.2051,45.25586 1.9785,-7.30469 -100.9726,-65.22266 c -5.1206,-1.91337 -10.0553,-2.98387 -14.377,-3.05859 z"
         sodipodi:nodetypes="cccccscccsscccsccssccccccsccccs" /></g><g
       id="g55631-8-1-98-3-2"
       style="stroke:none"
       transform="matrix(-0.00408077,-0.09811005,0.09811005,-0.00408077,-4.7642398,48.073381)"><path
         id="rect55103-1-1-3-5-6"
         style="opacity:0.99;fill:#fcfc00;fill-opacity:1;stroke:none"
         d="m -1279,391 48.3284,-17.07014 50.3316,-32.89235 c 26.6217,-10.72543 18.3389,-52.86491 92.3652,-20.92614 L -1061,314 l 88,477 -443,-177 c 8.9852,-14.62556 26.6875,-49.17791 30.3448,-67.13346 5.8669,-28.80444 7.1912,-33.07303 25.8532,-43.13052 0.2061,-26.40132 4.6872,-52.57765 54.7272,-76.35614 z"
         sodipodi:nodetypes="cccccccsccc" /><path
         id="rect55093-3-9-6-9-5"
         style="opacity:0.99;fill:#ffff75;fill-opacity:1;stroke:none"
         d="m -1149,331 -30,47 138,261 -77,-282 z m 65.8691,17.57227 c -5.4041,1.08865 -7.679,19.79122 -3.8691,61.42773 l 50,142 -20,-147 c -9.862,-36.2712 -20.0061,-57.66154 -26.1309,-56.42773 z m -185.082,88.46289 C -1281.041,436.92264 -1280.1417,448.48337 -1253,471 l 178,173 -158,-194 c -14.8774,-8.62782 -27.516,-12.89733 -35.2129,-12.96484 z M -1300,477 l -24,15 c 0,0 202.7487,173.77898 226,198 13.3207,13.87625 21.915,-12.49694 15,-18.95898 C -1136.0311,621.48359 -1286,494 -1286,494 Z m -20.9121,71.57422 134.4267,150.16398 L -1143,712 Z m -40.4766,28.83203 c -12.9651,-0.22416 -20.4167,8.51201 -10.834,30.33008 l 124.2051,45.25586 1.9785,-7.30469 -100.9726,-65.22266 c -5.1206,-1.91337 -10.0553,-2.98387 -14.377,-3.05859 z"
         sodipodi:nodetypes="cccccscccsscccsccssccccccsccccs" /></g><g
       id="g55631-8-1-98-5"
       style="stroke:none"
       transform="matrix(-0.0692477,0.06962033,-0.06962033,-0.0692477,136.1108,236.57017)"><path
         id="rect55103-1-1-3-32"
         style="opacity:0.99;fill:#fcfc00;fill-opacity:1;stroke:none"
         d="m -1279,391 48.3284,-17.07014 50.3316,-32.89235 c 26.6217,-10.72543 18.3389,-52.86491 92.3652,-20.92614 L -1061,314 l 88,477 -443,-177 c 8.9852,-14.62556 26.6875,-49.17791 30.3448,-67.13346 5.8669,-28.80444 7.1912,-33.07303 25.8532,-43.13052 0.2061,-26.40132 4.6872,-52.57765 54.7272,-76.35614 z"
         sodipodi:nodetypes="cccccccsccc" /><path
         id="rect55093-3-9-6-0"
         style="opacity:0.99;fill:#ffff75;fill-opacity:1;stroke:none"
         d="m -1149,331 -30,47 138,261 -77,-282 z m 65.8691,17.57227 c -5.4041,1.08865 -7.679,19.79122 -3.8691,61.42773 l 50,142 -20,-147 c -9.862,-36.2712 -20.0061,-57.66154 -26.1309,-56.42773 z m -185.082,88.46289 C -1281.041,436.92264 -1280.1417,448.48337 -1253,471 l 178,173 -158,-194 c -14.8774,-8.62782 -27.516,-12.89733 -35.2129,-12.96484 z M -1300,477 l -24,15 c 0,0 202.7487,173.77898 226,198 13.3207,13.87625 21.915,-12.49694 15,-18.95898 C -1136.0311,621.48359 -1286,494 -1286,494 Z m -20.9121,71.57422 134.4267,150.16398 L -1143,712 Z m -40.4766,28.83203 c -12.9651,-0.22416 -20.4167,8.51201 -10.834,30.33008 l 124.2051,45.25586 1.9785,-7.30469 -100.9726,-65.22266 c -5.1206,-1.91337 -10.0553,-2.98387 -14.377,-3.05859 z"
         sodipodi:nodetypes="cccccscccsscccsccssccccccsccccs" /></g><g
       id="g55631-8-1-98-5-6"
       style="stroke:none"
       transform="matrix(0.06686407,-0.07191266,0.07191266,0.06686407,62.577577,-36.278563)"><path
         id="rect55103-1-1-3-32-6"
         style="opacity:0.99;fill:#fcfc00;fill-opacity:1;stroke:none"
         d="m -1279,391 48.3284,-17.07014 50.3316,-32.89235 c 26.6217,-10.72543 18.3389,-52.86491 92.3652,-20.92614 L -1061,314 l 88,477 -443,-177 c 8.9852,-14.62556 26.6875,-49.17791 30.3448,-67.13346 5.8669,-28.80444 7.1912,-33.07303 25.8532,-43.13052 0.2061,-26.40132 4.6872,-52.57765 54.7272,-76.35614 z"
         sodipodi:nodetypes="cccccccsccc" /><path
         id="rect55093-3-9-6-0-2"
         style="opacity:0.99;fill:#ffff75;fill-opacity:1;stroke:none"
         d="m -1149,331 -30,47 138,261 -77,-282 z m 65.8691,17.57227 c -5.4041,1.08865 -7.679,19.79122 -3.8691,61.42773 l 50,142 -20,-147 c -9.862,-36.2712 -20.0061,-57.66154 -26.1309,-56.42773 z m -185.082,88.46289 C -1281.041,436.92264 -1280.1417,448.48337 -1253,471 l 178,173 -158,-194 c -14.8774,-8.62782 -27.516,-12.89733 -35.2129,-12.96484 z M -1300,477 l -24,15 c 0,0 202.7487,173.77898 226,198 13.3207,13.87625 21.915,-12.49694 15,-18.95898 C -1136.0311,621.48359 -1286,494 -1286,494 Z m -20.9121,71.57422 134.4267,150.16398 L -1143,712 Z m -40.4766,28.83203 c -12.9651,-0.22416 -20.4167,8.51201 -10.834,30.33008 l 124.2051,45.25586 1.9785,-7.30469 -100.9726,-65.22266 c -5.1206,-1.91337 -10.0553,-2.98387 -14.377,-3.05859 z"
         sodipodi:nodetypes="cccccscccsscccsccssccccccsccccs" /></g><path
       id="rect25784-81-5"
       style="fill:#ffffff;stroke:#ffffff"
       d="m 110.50779,0.97706637 -1.64258,3.90820003 0.95703,4.3574195 3.20703,-3.5663995 z m -12.732423,1.92773003 -3.76954,1.93555 -2.06836,3.9531305 4.74805,-0.66993 z m 9.013673,0.0137 -3.76953,1.93555 -2.01953,3.8593705 -1.306643,-1.08007 -0.33203,4.7851501 4.878903,2.150389 -1.10937,-4.091789 -2.04297,-1.6894611 4.61133,-0.650389 z m -30.421883,3.92774 2.00196,3.7363306 3.98633,2 -0.75,-4.7363301 z m 9.01368,0.0117 2.00195,3.7382806 3.98632,2 -0.75,-4.7363301 z m 37.792973,6.5566396 -4.3711,0.88281 3.50977,3.26563 4.74023,-2.44141 z m 26.23828,0.88086 -1.64063,3.9082 0.95703,4.35742 3.20703,-3.5664 z m -50.427743,1.24414 -4.27345,1.27929 3.79494,2.93165 4.498043,-2.863289 z m 9.015633,0.0137 -4.27344,1.27929 3.79492,2.93165 4.49609,-2.863289 z m 28.68164,0.66992 -3.76953,1.93555 -2.07032,3.95312 4.75,-0.66992 z m 9.01367,0.0137 -3.76953,1.93555 -2.01953,3.86132 -1.30664,-1.08203 -0.33204,4.785161 4.87891,2.15039 -1.11133,-4.0918 -2.04101,-1.68945 4.61133,-0.65039 z m -66.597663,2.322261 -4.37304,0.87696 3.50781,3.27148 4.74219,-2.43554 z m 9.01562,0.0137 -4.37499,0.87696 3.50781,3.27148 4.74413,-2.43554 z m 27.160163,1.589849 1.6836,3.14648 -2.64063,-1.80078 0.11328,4.794921 5.0586,1.6875 -1.37305,-3.66797 3.14649,1.57813 -0.75,-4.73633 z m 9.01368,0.0137 2.00195,3.73828 3.98633,2 -0.75,-4.73633 z m -19.66993,0.5918 -2.73437,3.93945 3.0918,4.3457 1.13867,-4.08398 z m -37.382813,2.45507 -1.64258,3.90625 0.95899,4.35743 3.20508,-3.56641 z m 20.79297,0.66211 1.33788,4.60547 5.32031,0.33789 -2.45312,-3.45703 z m 9.01367,0.0137 1.33789,4.60547 5.320323,0.33789 -2.45313,-3.45703 z m -42.53711,1.25 -3.77148,1.93555 -2.06836,3.95312 4.75,-0.66992 z m 9.01367,0.0137 -3.77148,1.93555 -2.01953,3.85937 -1.30469,-1.08007 -0.33203,4.78515 4.87891,2.15039 -1.11133,-4.08984 -2.04102,-1.69141 4.61133,-0.65039 z m 98.562503,1.57032 -4.37304,0.88281 3.51172,3.26562 4.74023,-2.4414 z m -24.18945,2.125 -4.27344,1.27929 3.79493,2.93164 4.49804,-2.86328 z m 9.01367,0.0137 -4.27343,1.27929 3.79687,2.93164 4.4961,-2.86328 z m -113.808593,0.21875 2,3.73632 3.98633,2 -0.75,-4.73632 z m 9.01367,0.0137 2,3.73632 3.98633,2 -0.75,-4.73632 z m 50.58398,1.00195 -1.39844,4.00195 1.2207,4.28906 2.98242,-3.75586 z m -14.55078,0.12695 1.22657,4.05664 3.32617,2.59766 -2.79297,-1.22852 -4.37305,0.88281 3.51172,3.26563 4.74024,-2.44141 -0.89453,-0.39257 0.19335,-4.73047 z m 15.80859,0.16602 2.22657,3.60742 4.101563,1.7539 -1.039063,-4.68359 z m 8.994153,0.59375 2.22656,3.60742 4.10156,1.75195 -1.03906,-4.68164 z m 62.85937,0.40234 -1.64062,3.9082 0.95703,4.35743 3.20508,-3.56836 z m -47.80078,0.48242 -4.37304,0.87695 3.50781,3.27149 4.74219,-2.43555 z m 9.01563,0.0137 -4.375,0.87696 3.50781,3.27148 4.74219,-2.43555 z m 26.05469,1.43164 -3.77149,1.93555 -2.06836,3.95117 4.75,-0.66797 z m 9.01367,0.0137 -3.76953,1.93554 -1.27344,2.43164 -0.13672,-0.365229 -3.68555,-2.51172 0.11328,4.79297 1.51172,0.50586 -0.1875,2.71094 4.87891,2.148429 -1.11133,-4.08984 -0.27539,-0.22852 -0.60742,-1.625 3.45312,-0.48632 z m -18.56446,0.75 -2.2871,3.29492 -0.55665,-0.10547 0.27344,0.51172 -0.16406,0.23828 1.17969,1.6582 0.71093,1.32813 0.36329,0.18359 0.83789,1.175781 0.18554,-0.66406 2.60157,1.30664 -0.75196,-4.73828 -0.96679,-0.183591 z m -16.58984,3.11718 1.33789,4.60547 5.32031,0.33594 -2.45312,-3.45508 z m 9.01367,0.0137 0.26563,0.91406 -4.54688,-0.86914 2,3.73633 3.98633,2.00195 -0.18555,-1.16602 5.13868,0.32422 -2.45313,-3.45508 z m -25.96875,0.34765 -4.89062,2.125 3.75781,1.95899 4.42187,-0.59375 z m -54.265623,0.21875 -4.27344,1.2793 3.79492,2.93359 4.49805,-2.86523 z m 9.01367,0.0137 -4.27344,1.2793 3.79492,2.93359 4.49805,-2.86523 z m 54.246093,0.36133 -4.89062,2.125 3.75781,1.95899 4.42188,-0.59375 z m -29.417983,1.05274 -4.67186,2.56836 3.92382,1.60351 4.34765,-1.00195 z m 8.99416,0.59375 -4.67189,2.56836 3.92384,1.60156 4.347653,-1 z m -23.89844,0.65039 -4.88672,2.13281 3.76172,1.95312 4.41992,-0.59961 z m -38.82422,0.34765 -4.37305,0.87696 3.50586,3.27148 4.74414,-2.43555 z m 9.01367,0.0137 -4.37305,0.87696 3.50586,3.27148 4.74414,-2.43554 z m 16.50586,2.195321 -2.73437,3.93945 3.08984,4.3457 1.13867,-4.083981 z m 70.253913,0.412109 -1.39844,4.001951 0.64453,2.263669 -0.82227,0.16406 1.1836,1.103521 0.21484,0.757809 0.25391,-0.320309 1.24609,1.164059 -1.19531,2.84766 -3.26563,-2.87695 -4.67187,2.56836 1.91797,0.7832 -0.0508,0.0273 -2.02149,3.85938 -1.30469,-1.08008 -0.33203,4.7832 1.98829,0.87696 -1.92774,1.88671 0.27344,0.59766 -0.71094,-0.23828 -4.27344,1.27734 3.79492,2.9336 2.32618,-1.48243 0.80468,1.76172 1.88868,-3.79297 -0.32618,-2.1289 1.04102,0.45898 -1.11133,-4.08984 -2.04297,-1.69141 4.61328,-0.64844 0.57813,-2.76757 2.64062,-0.60743 -0.0527,0.12305 0.50586,2.30274 -0.60742,-0.31641 0.8457,4.15234 1.92969,1.81836 -4.64649,0.35352 -0.81054,2.92969 -2.35742,0.70507 1.78124,1.37696 -0.0351,0.125 0.12695,-0.0547 1.92188,1.48633 4.49804,-2.86524 -2.33984,-0.7832 1.94336,-3.19531 0.26367,0.24805 0.14649,0.48437 3.20312,2.5 -0.76953,2.77344 3.88672,-1.68946 1.30469,-2.14453 2.65625,2.47071 2.44921,-1.26172 0.41602,1.45898 1.63086,-2.05469 0.2793,0.0723 -0.12305,-0.26953 1.19531,-1.50391 -2.80469,-4.53515 -0.71679,2.04492 -3.15821,-1.84766 0.375,4.01172 -1.52734,0.30859 0.3418,-0.56054 -4.78125,0.36133 -0.27539,0.99609 0.1289,-3.17773 -2.42187,-0.98438 0.17383,-1.29102 -2.55664,-1.33007 2,-2.22461 1.13281,0.46289 4.34765,-1 -3.59961,-3.17188 -2.87695,1.58203 -0.89062,-1.6582 4.58593,-2.35547 -3.87695,-1.71289 -0.95117,0.19141 0.95898,-1.20899 z m -14.55078,0.126951 1.22656,4.05664 3.51562,2.74609 0.19532,-4.79296 z m 15.80859,0.16602 2.22461,3.60742 4.10351,1.75195 -1.03906,-4.68164 z m -61.812503,0.0352 0.11328,4.79492 5.05664,1.6875 -1.48633,-3.96875 z m 107.427723,0.0781 -4.37305,0.88281 3.51172,3.26758 4.74023,-2.44141 z m -36.62108,0.48047 2.22656,3.60742 4.10156,1.75195 -1.03906,-4.681641 z m -49.357433,0.29687 0.8457,4.15234 1.92969,1.81836 -4.64453,0.35352 -1.42383,5.13867 3.88672,-1.69141 2.26367,-3.72265 1.23438,1.16406 0.63868,-4.75391 z m 61.789073,1.349609 -4.27344,1.2793 3.79492,2.931641 4.49805,-2.863281 z m 9.01367,0.0137 -4.27344,1.2793 3.79493,2.931641 4.49804,-2.863281 z m -118.542973,0.158201 1.33789,4.605469 5.32227,0.33789 -2.45313,-3.45703 z m 9.01367,0.0137 1.3379,4.605469 5.32226,0.33789 -2.45312,-3.45704 z m 51.445323,1.25976 0.44336,4.77539 5.16211,1.33594 -1.75586,-3.85742 z m 8.99414,0.59375 0.44336,4.77539 5.16211,1.33594 -1.75586,-3.85742 z m 29.20312,0.99414 -4.37304,0.875 3.50586,3.27344 4.74414,-2.43555 z m -56.830083,0.57227 -3.42773,3.35351 2.21484,4.85157 1.88868,-3.79492 z m 62.304693,1.32031 -4.89062,2.125 3.75781,1.95899 4.42188,-0.59375 z m -44.48437,0.2793 -4.781253,0.36133 -1.42383,5.13867 3.886723,-1.68945 z m 55.51562,0.0215 -0.98047,1.41407 -1.05664,-1.1211 -4.89062,2.12305 3.75781,1.96094 0.67969,-0.0918 2.8457,4 1.14063,-4.08203 z m 9.69922,0.74024 0.11328,4.79492 5.05663,1.68945 -1.48633,-3.9707 z m -120.193363,0.42578 -1.40039,4.00195 1.22266,4.28906 2.98242,-3.75586 z m -14.55273,0.12695 1.22851,4.05664 3.51563,2.7461 0.19531,-4.79297 z m 15.81054,0.16602 2.22461,3.60742 4.10157,1.7539 -1.03907,-4.68359 z m 8.99415,0.59375 2.2246,3.60742 4.10157,1.75195 -1.03711,-4.68164 z m 53.882813,0.53711 -4.88672,2.13281 3.76172,1.95312 3.42578,-0.46484 -1.28516,2.45117 4.75,-0.66797 1.08985,-5.2207 -3.76954,1.9375 -0.38476,0.73633 z m 29.76758,0.52929 1.33789,4.60547 5.32226,0.33594 -2.45312,-3.45508 z m 9.01562,0.0137 1.33594,4.60547 5.32226,0.33594 -2.45312,-3.45703 z m -53.335943,3.58204 2.000003,3.73632 3.98828,2.00196 -0.75195,-4.73828 z m 9.013673,0.0137 2,3.73633 3.98829,2.00195 -0.75,-4.73828 z m -41.312503,1.89648 -4.89062,2.125 3.75977,1.95899 4.41992,-0.59375 z m 8.99415,0.59375 -4.88868,2.125 3.75782,1.95899 4.41992,-0.59375 z m 73.550783,0.41406 2.22461,3.60743 2.00781,0.85742 0.0742,0.80859 5.16211,1.33594 -1.75586,-3.85938 -2.25977,-1.32226 -0.16601,-0.75 z m -106.652353,0.41016 -1.64062,3.9082 0.95703,4.35743 3.20703,-3.566411 -0.32226,-0.59766 0.73437,0.29883 4.34766,-1.00195 -3.59766,-3.16992 -2.75195,1.51172 z m 115.646493,0.1836 2.22461,3.60546 4.10156,1.75391 -1.03711,-4.68164 z m -102.966803,0.63867 -4.67187,2.56836 3.92382,1.60156 4.34571,-1 z m -23.89844,0.65234 -1.55859,0.67969 0.0469,-0.22656 -2.66211,1.36718 -0.71289,0.31055 0.0527,0.0273 -0.44727,0.23047 -2.07031,3.95313 4.75,-0.66992 0.44336,-2.123051 1.03125,0.53711 4.2832,-0.58203 -1.44531,2.75781 -1.30469,-1.080079 -0.33203,4.78516 4.87891,2.15039 -1.11133,-4.0918 -2.04297,-1.6914 4.61328,-0.64844 1.08985,-5.21875 -3.76953,1.93554 -0.52149,0.9961 z m 145.621083,2.0625 -1.64062,3.9082 0.30273,1.38086 -1.39258,-1.47851 -1.51367,0.658199 0.52735,-2.527339 -3.76952,1.93554 -1.29297,2.46875 -2.94531,-3.12695 -1.40235,0.60938 0.39649,-1.9004 -3.76953,1.93555 -2.07032,3.95117 4.75,-0.66796 0.0645,-0.3125 0.90039,0.46874 2.01758,-0.27148 -0.30664,4.41016 4.8789,2.14843 -1.11133,-4.08984 -2.04297,-1.69141 4.24609,-0.59765 1.31249,0.68555 3.00782,-0.4043 0.16992,0.77344 0.8125,-0.9043 0.43164,-0.0586 -0.19336,-0.20507 2.15625,-2.40039 z m -127.779283,2.08789 0.8457,4.1543 1.92774,1.8164 -4.64258,0.35352 -1.42383,5.13867 3.88867,-1.6914 1.19727,-1.9668 3.39062,3.15625 0.95704,-0.49219 -0.43946,1.58594 3.88867,-1.68945 1.75391,-2.88282 1.5332,2.86328 3.98828,2.00196 -0.63281,-3.98242 2.09375,0.54101 -1.75781,-3.85742 -3.84961,-2.25391 0.39453,4.24024 -1.3418,-0.25586 0.13672,-0.22461 -0.94336,0.0723 -0.0879,-0.0176 0.0117,0.0234 -3.76367,0.28516 -0.0918,0.32813 -0.98828,-0.43555 -1.95117,0.39453 0.63672,-4.74609 z m -40.7617198,0.24219 1.9999998,3.73828 3.98828,2 -0.75195,-4.73633 z m 9.0136698,0.0137 2,3.73828 3.98828,2 -0.75,-4.73633 z m 76.76367,0.48633 -1.64063,3.908199 0.95703,4.35547 3.20704,-3.56641 z m -12.73046,1.92578 -3.76953,1.9375 -1.83204,3.49609 -1.12109,-2.45898 -3.84961,-2.25391 0.33984,3.64649 -2.1621,-0.41211 2.00195,3.736329 3.98633,2.00195 -0.53321,-3.37305 1.97461,0.51172 -0.45703,-1.00195 4.33203,-0.60938 z m 9.01366,0.0137 -3.76952,1.9375 -2.02149,3.85938 -1.30468,-1.08008 -0.33204,4.7832 4.87891,2.15039 -1.11133,-4.08984 -2.04297,-1.69141 4.61327,-0.64844 z m 11.214853,0.0781 -4.373043,0.87695 3.505853,3.27148 4.74415,-2.43359 z m 9.01367,0.0137 -4.37304,0.87695 3.50781,3.27149 4.74219,-2.4336 z m 34.10547,0.004 -1.86718,1.0254 -0.125,-0.0234 0.0391,0.0723 -2.72071,1.49414 3.92579,1.60157 0.40234,-0.0918 0.35352,0.66016 3.11328,1.5625 0.66211,3.24804 1.92968,1.81836 -4.64453,0.35157 -0.2832,1.01953 -0.0469,-0.0215 -3.25,0.65235 -0.46289,-3.01758 -3.42968,3.35351 2.21484,4.84961 1.86328,-3.74023 2.01563,1.8789 -0.0449,0.16407 0.15039,-0.0645 0.0781,0.0723 1.35351,-0.69531 2.30665,-1.00196 0.16211,-0.26562 0.91992,-0.47266 -0.49805,-0.2207 1.67969,-2.76172 1.23242,1.16211 0.63867,-4.75391 -3.80859,-1.98047 -0.42188,-2.66796 0.16016,-0.0371 -0.19336,-0.16993 -0.1582,-0.99804 -1.24414,-0.23828 z m 8.99414,0.5918 -1.08008,0.59375 -0.89257,-0.16992 0.27343,0.51172 -2.97265,1.63476 3.92383,1.60157 0.69726,-0.16016 0.0801,0.14844 3.98633,2.001949 -0.47071,-2.97851 0.0527,-0.0117 -0.0644,-0.0566 -0.26758,-1.69141 -2.10742,-0.40234 z m -23.89843,0.65235 -2.625,1.14648 -0.0703,-0.19922 -0.22851,0.32813 -1.96289,0.85742 1.00586,0.52344 -1.54883,2.23242 3.08984,4.34375 1.14063,-4.08203 -0.48047,-1.35157 0.55273,0.28711 4.42188,-0.59961 z m 38.04101,0.67578 -0.49805,0.95117 -0.91796,-0.75977 z m -124.681643,0.25781 -3.42969,3.35352 0.3086,0.67578 -0.0977,-0.0332 -4.27344,1.2793 3.79493,2.93164 1.92382,-1.22461 0.5586,1.22266 1.15234,-2.31055 0.86328,-0.55078 -0.50586,-0.16992 0.38086,-0.76367 z m 93.644533,0.75391 0.11328,4.79492 5.05664,1.68945 -1.48437,-3.9707 z m -84.873053,0.34375 1.22461,1.15429 -2.19726,0.44336 z m 58.583993,2.03515 1.33594,4.60547 5.32226,0.33594 -2.45312,-3.45703 z m 9.01367,0.0137 1.33789,4.60547 5.32031,0.33594 -2.45312,-3.45703 z m -88.601563,0.83594 -4.27344,1.2793 3.79492,2.93164 4.49805,-2.86328 z m 158.591753,1.41016 -4.37106,0.88281 3.50976,3.26758 4.7402,-2.44141 z m -29.15816,0.62109 0.44531,4.77539 5.16211,1.33594 -0.39062,-0.85742 3.77148,-2.40039 -4.01953,-1.34766 -1.58594,0.47461 z m 8.99414,0.59375 0.44532,4.77539 5.16209,1.33399 -0.58984,-1.29493 3.99023,-2.54101 -4.01953,-1.34766 -2.25195,0.67383 z m -158.314453,0.39453 -4.3730498,0.87696 3.5058598,3.27148 4.74414,-2.43555 z m 9.01367,0.0137 -4.37305,0.87696 3.50782,3.27148 4.74218,-2.43554 z m 86.701173,1.20704 -4.37304,0.88281 2.07812,1.93359 -3.83203,-1.56054 1.22852,4.05859 3.51562,2.74414 0.17188,-4.23242 0.34961,0.32422 4.74023,-2.44141 z m -70.195313,0.98828 -2.73437,3.93945 3.08984,4.3457 1.14062,-4.08398 z m 78.621093,0.14258 -1.40039,4 1.22266,4.29101 2.98242,-3.75781 z m 1.25782,0.29296 2.22461,3.60547 4.10156,1.75391 -1.03711,-4.68164 z m 43.11133,0.12696 -4.78321,0.36132 -0.13672,0.49415 -0.17187,-0.0762 -4.375,0.875 3.4375,3.20899 -0.17578,0.63672 3.88672,-1.68946 0.66601,-1.09375 0.43555,-0.22461 -0.23633,-0.10351 z m -113.291023,0.17578 0.11328,4.79492 5.05664,1.68945 -1.48437,-3.9707 z m 79.173833,0.28906 2.22656,3.60742 4.10156,1.75391 -1.03906,-4.68359 z m -42.867193,0.11133 -4.27344,1.27734 3.79493,2.9336 4.49804,-2.86524 z m 9.01366,0.0137 -4.27343,1.27734 3.79687,2.9336 4.4961,-2.86524 z m -71.60936,1.96484 1.33593,4.60547 5.32227,0.33594 -2.45312,-3.45508 z m 9.01367,0.0137 1.33789,4.60546 5.32031,0.33594 -2.45312,-3.45508 z m 141.978523,0.40429 -2.73438,3.94141 3.0918,4.34375 1.13865,-4.08203 z m -108.283213,0.6211 -4.37305,0.87695 3.50782,3.27148 4.74218,-2.43359 z m 9.01367,0.0137 -4.37304,0.87695 3.50781,3.27149 4.74219,-2.4336 z m 108.968743,0.10547 0.11328,4.79492 5.05661,1.68945 -1.48434,-3.9707 z m -92.462893,2.08984 -2.73436,3.94141 3.08983,4.34375 1.14063,-4.08203 z m 66.173843,0.28906 1.33789,4.60547 5.32031,0.33594 -2.45312,-3.45703 z m 9.01367,0.0137 1.33789,4.60546 5.32032,0.33594 -2.45313,-3.45703 z m -65.488283,0.4375 0.10156,4.29882 -0.86132,-0.91211 -4.88673,2.13086 3.76173,1.95508 4.419923,-0.59961 -1.751963,-1.85547 4.386723,1.4668 -1.48437,-3.9707 z m 34.566413,0.49414 -4.88867,2.125 3.75781,1.96093 4.42187,-0.59375 z m 8.99609,0.59375 -4.89062,2.125 3.75781,1.95898 4.42187,-0.59375 z m -29.41797,1.05273 -4.67187,2.57031 3.92383,1.60157 4.3457,-1 z m -87.406253,0.0918 -1.40039,4 1.22266,4.291006 2.98242,-3.755856 z m -14.55273,0.12695 1.22851,4.05664 3.51563,2.744136 0.19531,-4.791006 z m 61.52539,0.0195 1.33789,4.60547 5.32031,0.33594 -2.45312,-3.45703 z m 9.01367,0.0137 1.33789,4.60547 5.32031,0.33594 -2.45312,-3.45703 z m -54.72851,0.13282 2.2246,3.60742 4.10157,1.75195 -1.03711,-4.68164 z m 95.142573,0.20898 -1.4707,0.80859 -0.0117,-0.0215 -0.0156,0.0371 -3.17383,1.74414 2.08398,0.85156 -0.53711,1.27539 0.40625,1.843746 -2.95507,-1.537106 0.47461,-2.27539 -3.77149,1.9375 -2.01953,3.859376 -1.30469,-1.08008 -0.19531,2.828117 -2.9082,2.8418 1.1875,2.59766 -2.01172,0.60156 -2.25977,-2.39648 -4.890623,2.125 3.757813,1.95898 3.50391,-0.4707 2.6289,2.03125 4.4961,-2.86524 -3.05469,-1.02343 0.74804,-1.50391 -0.22265,-1.45117 2.80859,1.23633 -0.64062,2.3125 3.88672,-1.68946 2.26367,-3.7207 1.23242,1.16016 0.50586,-3.751957 2.49805,-2.779286 -0.82422,-1.53516 3.38476,-0.7793 z m -86.148433,0.38477 2.22656,3.60742 4.10156,1.75195 -1.03906,-4.68164 z m 71.935543,2.32812 -3.77148,1.9375 -2.06836,3.951166 4.75,-0.66797 z m 52.21485,0.32227 -1.39844,3.999996 1.2207,4.291007 2.98242,-3.755857 z m -14.55078,0.12695 1.22656,4.056636 3.51562,2.744137 0.19532,-4.791003 z m 15.80859,0.16602 2.22656,3.607416 4.10156,1.75195 -1.03906,-4.681636 z m 8.99414,0.59375 2.22656,3.605456 4.10155,1.753907 -1.03906,-4.681633 z m -54.10156,1.91015 0.63672,3.124996 1.92968,1.818357 -4.64453,0.35156 -0.35547,1.28711 -0.57812,-2.12695 -2.04297,-1.691407 4.61328,-0.64843 z m -38.914063,0.0332 -1.4004,3.999993 1.22266,4.29101 2.98242,-3.75781 z m -14.55079,0.125 1.22657,4.056633 3.51562,2.74609 0.19531,-4.792967 z m 15.8086,0.16601 2.22461,3.607413 4.10351,1.75391 -1.03906,-4.681637 z m 7.88086,0.498046 2.00195,3.736327 3.98632,2.00195 -0.15235,-0.96875 1.60547,0.6875 -1.03906,-4.683587 -5.28905,-0.67774 0.082,0.13281 z m 9.01561,0.0137 2.00001,3.736327 3.986333,2.00195 -0.750003,-4.738277 z m -52.50975,0.28906 -4.88868,2.125 3.75782,1.958987 4.42187,-0.59375 z m 8.99609,0.5918 -4.89062,2.124997 3.75781,1.96094 4.42187,-0.59375 z m 76.783203,0.0508 0.44532,4.775387 3.63086,0.9375 -3.92579,0.79297 3.51172,3.26758 4.74024,-2.44141 -2.80078,-1.23437 -1.75,-3.84571 z m 8.9961,0.59375 0.44336,4.775387 3.02148,0.78125 -4.05078,1.76758 3.76172,1.95312 4.41992,-0.59961 -2.56836,-2.71875 0.57813,0.1504 -1.75586,-3.85743 z m -115.197273,0.41016 -4.67187,2.568357 3.92382,1.60351 4.34571,-1.00195 z m 8.99414,0.591787 -4.67187,2.57032 3.92382,1.60156 4.34766,-1 z m -23.8984398,0.65235 -4.88671,2.13281 3.76171,1.95312 4.4199298,-0.59961 z m 171.6738228,0.13476 -0.74805,1.7793 -1.19531,-1.26758 -4.89061,2.125 0.87498,0.45508 -1.52928,0.78516 -2.01953,3.85937 -1.30469,-1.08008 -0.33203,4.78516 4.73047,2.08594 0.14843,1.59765 1.03124,0.26758 -1.54686,0.46289 3.79491,2.93164 4.49805,-2.86328 -3.375,-1.13086 -0.9961,-2.18945 -3.8496,-2.25391 0.22657,2.44531 -0.89453,-3.29492 -2.04102,-1.68945 4.61132,-0.65039 0.65234,-3.12695 1.07813,0.5625 1.53906,-0.20704 0.85156,3.87696 3.20703,-3.56641 z m 7.05078,1.10352 -4.89063,2.125 3.75782,1.96094 4.42185,-0.59375 z m -58.42967,0.27148 -4.78321,0.36328 -1.35156,4.88282 -3.70703,-1.24024 -4.27344,1.2793 3.79492,2.93164 4.49805,-2.86524 -0.0215,-0.008 3.52539,-1.53125 z m 38.64843,0.55274 -3.77148,1.93554 -0.44727,0.85352 -1.0957,0.60352 0.64258,0.26171 -1.16797,2.23438 4.74805,-0.66992 0.0644,-0.3086 3.98437,-0.91601 -3.20312,-2.82227 z m -9.63671,0.23047 -4.67188,2.56835 3.63477,1.48438 -1.72071,-0.33008 2,3.73828 3.98633,2 -0.75,-4.73632 -3.07812,-0.58985 4.19726,-0.96484 z m -62.339863,1.18164 -4.89062,2.125 3.75781,1.96093 4.42188,-0.59375 z m -69.12499,0.67773 0.8457,4.15234 1.92969,1.81836 -4.64453,0.35352 -1.42187,5.13672 3.88671,-1.68946 2.26368,-3.7207 1.23242,1.16211 0.64062,-4.75391 z m 48.70117,0.96875 -4.67187,2.57031 3.92383,1.60157 4.3457,-1 z m 8.99414,0.59375 -4.67187,2.56836 3.92383,1.60352 4.34765,-1.00196 z m 61.996103,0.28711 2.00195,3.73828 3.98633,2 -0.75,-4.73633 z m -85.894533,0.36523 -4.88672,2.13086 3.76172,1.95508 4.41992,-0.59961 z m -21.07813,0.58008 0.44531,4.77539 5.16211,1.33594 -1.75586,-3.85742 z m 8.9961,0.59375 0.44335,4.77539 5.16211,1.33594 -1.75586,-3.85937 z m 112.689453,0.14844 0.8457,4.15234 1.92969,1.81836 -4.64649,0.35157 -1.03711,3.74414 -0.0586,-0.0254 -2.89648,0.58007 0.625,-1.25586 -0.67578,-4.41015 -3.42774,3.35351 2.21485,4.84961 0.69335,-1.39453 2.59961,2.42578 4.74414,-2.43554 -2.41796,-1.06836 2.10156,-0.91407 2.26367,-3.72265 1.23437,1.16406 0.63868,-4.75391 z m -70.693373,0.83008 -4.37499,0.87695 3.50781,3.27344 4.74413,-2.43555 z m 9.01368,0.0137 -4.37306,0.87695 3.50587,3.27344 4.744143,-2.43555 z m -78.63672,0.57422 -3.42969,3.35351 2.2168,4.84961 1.88867,-3.79296 z m 57.55274,1.41016 0.8457,4.15429 1.92969,1.81836 -4.64649,0.35156 -1.42187,5.13868 3.88672,-1.68946 2.26562,-3.72265 1.23242,1.16211 0.63867,-4.75196 z m -39.73243,0.18945 -4.7832,0.36133 -1.42187,5.13867 3.88672,-1.68945 z m 77.320323,0.0215 -2.73438,3.94141 3.0918,4.34375 1.13867,-4.08203 z m 66.88865,0.34961 0.44336,4.77539 5.16211,1.33399 -1.75586,-3.85742 z m -57.18943,0.39063 0.11328,4.79492 5.05859,1.68945 -1.48633,-3.9707 z m 67.5723,1.10351 -4.3731,0.88282 3.5117,3.26562 4.7403,-2.44141 z m -102.142633,0.74219 0.44532,4.77539 5.16211,1.33398 -1.75586,-3.85742 z m -31.48827,0.26172 -1.64258,3.9082 0.95899,4.35547 3.20508,-3.56641 z m 39.76953,0.27148 1.04297,3.58789 0.11524,1.24805 5.162113,1.33399 -0.58594,-1.28711 0.92578,0.0586 -2.45313,-3.45703 -2.660153,-0.93945 -0.83203,-0.48633 0.0195,0.19922 z m 9.013683,0.0137 1.33789,4.60547 5.32226,0.33594 -2.45312,-3.45703 z m 64.6582,0.38282 -4.78125,0.36133 -0.0977,0.35546 -3.39453,1.01563 2.56445,1.98047 -0.49609,1.78711 3.88672,-1.68946 0.51953,-0.85156 1.81641,-1.1582 -0.92383,-0.31055 z m -100.583993,1.23047 -3.42773,3.35351 2.21484,4.84961 1.88868,-3.79492 z m -25.58789,0.0273 -3.77148,1.9375 -2.06836,3.95117 4.75,-0.66992 z m 9.01368,0.0137 -3.77149,1.9375 -2.01953,3.85742 -1.30469,-1.08007 -0.33203,4.78515 4.87891,2.15039 -1.11133,-4.08984 -2.04102,-1.69141 4.61133,-0.65039 z m 34.39452,1.55664 -4.78124,0.36328 -1.42383,5.13868 3.88672,-1.68946 z m 58.876963,0.64453 -4.375,0.87696 3.50781,3.27148 4.74414,-2.43555 z m -123.693363,1.72657 2,3.73632 3.98633,2 -0.75,-4.73632 z m 9.01367,0.0137 2,3.73633 3.98633,2 -0.75,-4.73633 z m 140.197253,0.46875 -2.73436,3.93945 3.09178,4.3457 1.13868,-4.08398 z m -70.63475,0.14258 -1.40039,4 1.22266,4.29101 2.98242,-3.75781 z m -14.552733,0.125 1.22655,4.05859 3.51562,2.74414 0.19727,-4.79101 z m 15.808593,0.16796 2.22656,3.60743 4.10157,1.75195 -1.03907,-4.68164 z m 79.07811,0.30469 0.11328,4.79492 5.05865,1.6875 -1.4864,-3.9707 z m -70.08202,0.28711 2.22461,3.60742 4.10157,1.75391 -1.03907,-4.68359 z m 43.79297,2.08985 1.33789,4.60546 5.32227,0.33789 -2.45313,-3.45703 z m 9.01368,0.0137 1.33789,4.60547 5.32226,0.33593 -2.45312,-3.45507 z m -9.87696,2.54492 -1.64258,3.9082 0.95899,4.35547 3.20508,-3.56641 z m -84.951173,0.41016 -4.37305,0.88281 3.51172,3.26758 4.74024,-2.44141 z m 49.052743,1.51367 -4.89063,2.125 3.75977,1.96093 4.41992,-0.59374 z m 23.16796,0.002 -3.77148,1.9375 -2.06836,3.95117 4.75,-0.66797 z m 9.01368,0.0137 -3.77149,1.9375 -0.23047,0.44141 -1.30273,-0.5293 0.57812,1.91211 -1.06445,2.0332 -1.30469,-1.08007 -0.33203,4.78515 4.87891,2.15039 -1.11133,-4.08984 -2.04102,-1.69141 1.54688,-0.21875 0.0762,0.25586 3.51563,2.7461 0.19531,-4.79297 -0.4043,-0.16407 z m -23.1875,0.57813 -4.89063,2.125 3.75977,1.95898 3.07422,-0.41211 1.83593,3.42774 3.98633,2 -0.75,-4.73633 -4.22266,-0.80664 0.4961,-0.0664 z m -82.236333,0.0195 -4.27344,1.27734 3.79492,2.9336 4.49805,-2.86524 z m 9.01367,0.0137 -4.27344,1.27734 3.79492,2.9336 4.49805,-2.86524 z m 43.80469,1.01953 -4.67189,2.57031 3.92384,1.60157 4.347663,-1 z m 61.851563,0.0918 -1.39844,4.00195 1.22266,4.28906 2.98242,-3.75586 z m 1.25781,0.29297 2.22656,3.60742 4.10157,1.75195 -1.03907,-4.68164 z m -54.11328,0.20898 -4.67383,2.56836 3.92383,1.60352 4.34766,-1.00196 z m 63.10742,0.38477 2.22655,3.60742 4.10156,1.75195 -1.03906,-4.68164 z m -87.005863,0.26758 -4.88867,2.13085 3.76172,1.95508 4.41992,-0.59961 z m -57.80273,0.73828 -4.37305,0.87695 3.50586,3.27148 4.74414,-2.43359 z m 9.01367,0.0137 -4.37305,0.87695 3.50586,3.27149 4.74414,-2.4336 z m 85.873053,0.29883 2.00195,3.73633 3.98633,2.00195 -0.75,-4.73828 z m -69.367193,1.89648 -2.73438,3.94141 3.08985,4.34375 1.13867,-4.08203 z m 9.69922,0.74024 0.11328,4.79492 5.05664,1.6875 -1.48633,-3.96875 z m 40.425783,0.46289 0.8457,4.15429 1.21094,1.14063 -0.31836,0.75586 -2.70312,0.20508 0.2832,-1.35352 -3.769533,1.93555 -0.90625,1.73242 -0.55469,-3.61328 -3.4297,3.35351 1.4375,3.14649 -0.20508,2.94531 4.88087,2.15039 -1.11132,-4.0918 -1.72657,-1.42773 0.16407,-0.33008 2.93359,-0.41406 -0.32422,1.17383 3.886723,-1.68946 1.05664,-1.73632 0.70117,3.18945 3.20703,-3.56641 -1.2207,-2.27539 0.39258,-2.92383 z m -66.716803,1.91406 1.33789,4.60742 5.32227,0.33594 -2.45313,-3.45703 z m 9.01368,0.0137 1.33789,4.60742 5.32226,0.33594 -2.45312,-3.45703 z m 133.900373,0.22656 -4.89062,2.125 3.75781,1.95899 4.42187,-0.59375 z m 8.99412,0.59375 -4.8906,2.12305 3.7598,1.96094 4.4199,-0.59375 z m -72.47262,0.0488 0.44336,4.77539 5.16211,1.33594 -1.75586,-3.85938 z m 8.99414,0.59375 0.44531,4.77539 4.86328,1.25586 -0.40625,0.082 3.50586,3.27149 4.74414,-2.4336 -3.87695,-1.71484 -3.72461,0.74805 -1.70117,-3.73243 z m 44.33789,0.0781 -4.37305,0.88281 1.17579,1.09375 -2.75782,1.51758 3.92383,1.60156 4.34766,-1 -1.13281,-0.99805 2.69531,-1.38867 z m -10.27734,0.33203 -3.89844,2.14258 -1,-0.33399 -4.27344,1.27735 3.79492,2.93359 3.57618,-2.27735 1.05273,0.42969 4.34766,-1.00195 z m -65.468763,1.08789 -3.76953,1.93555 -2.06835,3.95312 4.74803,-0.66992 z m 50.566413,0.15625 -4.88867,2.13281 3.76172,1.95313 0.65039,-0.0879 0.98828,0.76368 1.79102,-1.14063 0.99023,-0.13476 -0.29297,-0.31055 2.00782,-1.2793 -4.01758,-1.3457 -0.36719,0.10937 z m -28.96289,1.51172 -4.7832,0.36132 -1.42383,5.13868 3.88867,-1.68946 z m -73.957033,1.57812 -1.40039,4.00196 1.22266,4.28906 2.98242,-3.75586 z m -14.55273,0.12696 1.22851,4.05664 3.51563,2.74609 0.19531,-4.79297 z m 15.81054,0.16601 2.22461,3.60742 4.10157,1.75391 -1.03907,-4.68164 z m 82.765633,0.18555 -4.375,0.87695 3.50781,3.27149 4.74414,-2.4336 z m -53.078133,0.21484 2.00196,3.73828 3.98633,2 -0.75,-4.73633 z m 9.01368,0.0137 2.00195,3.73828 3.98633,2 -0.75,-4.73632 z m -29.70704,0.17969 2.22461,3.60742 4.10157,1.75391 -1.03711,-4.68359 z m 110.509773,0.17578 0.80469,3.95117 -2.32617,-1.58593 0.0918,3.92578 -0.43945,0.0332 -1.42383,5.13867 3.88672,-1.6914 0.98242,-1.61524 2.07422,0.69141 -0.95117,-2.53711 0.1582,-0.25977 1.23438,1.16211 0.63867,-4.7539 z m -11.2207,1.625 -2.73438,3.94141 3.0918,4.34375 1.13867,-4.08203 z m 23.93944,1.16992 0.44336,4.77539 5.1621,1.33594 -1.75585,-3.85742 z m 8.99414,0.59375 0.44336,4.77539 5.16214,1.33594 -1.7559,-3.85937 z m -49.52343,1.35352 1.33789,4.60742 5.32227,0.33594 -2.45312,-3.45703 z m 9.01368,0.0137 1.33789,4.60742 5.32226,0.33594 -2.45312,-3.45703 z m 12.88476,0.19922 -3.42969,3.35352 2.21485,4.8496 1.89062,-3.79296 z m 8.375,0.72266 0.3125,0.29296 -0.19726,0.0156 z m -45.47266,0.52343 -4.37109,0.88282 3.50977,3.26562 4.74023,-2.44141 z m -60.468743,0.19532 -4.89063,2.125 3.75977,1.95898 4.41992,-0.59375 z m 115.386703,0.1582 -4.78319,0.36133 -1.42383,5.13867 3.88672,-1.68945 z m -106.392563,0.43555 -4.88868,2.125 3.75782,1.95898 4.41992,-0.59375 z m -29.41602,1.05273 -4.67383,2.57031 3.92383,1.60157 4.34766,-1.00196 z m 56.70116,0.2832 -4.27344,1.2793 3.79688,2.93164 4.4961,-2.86328 z m 9.015643,0.0137 -4.273443,1.27929 3.794923,2.93164 4.4961,-2.86328 z m -56.722663,0.29687 -4.67187,2.56836 3.92382,1.60352 4.34571,-1.00196 z m -23.89844,0.65234 -4.88672,2.13086 3.75977,1.95508 4.42187,-0.59961 z m 115.662113,1.67579 -1.40039,4 1.22266,4.28906 2.98242,-3.75586 z m -14.55273,0.125 1.22656,4.05664 3.51563,2.74609 0.19531,-4.79297 z m 15.80859,0.16601 2.22656,3.60742 4.10157,1.75391 -1.03907,-4.68164 z m -65.199223,0.0898 -4.37304,0.87696 3.50781,3.27148 4.74219,-2.43554 z m 9.01563,0.0137 -4.375,0.87695 3.50781,3.27148 4.74414,-2.43554 z m 65.179693,0.49023 2.22461,3.60742 4.10156,1.75391 -1.03906,-4.68359 z m -108.072273,1.58985 0.8457,4.15429 1.92969,1.81836 -4.64453,0.35156 -1.42383,5.13868 3.88867,-1.68946 2.26368,-3.7207 1.23242,1.16016 0.63867,-4.75196 z m 59.39648,0.11523 -2.73437,3.93945 3.0918,4.34571 1.138673,-4.08399 z m 9.699223,0.74023 0.11328,4.79493 5.0586,1.6875 -1.48633,-3.96875 z m -56.376953,1.94141 0.44531,4.77539 5.16211,1.33398 -1.75781,-3.85742 z m 30.08789,0.43555 1.33789,4.60547 5.3203,0.33789 -2.45311,-3.45704 z m 9.01366,0.0137 1.33789,4.60547 5.32033,0.33789 -2.45314,-3.45703 z m -30.10741,0.14258 0.44531,4.77539 5.16211,1.33594 -1.75781,-3.85743 z m -27.625,1.56836 -3.42969,3.35351 2.21485,4.84961 1.89062,-3.79492 z m 121.015633,0.0254 -4.89063,2.125 3.75977,1.95898 4.41992,-0.5918 z m 8.99414,0.59375 -4.89063,2.125 3.75977,1.95898 4.41992,-0.59375 z m -112.189463,0.97851 -4.7832,0.36328 -1.42383,5.13868 3.88867,-1.69141 z m 82.771493,0.0742 -4.67188,2.57031 3.92383,1.60157 4.34766,-1.00196 z m 8.99609,0.59375 -4.67383,2.56836 3.92383,1.60352 4.34766,-1.00196 z m -23.89844,0.65235 -4.88867,2.13085 3.76172,1.95508 4.41992,-0.59961 z m -32.304683,1.57812 -1.39844,4.00195 1.2207,4.28907 2.98241,-3.75586 z m -14.55078,0.12695 1.22656,4.05664 3.51562,2.7461 0.19532,-4.79297 z m 15.80858,0.16602 2.22656,3.60742 4.10156,1.75195 -1.03906,-4.68164 z m 8.99415,0.59375 2.22656,3.60742 4.101563,1.75195 -1.03906,-4.68164 z m 39.894533,1.68555 0.8457,4.15429 1.92969,1.81836 -4.64453,0.35156 -1.42383,5.13868 3.88672,-1.68946 2.26563,-3.72265 1.23242,1.16211 0.63867,-4.75196 z m 12.71875,2.79687 0.44336,4.77539 5.16211,1.33399 -1.75586,-3.85743 z m 8.99414,0.5918 0.44336,4.77539 5.16406,1.33594 -1.75781,-3.85743 z m -54.57422,1.49804 -4.890623,2.125 3.757813,1.95899 4.42188,-0.59375 z m 26.94922,0.0703 -3.42969,3.35351 2.21485,4.84961 1.89062,-3.79492 z m -17.95508,0.52343 -4.89062,2.125 3.75781,1.95899 4.42188,-0.59375 z m -29.417973,1.05274 -4.67187,2.56836 3.92383,1.60351 4.34765,-1.00195 z m 65.193363,0.0215 -4.7832,0.36328 -1.42383,5.13868 3.88867,-1.69141 z m -56.199233,0.57032 -4.67186,2.57031 3.92382,1.60156 4.34766,-1 z m -23.89647,0.65234 -4.88867,2.13281 3.76172,1.95313 4.41992,-0.59961 z m 17.8418,4.15234 0.8457,4.15235 1.92968,1.81836 -4.64452,0.35351 -1.42383,5.13867 3.88672,-1.6914 2.26366,-3.72266 1.23437,1.16406 0.63868,-4.7539 z m 12.71875,2.79493 0.44336,4.77539 5.162113,1.33593 -1.75586,-3.85742 z m 8.994143,0.59374 0.44336,4.7754 5.16211,1.33593 -1.75586,-3.85742 z m -27.626953,1.56641 -3.42774,3.35352 2.21484,4.84961 1.88868,-3.79297 z m 17.82031,1.59961 -4.78126,0.36133 -1.42383,5.13867 3.88673,-1.68945 z" /><path
       id="path40758-3"
       style="fill:#ffffff;fill-opacity:1;stroke-width:0.383383"
       d="m 61.033441,10.82878 c -1.31374,0.0258 -1.39309,6.07747 -2.75196,13.31445 -1.15166,6.13348 -3.73883,12.57294 -4.35937,21.56641 -0.6588,9.54796 1.53827,5.59566 1.88867,12.26367 0.27898,5.30886 -0.37454,16.02464 -0.2168,21.57617 -0.054,0.3464 -0.0993,0.6785 -0.1582,1.03125 -1.02926,6.16575 -3.25836,12.69989 -3.87891,21.69336 -0.6588,9.54796 1.21743,5.51048 1.43164,12.14258 0.10256,3.17503 -0.0996,8.31242 -0.26367,13.12305 -0.20158,-0.0879 -0.51891,0.17106 -1.05664,1.00195 -1.36832,2.11431 0.96168,-14.2969 -0.3789,-14.65039 -1.44107,-0.37999 -1.47816,5.82839 -2.88086,13.29883 -1.15167,6.13347 -3.74079,12.57098 -4.36133,21.56445 -0.6588,9.54796 1.53827,5.59566 1.88867,12.26367 0.38164,7.26262 -0.99702,24.74667 0.37109,25.10742 1.41879,0.37412 2.1259,-12.60979 3.51368,-19.875 1.17908,-6.17266 3.09629,-5.82747 3.72851,-14.99023 0.27935,-4.04859 0.64805,-10.48796 0.4668,-14.99805 0.68,-4.23538 1.29491,-11.80265 2.14258,-16.80078 1.05252,-6.20602 2.64512,-5.94661 3.27734,-15.10937 0.39129,-5.67098 0.99824,-16.09717 0.17773,-19.16602 -0.59122,-2.21126 0.1626,-6.46615 -1.48046,-3.40234 -0.59605,1.11143 -0.32847,-2.67 -0.0742,-6.66211 0.49255,-3.94053 0.98958,-8.52818 1.63672,-11.91602 0.0808,-0.42287 0.16489,-0.81089 0.25195,-1.17773 -0.18402,4.01989 -0.40084,8.43771 0.41992,13.20312 1.30398,7.57105 2.53483,3.23711 4.19141,8.01953 1.31912,3.80821 2.86509,12.28131 4.12109,16.34571 0.0188,0.28421 0.0427,0.55225 0.0586,0.84375 0.28634,5.26534 -0.45869,11.55419 0.76953,18.68554 1.30398,7.57106 2.22204,3.3745 3.7461,8.21485 0.72957,2.31709 1.57137,6.29607 2.38281,10.00586 -0.20291,0.0607 -0.44338,0.45357 -0.77149,1.41015 -0.8363,2.43818 -1.97478,-11.3221 -3.27929,-10.75195 -1.40233,0.61287 -0.19587,5.29306 0.008,11.76953 0.16722,5.3174 -0.92747,11.75926 0.30078,18.89063 1.30398,7.57104 2.53678,3.2371 4.19336,8.01953 0.13415,0.38728 0.27187,0.83401 0.41015,1.30859 -0.82563,7.48969 -2.45855,18.18445 -1.58007,18.24609 0.79455,0.0557 1.92046,-5.98522 3.14453,-11.92773 1.2661,5.53852 2.51948,11.35059 3.38867,10.9707 1.38062,-0.6034 -0.56388,-10.78049 -0.74023,-17.09375 -0.0638,-2.28498 0.22983,-3.76984 0.49414,-5.27929 0.95987,-2.23788 1.89654,-4.21885 2.75976,-9.61719 0.59548,-3.72395 1.4805,-9.63308 1.74414,-13.68945 0.93686,-3.96611 2.12552,-10.93805 3.26758,-15.625 1.41839,-5.82103 2.68409,-5.8799 4.03125,-14.30469 0.11975,-0.7489 0.26666,-1.7183 0.4043,-2.61328 0.59112,4.50065 1.70026,12.58617 2.37109,14.33984 0.48599,1.27045 0.76967,4.93053 0.94531,1.58594 0.064,-1.21786 0.45542,1.80604 0.87891,4.96289 0.33235,3.25108 0.74475,6.97864 0.95312,9.91406 0.38099,5.36704 -0.32409,6.34236 0.62696,13.58984 0.58861,4.48558 1.717049,12.6506 2.470699,14.32032 0.54305,1.20311 0.79069,4.90583 1.07617,1.43164 0.0938,-1.14144 0.42328,1.23541 0.79883,4.02344 -0.32387,3.32302 -0.61575,6.69272 -0.11719,6.70117 0.3548,0.006 0.62225,-0.57935 0.86914,-1.5293 0.17575,1.00066 0.33306,1.63707 0.44922,1.5 0.27625,-0.32599 0.21046,-1.69539 0.0195,-3.79687 0.37713,-2.23231 0.78952,-5.2475 1.47461,-8.62891 0.65489,-3.23237 1.67919,-6.66854 2.59961,-10.50586 0.61231,6.31166 1.25164,14.544 1.67383,14.08789 0.57368,-0.61977 -0.2353,-11.07408 -0.3086,-17.55859 -0.0208,-1.83871 0.0522,-3.14852 0.13672,-4.38477 0.077,-0.57961 0.1489,-1.16463 0.21094,-1.76367 0.40295,-3.89116 0.23626,-5.21071 -0.0703,-6.02734 -0.0273,-0.56 -0.0522,-1.10597 -0.0977,-1.75782 -0.15552,-2.23191 -0.38957,-5.34318 -0.66016,-8.16601 0.27811,-4.73703 0.73666,-10.36566 0.79688,-13.75782 0.056,-0.31651 0.10408,-0.61832 0.16406,-0.9414 1.05924,-5.70604 3.08991,-12.00451 3.93164,-20.13281 0.89363,-8.62945 -0.75813,-4.62897 -0.67383,-10.47461 0.0403,-2.79835 0.40061,-7.40628 0.7168,-11.7168 0.15782,0.0309 0.42122,-0.2711 0.88086,-1.125 1.17402,-2.18103 -1.31859,12.91768 -0.26172,12.93555 1.13608,0.0192 1.40483,-5.50725 2.8125,-12.45508 0.67418,-3.32757 1.74102,-6.86801 2.68164,-10.84375 0.0334,0.086 0.0662,0.16443 0.0996,0.24805 0.43451,3.50258 1.74568,9.3875 2.21094,13.52929 0.57986,5.1619 -0.88867,6.01741 0.78125,13.03516 1.03354,4.34339 3.03325,12.25502 4.5039,13.92969 1.05968,1.20668 1.42721,4.76622 2.13282,1.48242 0.25573,-1.19013 0.93813,1.70359 1.68359,4.74414 0.52354,3.16459 1.20236,6.80178 1.45508,9.66992 0.46001,5.2207 -1.31639,6.2264 0.35351,13.24414 1.03354,4.3434 3.05385,12.24482 4.72266,13.82227 1.20247,1.13663 1.48245,4.73895 2.46289,1.32031 0.19159,-0.66805 0.48188,-0.11264 0.82227,0.99805 -0.27501,1.44362 -0.46813,3.28069 -0.49805,5.93554 -0.0625,5.54788 -0.0429,15.74612 1.16602,18.73828 0.87112,2.15601 0.26988,6.32182 2.02734,3.31055 1.24383,-2.1313 -0.13438,13.98611 1.22461,14.26172 1.46086,0.29627 1.14112,-5.75742 2.10937,-13.11133 0.79497,-6.0378 3.00627,-12.44784 3.10547,-21.24609 0.10527,-9.34071 -1.85997,-5.37584 -2.5957,-11.85742 -0.5858,-5.1607 -0.55045,-15.6693 -1.0293,-21.07227 0.033,-0.33041 0.0585,-0.64596 0.0957,-0.98242 0.67089,-6.06298 2.51798,-12.54745 2.61718,-21.3457 0.10527,-9.34071 -1.53318,-5.30814 -2.13086,-11.76172 -0.2861,-3.08928 -0.38154,-8.1075 -0.49609,-12.80469 0.20635,0.0741 0.508,-0.19494 0.99609,-1.03125 1.24384,-2.13129 -0.13438,13.9861 1.22461,14.26172 1.46085,0.29627 1.14112,-5.75742 2.10938,-13.11133 0.79497,-6.03781 3.00627,-12.44784 3.10547,-21.24609 0.10527,-9.34072 -1.85998,-5.37584 -2.59571,-11.85743 -0.80133,-7.05957 -0.43536,-24.17185 -1.82226,-24.45312 -1.43828,-0.29169 -1.39416,12.39964 -2.35938,19.55273 -0.82008,6.07741 -2.75445,5.84082 -2.85546,14.80469 -0.0446,3.96096 -0.0397,10.25763 0.40234,14.64453 -0.43378,4.16361 -0.61088,11.57126 -1.16797,16.48633 -0.69178,6.10343 -2.29546,5.93261 -2.39648,14.89648 -0.0625,5.54788 -0.0652,15.74031 0.93164,18.68946 0.71829,2.12501 0.21251,6.31117 1.67578,3.24023 0.53048,-1.11333 0.48184,2.58269 0.45898,6.48438 -0.26395,3.86773 -0.49497,8.36963 -0.94531,11.70703 -0.0561,0.41599 -0.11796,0.79641 -0.18359,1.1582 -0.0489,-3.9275 -0.0865,-8.24531 -1.18165,-12.84765 -1.74011,-7.31278 -2.72153,-3.02513 -4.65234,-7.60157 -1.53781,-3.64496 -3.56922,-11.82651 -5.05859,-15.72265 -0.0351,-0.27503 -0.0749,-0.53419 -0.10742,-0.81641 -0.5906,-5.11764 -0.21056,-11.28574 -1.84961,-18.17383 -1.74012,-7.31277 -2.41495,-3.17474 -4.2168,-7.81445 -0.86258,-2.22113 -1.93212,-6.0564 -2.95703,-9.63086 0.19898,-0.07 0.41738,-0.46538 0.68945,-1.41406 0.69393,-2.41961 2.625,10.93534 3.89453,10.3125 1.36469,-0.66952 -0.10935,-5.17023 -0.6875,-11.47266 -0.47469,-5.17451 0.24453,-11.51035 -1.39453,-18.39844 -1.74012,-7.31277 -2.71958,-3.02512 -4.65039,-7.60156 -0.15675,-0.37154 -0.32035,-0.80098 -0.48633,-1.25781 0.3911,-7.34285 1.40204,-17.84839 0.52149,-17.86328 -0.79666,-0.0135 -1.56884,5.93503 -2.44727,11.79101 -1.58486,-5.33407 -3.17355,-10.93848 -4.01953,-10.52343 -1.34359,0.65917 1.18709,10.48221 1.72852,16.62695 0.19677,2.2332 -0.0125,3.6962 -0.18946,5.1875 -0.82908,2.23132 -1.64764,4.19051 -2.19726,9.49805 -0.3789,3.65885 -0.92026,9.46229 -0.94922,13.42968 -0.70606,3.91355 -1.49006,10.77377 -2.35938,15.40235 -1.05627,5.62398 -2.28282,5.91116 -3.13867,13.67968 -0.34324,-4.48448 -0.81706,-9.78679 -1.25586,-11.20507 -0.40993,-1.325 -0.47597,-5.08342 -0.84961,-1.67188 -0.13577,1.23972 -0.34884,-1.85761 -0.58398,-5.10156 -0.13919,-3.34699 -0.32916,-7.19194 -0.36328,-10.21094 -0.0623,-5.50937 0.69966,-6.46894 0.17968,-13.93164 -0.32182,-4.61878 -0.96561,-13.02988 -1.61914,-14.77734 -0.4709,-1.25913 -0.4973,-5.05785 -0.98828,-1.51953 -0.16133,1.16263 -0.35081,-1.28646 -0.56054,-4.15821 0.52037,-3.38179 1.01294,-6.81081 0.51562,-6.8457 -0.3538,-0.0248 -0.65624,0.55756 -0.95898,1.51562 -0.11613,-1.032 -0.23532,-1.69066 -0.35938,-1.55664 -0.29494,0.31866 -0.31007,1.72176 -0.24414,3.87891 -0.50902,2.26354 -1.09952,5.32626 -1.984369,8.75 -1.49212,5.77347 -4.17773,12.08829 -5.5,20.35742 -1.4038,8.77896 0.73762,4.79155 0.41406,10.77344 -0.0715,1.32164 -0.25247,3.08915 -0.4668,4.98633 -0.14646,-2.95044 -0.3598,-6.07846 -0.78906,-9.34961 -0.99102,-7.55217 -1.24523,-3.18676 -2.21679,-7.93946 -1.05821,-5.17651 -2.81232,-19.11685 -3.33008,-18.50585 -0.53695,0.63362 0.8758,10.78262 1.32422,17.0996 0.38098,5.36704 -0.32409,6.34236 0.62695,13.58985 0.42012,3.20158 1.11415,8.24551 1.75195,11.49609 0.19078,2.24555 0.54796,5.40923 0.88281,8.55469 -0.0508,0.21563 -0.0937,0.41825 -0.14648,0.63672 -1.39587,5.78022 -3.79687,12.11563 -5.11914,20.38476 -1.4038,8.77897 0.48338,4.77368 0.0527,10.74805 -0.20616,2.86002 -0.83697,7.55515 -1.4082,11.94727 -0.15525,-0.0434 -0.43727,0.24842 -0.94922,1.10156 -1.30152,2.16886 2.08349,-13.14084 1.02929,-13.21484 -1.13321,-0.0795 -1.7295,5.55789 -3.54687,12.58984 -0.87046,3.36807 -2.14539,6.93409 -3.32031,10.95117 -0.029,-0.0923 -0.0587,-0.17596 -0.0879,-0.26562 -0.2268,-3.60591 -1.18341,-9.69053 -1.40235,-13.94922 -0.27295,-5.31005 1.24356,-6.1055 -0.008,-13.3711 -0.77449,-4.49679 -2.30078,-12.69407 -3.66992,-14.48437 -0.98654,-1.29 -1.14378,-4.95035 -2.04297,-1.62891 -0.32597,1.20407 -0.83613,-1.79535 -1.40039,-4.94531 -0.33512,-3.26353 -0.79662,-7.01708 -0.8789,-9.96289 -0.14984,-5.36387 1.68301,-6.29885 0.43164,-13.56445 -0.7745,-4.4968 -2.32177,-12.68542 -3.89454,-14.38672 -1.13325,-1.22588 -1.20122,-4.92533 -2.38281,-1.48047 -0.23123,0.67413 -0.48528,0.0889 -0.75976,-1.06836 0.35962,-1.46132 0.66062,-3.32835 0.84765,-6.03906 0.3913,-5.67098 0.97702,-16.10254 -0.0527,-19.22657 -0.74199,-2.25101 0.10515,-6.48142 -1.82812,-3.49414 -1.36832,2.11432 0.96167,-14.2969 -0.37891,-14.65039 -0.045,-0.0119 -0.0885,-0.0165 -0.13086,-0.0156 z m 91.902339,5.24414 c -0.0438,-0.007 -0.0845,-3.3e-4 -0.125,0.0195 -1.34359,0.65917 1.18709,10.48026 1.72852,16.625 0.46001,5.22069 -1.3164,6.22639 0.35351,13.24414 0.73485,3.08814 1.96729,7.96607 3.21875,11.09961 0.43453,3.5026 1.74569,9.38757 2.21094,13.5293 0.57986,5.16189 -0.88867,6.01545 0.78125,13.0332 1.03354,4.34339 3.03129,12.25502 4.50195,13.92969 1.05968,1.20667 1.42916,4.76622 2.13477,1.48242 0.25573,-1.19013 0.93813,1.70554 1.68359,4.74609 0.52353,3.16454 1.20237,6.79991 1.45508,9.66797 0.46001,5.2207 -1.31639,6.2264 0.35351,13.24414 1.03354,4.3434 3.05385,12.24482 4.72266,13.82227 1.20247,1.13663 1.48245,4.73895 2.46289,1.32031 0.69393,-2.41961 2.62695,10.93534 3.89649,10.3125 1.36467,-0.66952 -0.11131,-5.16828 -0.68946,-11.4707 -0.47468,-5.17452 0.24454,-11.51036 -1.39453,-18.39844 -1.74012,-7.31277 -2.71958,-3.02513 -4.65039,-7.60156 -1.53702,-3.64309 -3.56747,-11.81823 -5.05664,-15.7168 -0.0355,-0.27762 -0.0765,-0.53926 -0.10937,-0.82422 -0.5906,-5.11764 -0.21251,-11.28574 -1.85157,-18.17383 -1.74012,-7.31277 -2.41299,-3.17474 -4.21484,-7.81445 -0.86258,-2.22113 -1.93212,-6.05639 -2.95703,-9.63086 0.19877,-0.0708 0.41578,-0.46662 0.6875,-1.41406 0.69393,-2.41961 2.62695,10.93534 3.89648,10.3125 1.36469,-0.66952 -0.1113,-5.17023 -0.68945,-11.47266 -0.47469,-5.1745 0.24648,-11.5084 -1.39258,-18.39648 -1.74012,-7.31277 -2.71958,-3.02513 -4.65039,-7.60157 -2.03727,-4.82877 -4.94887,-17.65409 -6.30664,-17.87304 z m -51.31836,21.13476 c 0.001,0.21119 -2e-5,0.42616 0,0.64063 -0.0226,-0.12869 -0.0171,-0.3611 0,-0.64063 z m -78.873049,9.55469 c -0.0404,-0.009 -0.0803,-0.006 -0.12109,0.0117 -1.40232,0.61288 -0.19586,5.29306 0.008,11.76953 0.16723,5.3174 -0.92747,11.76122 0.30078,18.89258 1.30398,7.57105 2.53678,3.23711 4.19336,8.01953 1.31912,3.80821 2.86314,12.27936 4.11914,16.34375 0.0188,0.28422 0.0427,0.55226 0.0586,0.84375 0.28634,5.26535 -0.45677,11.55419 0.77149,18.68555 1.30398,7.57104 2.22203,3.3745 3.74609,8.21484 0.72955,2.31702 1.5714,6.29618 2.38281,10.00586 -0.2029,0.0607 -0.44337,0.45357 -0.77148,1.41016 -0.8363,2.43818 -1.97478,-11.32211 -3.2793,-10.75196 -1.40232,0.61287 -0.19586,5.29306 0.008,11.76954 0.16723,5.31739 -0.92747,11.75927 0.30078,18.89062 1.30398,7.57105 2.53678,3.23711 4.19336,8.01953 1.8043,5.20889 4.03198,19.18146 5.36328,18.59961 1.38062,-0.6034 -0.56583,-10.78245 -0.74218,-17.0957 -0.14984,-5.36387 1.68496,-6.29886 0.43359,-13.56446 -0.5509,-3.19858 -1.49423,-8.25466 -2.55859,-11.52539 -0.22661,-3.60569 -1.18338,-9.68987 -1.40235,-13.94921 -0.27295,-5.31005 1.24356,-6.10745 -0.008,-13.37305 -0.77449,-4.49679 -2.30273,-12.69408 -3.67187,-14.48438 -0.98654,-1.28999 -1.14378,-4.95034 -2.04297,-1.6289 -0.32603,1.20429 -0.83601,-1.79471 -1.40039,-4.94531 -0.33513,-3.26353 -0.79662,-7.01513 -0.87891,-9.96094 -0.14983,-5.36387 1.68497,-6.30081 0.4336,-13.56641 -0.77448,-4.49679 -2.32371,-12.68346 -3.89647,-14.38476 -1.13326,-1.22588 -1.19927,-4.92534 -2.38086,-1.48047 -0.81017,2.36198 -1.90468,-10.47916 -3.15821,-10.76563 z m 78.976569,8.89453 c 0.008,0.12155 0.011,0.23939 0.0195,0.36133 0.54184,7.77643 1.05384,3.32612 1.74218,8.23828 0.54638,3.89899 1.18408,12.52657 1.70508,16.7168 0.009,0.32811 0.0238,0.59984 0.0312,0.9375 0.11898,5.40818 -0.19006,11.86659 0.32032,19.19141 0.54184,7.77642 0.92139,3.4678 1.55468,8.43945 0.30316,2.37995 0.65306,6.46692 0.99024,10.27734 -0.084,0.0662 -0.1848,0.4707 -0.32031,1.44727 -0.3475,2.50432 -0.81927,-11.63053 -1.36133,-11.04492 -0.58294,0.6295 -0.0827,5.43768 0.002,12.08984 0.0386,3.03538 -0.0798,6.43716 -0.10938,10.10938 -1.12482,4.46958 -2.46161,5.22528 -3.24609,12.80078 -0.0694,0.67006 -0.14793,1.54662 -0.22461,2.33789 -0.015,-0.11821 -0.0255,-0.233 -0.041,-0.35157 -0.99103,-7.55217 -1.24524,-3.18674 -2.2168,-7.93945 -0.770349,-3.76837 -1.905289,-12.1288 -2.667969,-16.19141 -0.0285,-0.32458 -0.0585,-0.59343 -0.0859,-0.92773 -0.43176,-5.26547 -0.49817,-11.57783 -1.43164,-18.69141 -0.8252,-6.28847 -1.05981,-4.46965 -1.64453,-6.44531 0.0858,-0.89083 0.14428,-1.69041 0.17969,-2.41406 0.0265,0.0303 0.0528,0.0432 0.0762,0.0156 0.31542,-0.37222 0.17432,-2.19585 -0.0801,-4.83008 0.0508,-0.83453 0.0811,-1.52671 -0.14063,-1.44922 -0.11943,-1.21535 -0.2377,-2.49697 -0.35937,-3.9707 0.0499,-0.32128 0.0937,-0.6199 0.14453,-0.94727 0.75796,-3.6629 1.5793,-7.91166 2.41211,-11.10156 1.51791,-5.81404 3.039549,-5.85256 4.386719,-14.27734 0.10905,-0.68201 0.2417,-1.57517 0.36523,-2.38086 z m -7.878909,32.64844 c 0.0525,0.39073 0.10465,0.76606 0.1582,1.16016 -0.27523,0.51205 -0.28603,-0.0383 -0.1582,-1.16016 z m 10.115229,76.60547 c 0.0314,0.12524 0.0404,0.35606 0.0391,0.63867 -0.0139,-0.21037 -0.0264,-0.42488 -0.0391,-0.63867 z" /><path
       id="path40758-3-3"
       style="fill:#ffffff;fill-opacity:1;stroke-width:0.383383"
       d="m 189.42978,57.366447 c -0.13465,-1.307077 -6.17206,-0.88435 -13.49679,-1.638453 -6.20786,-0.639108 -12.83967,-2.68341 -21.85362,-2.556078 -9.56971,0.135183 -5.44884,1.996963 -12.06483,2.899066 -5.26744,0.718228 -16.00051,0.955507 -21.51984,1.573035 -0.34968,-0.02509 -0.6844,-0.0427 -1.04082,-0.07214 -6.22986,-0.514454 -12.92633,-2.194069 -21.940287,-2.066746 -9.569706,0.135182 -5.390554,1.670165 -11.982052,2.433569 -3.155592,0.365479 -8.292053,0.590006 -13.099721,0.825396 0.07088,-0.208174 -0.213499,-0.502938 -1.086116,-0.969919 -2.220489,-1.18829 14.327407,-0.227126 14.568519,-1.592401 0.259189,-1.467616 -5.930887,-0.989781 -13.491912,-1.768204 -6.207843,-0.639119 -12.837873,-2.685526 -21.851827,-2.558194 -9.569706,0.135183 -5.448837,1.996963 -12.064829,2.899065 -7.205963,0.98254 -24.74412,1.0584 -24.990185,2.451711 -0.255186,1.444926 12.742644,1.07298 20.097909,1.853552 6.249171,0.663184 6.064144,2.602415 15.247774,2.472685 4.057811,-0.05732 10.505578,-0.22384 14.985107,-0.778441 4.277179,0.326462 11.869378,0.311779 16.920584,0.742086 6.271922,0.534294 6.145463,2.14292 15.329093,2.01319 5.683893,-0.08029 16.124513,-0.33997 19.114753,-1.412122 2.15462,-0.772541 6.45737,-0.374131 3.26786,-1.757483 -1.15702,-0.501838 2.63357,-0.548734 6.63302,-0.626364 3.9678,0.164106 8.58087,0.279018 12.0107,0.643011 0.42811,0.04546 0.82177,0.09708 1.19456,0.153425 -4.0213,0.149942 -8.44188,0.300193 -13.12283,1.513272 -7.43685,1.927279 -3.01577,2.79452 -7.64436,4.841953 -3.68571,1.630353 -12.00144,3.873586 -15.9477,5.462272 -0.28167,0.0423 -0.54681,0.0884 -0.83598,0.12836 -5.223468,0.72196 -11.552439,0.50096 -18.557386,2.31628 -7.436862,1.92728 -3.178629,2.4942 -7.875935,4.41437 -2.248615,0.91919 -6.14409,2.08803 -9.77382,3.20429 -0.07732,-0.19718 -0.488773,-0.40424 -1.469266,-0.6519 -2.499129,-0.63125 11.119362,-2.90681 10.443005,-4.15955 -0.72704,-1.34668 -5.291073,0.24371 -11.728335,0.9839 -5.285222,0.60756 -11.795669,0.0508 -18.800634,1.86615 -7.436842,1.92728 -3.015603,2.79646 -7.644201,4.8439 -0.374822,0.1658 -0.808594,0.34009 -1.270074,0.51724 -7.532358,-0.20174 -18.325689,-0.94223 -18.314273,-0.0617 0.01037,0.79643 6.123852,1.41756 12.147397,2.14466 -5.414462,1.72099 -11.102587,3.45199 -10.651932,4.28669 0.715802,1.32583 10.696607,-1.45586 16.973503,-2.15509 2.271821,-0.25305 3.775915,-0.0836 5.302083,0.0547 2.309766,0.771 4.361582,1.54018 9.812909,1.9528 3.760503,0.28464 9.722669,0.67663 13.786931,0.60301 4.030136,0.60477 11.076629,1.21122 15.842138,1.96071 5.918596,0.93083 6.082214,2.18729 14.589697,2.83123 0.756251,0.0572 1.734494,0.12326 2.637805,0.18621 -4.436135,0.96228 -12.401841,2.73805 -14.093847,3.55198 -1.225776,0.58966 -4.849729,1.17586 -1.502093,1.07356 1.218973,-0.0372 -1.762057,0.60361 -4.87292,1.2874 -3.212326,0.60079 -6.892853,1.32086 -9.800886,1.77191 -5.316966,0.82471 -6.347392,0.20294 -13.491053,1.75167 -4.421325,0.95852 -12.464657,2.76012 -14.066134,3.64963 -1.153937,0.64094 -4.823372,1.19475 -1.337474,1.19117 1.145287,-0.001 -1.196058,0.52426 -3.943346,1.1297 -3.338431,-0.0472 -6.720729,-0.0587 -6.68781,0.43887 0.02344,0.35408 0.628952,0.57207 1.596102,0.73934 -0.98264,0.25812 -1.603815,0.46766 -1.457585,0.57205 0.347774,0.24827 1.707003,0.0692 3.785412,-0.2954 2.255894,0.19073 5.294895,0.35168 8.721468,0.75403 3.275542,0.38461 6.784813,1.12045 10.685239,1.71951 -6.239152,1.13356 -14.390128,2.45332 -13.900581,2.83623 0.665205,0.52032 11.016432,-1.15275 17.472533,-1.76349 1.830653,-0.17319 3.142006,-0.20905 4.381007,-0.22733 0.583998,0.0287 1.172966,0.0518 1.775087,0.064 3.911172,0.0789 5.212356,-0.19663 6.000754,-0.56984 0.555808,-0.0737 1.097833,-0.14373 1.743665,-0.24313 2.211328,-0.34005 5.292477,-0.83128 8.083148,-1.33501 4.743778,-0.11564 10.391047,-0.12539 13.776519,-0.34665 0.320063,0.0296 0.624821,0.0524 0.951761,0.0854 5.774222,0.58245 12.219382,2.08386 20.389492,2.2487 8.67383,0.175 4.55016,-1.13936 10.38266,-1.54007 2.79205,-0.19187 7.41399,-0.21489 11.73589,-0.25722 -0.0177,0.15984 0.30509,0.39729 1.19416,0.78454 2.27087,0.98913 -12.98253,-0.24291 -12.9127,0.8118 0.0751,1.13376 5.60477,0.94333 12.6454,1.77004 3.37201,0.39594 6.98872,1.16553 11.02876,1.77325 -0.0829,0.0404 -0.15837,0.0796 -0.23894,0.11982 -3.45448,0.72345 -9.21041,2.51808 -13.29936,3.32517 -5.09604,1.00589 -6.07038,-0.38665 -12.92549,1.85943 -4.24273,1.39014 -11.9613,4.03899 -13.50826,5.64344 -1.11465,1.15608 -4.631459,1.81751 -1.30046,2.24839 1.20724,0.15617 -1.61993,1.07616 -4.588198,2.07118 -3.11028,0.78414 -6.678657,1.76222 -9.515964,2.25189 -5.164577,0.89133 -6.314112,-0.79556 -13.169217,1.4505 -4.242742,1.39013 -11.949428,4.05867 -13.383068,5.85253 -1.033008,1.29258 -4.599706,1.8703 -1.111541,2.56389 0.681635,0.13553 0.152209,0.47088 -0.926431,0.90219 -1.461452,-0.15435 -3.308209,-0.19448 -5.956398,-0.004 -5.533957,0.39775 -15.695451,1.26291 -18.577063,2.71578 -2.076353,1.0469 -6.277671,0.79315 -3.131043,2.29487 2.227098,1.06282 -13.949088,1.0258 -14.111062,2.40297 -0.174116,1.48039 5.832214,0.65978 13.241086,1.01492 6.082926,0.29158 12.654251,1.96374 21.430428,1.33305 9.317272,-0.66962 5.203099,-2.29932 11.601351,-3.56997 5.094354,-1.01171 15.569696,-1.84785 20.914353,-2.77306 0.332008,0.005 0.648586,0.005 0.986972,0.0139 6.097731,0.16584 12.71303,1.46887 21.489205,0.83818 9.31727,-0.66962 5.16273,-1.96804 11.54453,-3.0988 3.05491,-0.54127 8.04794,-1.05249 12.71945,-1.55614 -0.0567,0.21179 0.2364,0.49009 1.1103,0.90715 2.22709,1.06283 -13.94908,1.02581 -14.11106,2.40297 -0.17412,1.48039 5.83221,0.65979 13.24108,1.01493 6.08294,0.29158 12.65425,1.96375 21.43043,1.33306 9.31728,-0.66963 5.2031,-2.29934 11.60136,-3.56999 6.96881,-1.38395 24.05251,-2.43818 24.21781,-3.84363 0.17142,-1.45751 -12.47255,-0.36118 -19.68104,-0.72995 -6.12448,-0.31332 -6.0491,-2.26064 -14.99048,-1.61802 -3.95102,0.28399 -10.22559,0.81099 -14.56073,1.61527 -4.18524,-0.087 -11.58206,0.35071 -16.5264,0.20309 -6.13978,-0.1833 -6.10252,-1.79562 -15.0439,-1.15301 -5.53395,0.39774 -15.691508,1.2402 -18.547844,2.47815 -2.058132,0.89203 -6.271815,0.7351 -3.090117,1.93869 1.153484,0.43634 -2.533841,0.69434 -6.42399,0.99508 -3.876298,0.0577 -8.38185,0.20074 -11.745099,0.0287 -0.419209,-0.0214 -0.803449,-0.0515 -1.169435,-0.0869 3.90992,-0.3744 8.209743,-0.7699 12.705424,-2.2429 7.143307,-2.34049 2.789044,-2.963 7.189622,-5.26664 3.504892,-1.83475 11.489823,-4.53758 15.249049,-6.34489 0.27117,-0.0578 0.52614,-0.11893 0.80469,-0.17474 5.05104,-1.01292 11.22942,-1.14565 17.95787,-3.35021 7.1433,-2.3405 2.96356,-2.66988 7.43789,-4.85025 2.14195,-1.04379 5.87533,-2.42766 9.3525,-3.74544 0.0862,0.19249 0.49838,0.37736 1.46635,0.56983 2.46882,0.4909 -10.68001,3.52271 -9.95405,4.73622 0.78038,1.30448 5.14336,-0.53768 11.37615,-1.63644 5.11732,-0.90212 11.49098,-0.71074 18.21944,-2.91532 7.14329,-2.3405 2.78919,-2.96105 7.18977,-5.26469 0.35726,-0.18702 0.77166,-0.38567 1.21315,-0.58895 7.35,-0.21912 17.90318,-0.0828 17.84501,-0.96153 -0.0526,-0.79503 -6.04468,-1.0713 -11.95333,-1.46113 5.18428,-2.0217 10.63766,-4.06964 10.15389,-4.87829 -0.76831,-1.2843 -10.34768,2.05218 -16.42636,3.10127 -2.2092,0.38127 -3.68451,0.29403 -5.18535,0.24134 -2.29238,-0.64121 -4.3127,-1.29449 -9.64754,-1.40212 -3.67767,-0.0742 -9.50601,-0.13248 -13.46213,0.16763 -3.95862,-0.37912 -10.86023,-0.59157 -15.54495,-1.07409 -5.6922,-0.5863 -6.08009,-1.78481 -13.89283,-1.99355 4.44058,-0.71391 9.68534,-1.62576 11.06235,-2.18066 1.28644,-0.51838 5.02645,-0.89584 1.59567,-0.98531 -1.24671,-0.0325 1.82229,-0.50167 5.03557,-1.00499 3.32392,-0.41624 7.13988,-0.92438 10.14565,-1.20872 5.48523,-0.51892 6.50468,0.16085 13.89856,-0.97614 4.57619,-0.7037 12.90494,-2.04272 14.59219,-2.8389 1.21575,-0.57368 4.9992,-0.91498 1.43235,-1.11088 -1.172,-0.0644 1.25294,-0.45627 4.09741,-0.9034 3.41329,0.23816 6.87135,0.4447 6.86488,-0.0538 -0.005,-0.35464 -0.61005,-0.60775 -1.58992,-0.83 1.01882,-0.20131 1.66533,-0.3747 1.52148,-0.48722 -0.34202,-0.2675 -1.74154,-0.16624 -3.88579,0.0783 -2.29796,-0.31958 -5.39909,-0.65409 -8.88441,-1.25199 -5.87732,-1.00825 -12.39308,-3.16099 -20.74338,-3.79303 -8.86512,-0.67102 -4.71388,1.13239 -10.702,1.30596 -1.32301,0.0383 -3.09944,0.005 -5.00786,-0.0517 2.92813,-0.3906 6.02769,-0.86258 9.25198,-1.5616 7.44398,-1.61383 3.07253,-1.50519 7.7283,-2.8675 5.07094,-1.4838 18.81782,-4.3878 18.16599,-4.85311 -0.67596,-0.48256 -10.67286,1.76688 -16.93091,2.73755 -5.31696,0.82471 -6.34739,0.20294 -13.49106,1.75166 -3.15572,0.68415 -8.12473,1.79403 -11.31123,2.69917 -2.22199,0.37632 -5.34516,0.9946 -8.45202,1.58912 -0.2191,-0.0327 -0.42458,-0.0587 -0.64668,-0.0932 -5.87606,-0.91177 -12.38874,-2.77917 -20.739034,-3.41121 -8.86514,-0.67102 -4.717159,0.87755 -10.706666,0.94374 -2.867266,0.0317 -7.598533,-0.20761 -12.022894,-0.41268 0.03038,-0.15832 -0.283823,-0.41517 -1.176476,-0.85461 -2.269312,-1.1172 13.268349,0.98668 13.25468,-0.07 -0.01474,-1.1359 -5.682159,-1.26268 -12.840589,-2.49071 -3.428649,-0.58818 -7.088105,-1.56303 -11.188776,-2.40081 0.08958,-0.0365 0.170487,-0.0731 0.257417,-0.10962 3.574686,-0.52502 9.55903,-1.98287 13.7849,-2.55419 5.26913,-0.71231 6.18759,0.73302 13.32439,-1.1167 4.417083,-1.14469 12.459574,-3.34544 14.130178,-4.85832 1.20376,-1.0901 4.83846,-1.55032 1.4539,-2.171 -1.22695,-0.22501 1.71984,-0.98212 4.81216,-1.80563 3.2245,-0.60458 6.92686,-1.375726 9.8557,-1.701986 5.33298,-0.5941 6.41671,1.154906 13.55353,-0.69461 4.41709,-1.144705 12.44921,-3.365644 14.01424,-5.074069 1.12769,-1.230997 4.80876,-1.60549 1.27779,-2.497364 -0.69098,-0.174535 -0.12884,-0.476237 1.00168,-0.845732 1.48611,0.23721 3.37167,0.38236 6.08855,0.343974 5.6839,-0.08028 16.1281,-0.361562 19.15599,-1.646779 2.18173,-0.926088 6.46782,-0.432649 3.33052,-2.111557 -2.2205,-1.188289 14.3274,-0.227136 14.56852,-1.592411 0.008,-0.04583 0.009,-0.08956 0.005,-0.131703 z m 2.39443,92.020693 c 0.003,-0.0442 -0.007,-0.0842 -0.0298,-0.12295 -0.76831,-1.28431 -10.34573,2.05202 -16.42442,3.1011 -5.16457,0.89133 -6.3141,-0.79557 -13.16922,1.4505 -3.01657,0.98838 -7.77551,2.62105 -10.79448,4.12804 -3.45451,0.72346 -9.21049,2.51809 -13.29938,3.32517 -5.09603,1.00588 -6.06842,-0.38681 -12.92353,1.85927 -4.24273,1.39013 -11.96147,4.03703 -13.50842,5.64149 -1.11465,1.15608 -4.6313,1.81945 -1.3003,2.25034 1.20723,0.15616 -1.62188,1.07632 -4.59015,2.07133 -3.11023,0.78413 -6.676788,1.76208 -9.514017,2.25174 -5.164577,0.89132 -6.314112,-0.79557 -13.169217,1.45049 -4.242742,1.39013 -11.949428,4.05867 -13.383068,5.85253 -1.033007,1.29258 -4.599706,1.8703 -1.111541,2.56389 2.468818,0.49091 -10.679856,3.52466 -9.953891,4.73818 0.780373,1.30446 5.141252,-0.53948 11.374028,-1.63823 5.11734,-0.90211 11.490998,-0.71074 18.219446,-2.91532 7.143297,-2.3405 2.789206,-2.96106 7.189773,-5.26469 3.503095,-1.83381 11.481717,-4.53515 15.243377,-6.34246 0.27372,-0.0584 0.53106,-0.12095 0.81232,-0.17734 5.05104,-1.01292 11.22925,-1.14759 17.95771,-3.35216 7.14329,-2.3405 2.96372,-2.66793 7.43804,-4.8483 2.14196,-1.04378 5.87533,-2.42766 9.3525,-3.74543 0.087,0.19221 0.49949,0.37565 1.4662,0.56788 2.46881,0.4909 -10.67986,3.52466 -9.95389,4.73817 0.78037,1.30447 5.14319,-0.53963 11.37598,-1.63839 5.11731,-0.90212 11.4892,-0.70864 18.21765,-2.91321 7.1433,-2.3405 2.78921,-2.96106 7.18978,-5.2647 4.64321,-2.43065 17.18294,-6.39569 17.28855,-7.76694 z M 166.50693,99.99799 c -0.21038,0.0185 -0.42469,0.0353 -0.63842,0.0531 0.12637,-0.0332 0.35843,-0.047 0.63842,-0.0531 z M 150.44502,22.188836 c 0.006,-0.04101 -6.8e-4,-0.08052 -0.0217,-0.119702 -0.72705,-1.34667 -5.29108,0.243714 -11.72834,0.983898 -5.28522,0.607572 -11.79762,0.05096 -18.80257,1.86631 -7.43685,1.927278 -3.01562,2.796465 -7.6442,4.843897 -3.68572,1.630352 -11.99967,3.87148 -15.945911,5.460173 -0.281683,0.0423 -0.546818,0.08835 -0.835985,0.128361 -5.223475,0.721954 -11.552276,0.502873 -18.55723,2.318233 -7.436842,1.927278 -3.178629,2.49419 -7.875926,4.414361 -2.248546,0.919164 -6.144197,2.088066 -9.77382,3.204287 -0.07731,-0.197168 -0.488772,-0.404233 -1.469275,-0.651893 -2.499129,-0.631247 11.119372,-2.906805 10.443015,-4.159556 -0.72704,-1.346672 -5.291073,0.243713 -11.728345,0.983899 -5.285212,0.60757 -11.79568,0.0508 -18.800625,1.866148 -7.436851,1.927278 -3.015613,2.796464 -7.6442,4.843896 -5.04134,2.230006 -18.781074,5.608615 -18.090836,6.887084 0.715802,1.325831 10.698399,-1.457959 16.975285,-2.157194 5.332973,-0.594095 6.416884,1.156858 13.5537,-0.692664 3.141884,-0.814228 8.102332,-2.173558 11.273542,-3.50546 3.574482,-0.524813 9.558375,-1.982786 13.78489,-2.554185 5.26913,-0.712318 6.189533,0.73285 13.326333,-1.116861 4.417083,-1.144696 12.459423,-3.347389 14.130029,-4.860265 1.203744,-1.090108 4.83845,-1.550322 1.453888,-2.171003 -1.227177,-0.225048 1.719207,-0.981947 4.812161,-1.80563 3.2245,-0.604587 6.92491,-1.375569 9.85376,-1.701842 5.33297,-0.594084 6.41882,1.156707 13.55564,-0.692815 4.41709,-1.144685 12.4471,-3.367416 14.01212,-5.075831 1.12769,-1.231007 4.80894,-1.603547 1.27796,-2.495421 -2.42103,-0.611525 10.28513,-2.767049 10.46667,-4.040016 z m -2.31519,79.442124 c -0.12047,0.0181 -0.23765,0.0308 -0.35847,0.0494 -7.70472,1.18479 -3.22728,1.32601 -8.06544,2.41929 -3.84026,0.8678 -12.38525,2.2187 -16.51785,3.08536 -0.32623,0.0362 -0.5958,0.0735 -0.93169,0.10883 -5.37969,0.56701 -11.84148,0.79457 -19.09875,1.91056 -7.704714,1.18479 -3.37946,1.20577 -8.281477,2.24912 -2.346616,0.49947 -6.390498,1.18705 -10.159837,1.83903 -0.07294,-0.0782 -0.484402,-0.14513 -1.468846,-0.1992 -2.52451,-0.13865 11.522544,-1.78085 10.894003,-2.27248 -0.675669,-0.52874 -5.425811,0.36847 -12.048039,1.00447 -3.021726,0.29016 -6.421609,0.45425 -10.083636,0.72927 -4.547457,-0.75033 -5.411401,-2.01986 -13.025861,-2.17348 -0.673508,-0.0136 -1.553561,-0.0192 -2.348464,-0.03 0.116559,-0.0247 0.230083,-0.0447 0.34696,-0.07 7.443986,-1.61384 3.07251,-1.50519 7.728292,-2.8675 3.691515,-1.08017 11.929045,-2.90444 15.914423,-4.00137 0.321099,-0.0553 0.586536,-0.1075 0.917412,-0.16253 5.211536,-0.86688 11.496651,-1.45648 18.50833,-2.9766 6.19839,-1.34379 4.36638,-1.42678 6.28675,-2.1733 0.89488,0.0116 1.69655,0.004 2.42065,-0.0211 -0.028,0.0289 -0.0387,0.0562 -0.009,0.0772 0.39709,0.28347 2.20274,-0.008 4.8068,-0.48033 0.83587,-0.0186 1.52818,-0.0458 1.43257,-0.26031 1.20126,-0.2198 2.46866,-0.44393 3.92723,-0.68738 0.32431,0.0231 0.62553,0.042 0.95599,0.0655 3.71314,0.45162 8.01537,0.91783 11.26334,1.48327 5.91988,1.03058 6.08444,2.54379 14.59191,3.18774 0.68871,0.0521 1.58979,0.11025 2.40295,0.16655 z m -33.18932,-5.14458 c -0.38503,0.0847 -0.75474,0.16781 -1.14305,0.25386 -0.53311,-0.23183 0.0144,-0.28822 1.14305,-0.25386 z m -75.502908,16.4325 c -0.122205,0.0417 -0.351483,0.0698 -0.633228,0.0919 0.208493,-0.0313 0.421228,-0.0615 0.633228,-0.0919 z" /><g
       id="g55631-8-1-9-3-2"
       style="stroke:none"
       transform="matrix(0.04148271,-0.08900235,0.08900235,0.04148271,28.981257,-3.1822366)"><path
         id="rect55103-1-1-1-6-0"
         style="opacity:0.99;fill:#fcfc00;fill-opacity:1;stroke:none"
         d="m -1279,391 48.3284,-17.07014 50.3316,-32.89235 c 26.6217,-10.72543 18.3389,-52.86491 92.3652,-20.92614 L -1061,314 l 88,477 -443,-177 c 8.9852,-14.62556 26.6875,-49.17791 30.3448,-67.13346 5.8669,-28.80444 7.1912,-33.07303 25.8532,-43.13052 0.2061,-26.40132 4.6872,-52.57765 54.7272,-76.35614 z"
         sodipodi:nodetypes="cccccccsccc" /><path
         id="rect55093-3-9-3-2-0"
         style="opacity:0.99;fill:#ffff75;fill-opacity:1;stroke:none"
         d="m -1149,331 -30,47 138,261 -77,-282 z m 65.8691,17.57227 c -5.4041,1.08865 -7.679,19.79122 -3.8691,61.42773 l 50,142 -20,-147 c -9.862,-36.2712 -20.0061,-57.66154 -26.1309,-56.42773 z m -185.082,88.46289 C -1281.041,436.92264 -1280.1417,448.48337 -1253,471 l 178,173 -158,-194 c -14.8774,-8.62782 -27.516,-12.89733 -35.2129,-12.96484 z M -1300,477 l -24,15 c 0,0 202.7487,173.77898 226,198 13.3207,13.87625 21.915,-12.49694 15,-18.95898 C -1136.0311,621.48359 -1286,494 -1286,494 Z m -20.9121,71.57422 134.4267,150.16398 L -1143,712 Z m -40.4766,28.83203 c -12.9651,-0.22416 -20.4167,8.51201 -10.834,30.33008 l 124.2051,45.25586 1.9785,-7.30469 -100.9726,-65.22266 c -5.1206,-1.91337 -10.0553,-2.98387 -14.377,-3.05859 z"
         sodipodi:nodetypes="cccccscccsscccsccssccccccsccccs" /></g><g
       id="g55631-8-1-9-3"
       style="stroke:none"
       transform="matrix(-0.04445621,0.08755501,-0.08755501,-0.04445621,170.80254,204.62392)"><path
         id="rect55103-1-1-1-6"
         style="opacity:0.99;fill:#fcfc00;fill-opacity:1;stroke:none"
         d="m -1279,391 48.3284,-17.07014 50.3316,-32.89235 c 26.6217,-10.72543 18.3389,-52.86491 92.3652,-20.92614 L -1061,314 l 88,477 -443,-177 c 8.9852,-14.62556 26.6875,-49.17791 30.3448,-67.13346 5.8669,-28.80444 7.1912,-33.07303 25.8532,-43.13052 0.2061,-26.40132 4.6872,-52.57765 54.7272,-76.35614 z"
         sodipodi:nodetypes="cccccccsccc" /><path
         id="rect55093-3-9-3-2"
         style="opacity:0.99;fill:#ffff75;fill-opacity:1;stroke:none"
         d="m -1149,331 -30,47 138,261 -77,-282 z m 65.8691,17.57227 c -5.4041,1.08865 -7.679,19.79122 -3.8691,61.42773 l 50,142 -20,-147 c -9.862,-36.2712 -20.0061,-57.66154 -26.1309,-56.42773 z m -185.082,88.46289 C -1281.041,436.92264 -1280.1417,448.48337 -1253,471 l 178,173 -158,-194 c -14.8774,-8.62782 -27.516,-12.89733 -35.2129,-12.96484 z M -1300,477 l -24,15 c 0,0 202.7487,173.77898 226,198 13.3207,13.87625 21.915,-12.49694 15,-18.95898 C -1136.0311,621.48359 -1286,494 -1286,494 Z m -20.9121,71.57422 134.4267,150.16398 L -1143,712 Z m -40.4766,28.83203 c -12.9651,-0.22416 -20.4167,8.51201 -10.834,30.33008 l 124.2051,45.25586 1.9785,-7.30469 -100.9726,-65.22266 c -5.1206,-1.91337 -10.0553,-2.98387 -14.377,-3.05859 z"
         sodipodi:nodetypes="cccccscccsscccsccssccccccsccccs" /></g><g
       id="g55631-8-1-98"
       style="stroke:none"
       transform="matrix(0.06401318,0.07446172,-0.07446172,0.06401318,230.94023,76.67905)"><path
         id="rect55103-1-1-3"
         style="opacity:0.99;fill:#fcfc00;fill-opacity:1;stroke:none"
         d="m -1279,391 48.3284,-17.07014 50.3316,-32.89235 c 26.6217,-10.72543 18.3389,-52.86491 92.3652,-20.92614 L -1061,314 l 88,477 -443,-177 c 8.9852,-14.62556 26.6875,-49.17791 30.3448,-67.13346 5.8669,-28.80444 7.1912,-33.07303 25.8532,-43.13052 0.2061,-26.40132 4.6872,-52.57765 54.7272,-76.35614 z"
         sodipodi:nodetypes="cccccccsccc" /><path
         id="rect55093-3-9-6"
         style="opacity:0.99;fill:#ffff75;fill-opacity:1;stroke:none"
         d="m -1149,331 -30,47 138,261 -77,-282 z m 65.8691,17.57227 c -5.4041,1.08865 -7.679,19.79122 -3.8691,61.42773 l 50,142 -20,-147 c -9.862,-36.2712 -20.0061,-57.66154 -26.1309,-56.42773 z m -185.082,88.46289 C -1281.041,436.92264 -1280.1417,448.48337 -1253,471 l 178,173 -158,-194 c -14.8774,-8.62782 -27.516,-12.89733 -35.2129,-12.96484 z M -1300,477 l -24,15 c 0,0 202.7487,173.77898 226,198 13.3207,13.87625 21.915,-12.49694 15,-18.95898 C -1136.0311,621.48359 -1286,494 -1286,494 Z m -20.9121,71.57422 134.4267,150.16398 L -1143,712 Z m -40.4766,28.83203 c -12.9651,-0.22416 -20.4167,8.51201 -10.834,30.33008 l 124.2051,45.25586 1.9785,-7.30469 -100.9726,-65.22266 c -5.1206,-1.91337 -10.0553,-2.98387 -14.377,-3.05859 z"
         sodipodi:nodetypes="cccccscccsscccsccssccccccsccccs" /></g><g
       id="g55631-8-1-9-1"
       style="stroke:none"
       transform="matrix(-0.0846855,-0.04970514,0.04970514,-0.0846855,2.5357572,156.48855)"><path
         id="rect55103-1-1-1-8"
         style="opacity:0.99;fill:#fcfc00;fill-opacity:1;stroke:none"
         d="m -1279,391 48.3284,-17.07014 50.3316,-32.89235 c 26.6217,-10.72543 18.3389,-52.86491 92.3652,-20.92614 L -1061,314 l 88,477 -443,-177 c 8.9852,-14.62556 26.6875,-49.17791 30.3448,-67.13346 5.8669,-28.80444 7.1912,-33.07303 25.8532,-43.13052 0.2061,-26.40132 4.6872,-52.57765 54.7272,-76.35614 z"
         sodipodi:nodetypes="cccccccsccc" /><path
         id="rect55093-3-9-3-3"
         style="opacity:0.99;fill:#ffff75;fill-opacity:1;stroke:none"
         d="m -1149,331 -30,47 138,261 -77,-282 z m 65.8691,17.57227 c -5.4041,1.08865 -7.679,19.79122 -3.8691,61.42773 l 50,142 -20,-147 c -9.862,-36.2712 -20.0061,-57.66154 -26.1309,-56.42773 z m -185.082,88.46289 C -1281.041,436.92264 -1280.1417,448.48337 -1253,471 l 178,173 -158,-194 c -14.8774,-8.62782 -27.516,-12.89733 -35.2129,-12.96484 z M -1300,477 l -24,15 c 0,0 202.7487,173.77898 226,198 13.3207,13.87625 21.915,-12.49694 15,-18.95898 C -1136.0311,621.48359 -1286,494 -1286,494 Z m -20.9121,71.57422 134.4267,150.16398 L -1143,712 Z m -40.4766,28.83203 c -12.9651,-0.22416 -20.4167,8.51201 -10.834,30.33008 l 124.2051,45.25586 1.9785,-7.30469 -100.9726,-65.22266 c -5.1206,-1.91337 -10.0553,-2.98387 -14.377,-3.05859 z"
         sodipodi:nodetypes="cccccscccsscccsccssccccccsccccs" /></g><g
       id="g55631-8-1-9-1-3"
       style="stroke:none"
       transform="matrix(-0.0846855,-0.04970514,0.04970514,-0.0846855,-25.946177,92.49316)"><path
         id="rect55103-1-1-1-8-5"
         style="opacity:0.99;fill:#fcfc00;fill-opacity:1;stroke:none"
         d="m -1279,391 48.3284,-17.07014 50.3316,-32.89235 c 26.6217,-10.72543 18.3389,-52.86491 92.3652,-20.92614 L -1061,314 l 88,477 -443,-177 c 8.9852,-14.62556 26.6875,-49.17791 30.3448,-67.13346 5.8669,-28.80444 7.1912,-33.07303 25.8532,-43.13052 0.2061,-26.40132 4.6872,-52.57765 54.7272,-76.35614 z"
         sodipodi:nodetypes="cccccccsccc" /><path
         id="rect55093-3-9-3-3-3"
         style="opacity:0.99;fill:#ffff75;fill-opacity:1;stroke:none"
         d="m -1149,331 -30,47 138,261 -77,-282 z m 65.8691,17.57227 c -5.4041,1.08865 -7.679,19.79122 -3.8691,61.42773 l 50,142 -20,-147 c -9.862,-36.2712 -20.0061,-57.66154 -26.1309,-56.42773 z m -185.082,88.46289 C -1281.041,436.92264 -1280.1417,448.48337 -1253,471 l 178,173 -158,-194 c -14.8774,-8.62782 -27.516,-12.89733 -35.2129,-12.96484 z M -1300,477 l -24,15 c 0,0 202.7487,173.77898 226,198 13.3207,13.87625 21.915,-12.49694 15,-18.95898 C -1136.0311,621.48359 -1286,494 -1286,494 Z m -20.9121,71.57422 134.4267,150.16398 L -1143,712 Z m -40.4766,28.83203 c -12.9651,-0.22416 -20.4167,8.51201 -10.834,30.33008 l 124.2051,45.25586 1.9785,-7.30469 -100.9726,-65.22266 c -5.1206,-1.91337 -10.0553,-2.98387 -14.377,-3.05859 z"
         sodipodi:nodetypes="cccccscccsscccsccssccccccsccccs" /></g></g></svg>
